Lato-Bold.ufo
<glyph name="exclam" format="2">
  <advance width="562.0"/>
  <unicode hex="0021"/>
  <guideline x="376.32"/>
  <outline>
    <contour>
      <point x="165.82" y="1446.8" type="line"/>
      <point x="165.82" y="874.8" type="line" smooth="yes"/>
      <point x="165.82" y="753.68"/>
      <point x="178.74" y="640.24"/>
      <point x="198.34" y="510.32" type="curve"/>
      <point x="365.66" y="510.32" type="line"/>
      <point x="385.26" y="640.24"/>
      <point x="398.18" y="753.68"/>
      <point x="398.18" y="874.8" type="curve" smooth="yes"/>
      <point x="398.18" y="1446.8" type="line"/>
    </contour>
    <contour>
      <point x="127.42" y="136.92000000000002" type="curve" smooth="yes"/>
      <point x="127.42" y="51.0"/>
      <point x="192.86" y="-14.44"/>
      <point x="278.78" y="-14.44" type="curve" smooth="yes"/>
      <point x="363.14" y="-14.44"/>
      <point x="430.58" y="51.0"/>
      <point x="430.58" y="136.92000000000002" type="curve" smooth="yes"/>
      <point x="430.58" y="221.28"/>
      <point x="363.14" y="288.72"/>
      <point x="278.78" y="288.72" type="curve" smooth="yes"/>
      <point x="192.86" y="288.72"/>
      <point x="127.42" y="221.28"/>
    </contour>
  </outline>
</glyph>
<glyph name="numbersign" format="2">
  <advance width="1160"/>
  <unicode hex="0023"/>
  <outline>
    <contour>
      <point x="228.48" y="514.56" type="line"/>
      <point x="228.48" y="470.24" type="line"/>
      <point x="140.08" y="0" type="line" name="n02"/>
      <point x="249.92" y="0" type="line" smooth="yes"/>
      <point x="301.6" y="0"/>
      <point x="349.72" y="25.84"/>
      <point x="361.08" y="90.88" type="curve"/>
      <point x="431.44" y="470.24" type="line"/>
      <point x="431.44" y="514.56" type="line"/>
      <point x="511.16" y="940.04" type="line"/>
      <point x="511.16" y="985.48" type="line"/>
      <point x="598" y="1446.8" type="line" name="n11"/>
      <point x="485.48" y="1446.8" type="line" smooth="yes"/>
      <point x="433.36" y="1446.8"/>
      <point x="389.92" y="1414.72"/>
      <point x="380.12" y="1362.16" type="curve" smooth="yes"/>
      <point x="308.2" y="985.48" type="line"/>
      <point x="308.2" y="940.04" type="line"/>
    </contour>
    <contour>
      <point x="636.16" y="514.56" type="line"/>
      <point x="636.16" y="470.24" type="line"/>
      <point x="565.8" y="103.36" type="line"/>
      <point x="554" y="47.24"/>
      <point x="591.2" y="0"/>
      <point x="637.08" y="0" type="curve" smooth="yes"/>
      <point x="750.72" y="0" type="line"/>
      <point x="839.12" y="470.24" type="line"/>
      <point x="839.12" y="514.56" type="line"/>
      <point x="918.84" y="940.04" type="line"/>
      <point x="918.84" y="985.48" type="line"/>
      <point x="990.76" y="1359.72" type="line"/>
      <point x="999.44" y="1409.6"/>
      <point x="964.24" y="1446.8"/>
      <point x="912.56" y="1446.8" type="curve" smooth="yes"/>
      <point x="802.72" y="1446.8" type="line"/>
      <point x="715.88" y="985.48" type="line"/>
      <point x="715.88" y="940.04" type="line"/>
    </contour>
    <contour>
      <point x="1044.24" y="406.96" type="line" name="n36"/>
      <point x="1056.72" y="486.28" type="line" smooth="yes"/>
      <point x="1067.64" y="559.8"/>
      <point x="1044.48" y="587.2"/>
      <point x="994.36" y="587.2" type="curve" smooth="yes" name="n40"/>
      <point x="51.52" y="587.2" type="line"/>
      <point x="39.04" y="507.88" type="line" smooth="yes"/>
      <point x="28.12" y="434.36"/>
      <point x="51.28" y="406.96"/>
      <point x="101.4" y="406.96" type="curve" smooth="yes"/>
    </contour>
    <contour>
      <point x="79.44" y="861.16" type="line" name="n46"/>
      <point x="1003.56" y="861.16" type="line" smooth="yes"/>
      <point x="1073.96" y="861.16"/>
      <point x="1103.36" y="885.44"/>
      <point x="1112.72" y="937.12" type="curve" smooth="yes"/>
      <point x="1131.44" y="1041.4" type="line"/>
      <point x="207.32" y="1041.4" type="line" smooth="yes" name="n52"/>
      <point x="136.92" y="1041.4"/>
      <point x="107.52" y="1017.12"/>
      <point x="98.16" y="965.44" type="curve" smooth="yes"/>
    </contour>
  </outline>
</glyph>
<glyph name="dollar" format="2">
  <advance width="1160.0"/>
  <unicode hex="0024"/>
  <outline>
    <contour>
      <point x="1053.32" y="1293.16" type="line"/>
      <point x="959.76" y="1384.48"/>
      <point x="823.88" y="1460.8"/>
      <point x="617.68" y="1460.8" type="curve" smooth="yes"/>
      <point x="303.92" y="1460.8"/>
      <point x="127.36" y="1256.68"/>
      <point x="127.36" y="1044.36" type="curve" smooth="yes"/>
      <point x="127.36" y="526.2"/>
      <point x="846.44" y="724.36"/>
      <point x="846.44" y="414.96" type="curve" smooth="yes"/>
      <point x="846.44" y="273.6"/>
      <point x="747.92" y="191.20000000000002"/>
      <point x="561.68" y="191.20000000000002" type="curve" smooth="yes"/>
      <point x="353.84000000000003" y="191.20000000000002"/>
      <point x="274.08" y="322.64"/>
      <point x="204.84" y="322.64" type="curve" smooth="yes"/>
      <point x="180.12" y="322.64"/>
      <point x="156.28" y="308.15999999999997"/>
      <point x="142.92" y="288.56" type="curve" smooth="yes"/>
      <point x="67.16" y="173.8" type="line"/>
      <point x="183.44" y="59.8"/>
      <point x="370.56" y="-16.0"/>
      <point x="561.68" y="-16.0" type="curve" smooth="yes"/>
      <point x="891.4" y="-16.0"/>
      <point x="1080.6" y="192.52"/>
      <point x="1080.6" y="453.28" type="curve" smooth="yes"/>
      <point x="1080.6" y="924.0"/>
      <point x="359.96000000000004" y="758.56"/>
      <point x="359.96000000000004" y="1069.32" type="curve" smooth="yes"/>
      <point x="359.96000000000004" y="1170.24"/>
      <point x="439.16" y="1252.04"/>
      <point x="641.08" y="1252.04" type="curve" smooth="yes"/>
      <point x="788.64" y="1252.04"/>
      <point x="882.28" y="1161.04"/>
      <point x="931.68" y="1161.04" type="curve" smooth="yes"/>
      <point x="957.52" y="1161.04"/>
      <point x="975.56" y="1173.96"/>
      <point x="993.16" y="1201.36" type="curve"/>
    </contour>
    <contour>
      <point x="443.6" y="-222.51999999999998" type="line"/>
      <point x="534.72" y="-222.51999999999998" type="line" smooth="yes"/>
      <point x="572.36" y="-222.51999999999998"/>
      <point x="599.76" y="-191.56"/>
      <point x="601.32" y="-159.72" type="curve"/>
      <point x="753.12" y="1647.64" type="line"/>
      <point x="662.0" y="1647.64" type="line" smooth="yes"/>
      <point x="624.36" y="1647.64"/>
      <point x="596.96" y="1616.68"/>
      <point x="595.4" y="1584.84" type="curve"/>
    </contour>
  </outline>
</glyph>
<glyph name="ampersand" format="2">
  <advance width="1446.54"/>
  <unicode hex="0026"/>
  <outline>
    <contour>
      <point x="474.92" y="845.96" type="line"/>
      <point x="250.44" y="780.84"/>
      <point x="73.08" y="615.52"/>
      <point x="73.08" y="398.6" type="curve" smooth="yes"/>
      <point x="73.08" y="142.76"/>
      <point x="297.6" y="-16.0"/>
      <point x="520.36" y="-16.0" type="curve" smooth="yes"/>
      <point x="960.68" y="-16.0"/>
      <point x="1280.48" y="351.68"/>
      <point x="1282.24" y="788.9200000000001" type="curve"/>
      <point x="1127.6" y="788.9200000000001" type="line" smooth="yes"/>
      <point x="1097.32" y="788.9200000000001"/>
      <point x="1079.72" y="768.88"/>
      <point x="1076.16" y="737.04" type="curve"/>
      <point x="1052.4" y="456.72"/>
      <point x="871.6" y="183.4"/>
      <point x="564.04" y="183.4" type="curve" smooth="yes"/>
      <point x="434.12" y="183.4"/>
      <point x="324.84000000000003" y="272.68"/>
      <point x="324.84000000000003" y="418.88" type="curve" smooth="yes"/>
      <point x="324.84000000000003" y="556.72"/>
      <point x="415.76" y="675.92"/>
      <point x="632.0" y="747.28" type="curve"/>
    </contour>
    <contour>
      <point x="672.16" y="1462.8" type="curve"/>
      <point x="415.32" y="1462.8"/>
      <point x="264.84" y="1294.24"/>
      <point x="264.84" y="1092.84" type="curve" smooth="yes"/>
      <point x="264.84" y="969.56"/>
      <point x="319.24" y="843.48"/>
      <point x="444.76" y="709.48" type="curve" smooth="yes"/>
      <point x="1088.0" y="47.44" type="line"/>
      <point x="1123.4" y="9.36"/>
      <point x="1148.12" y="0.0"/>
      <point x="1199.12" y="0.0" type="curve" smooth="yes"/>
      <point x="1441.32" y="0.0" type="line"/>
      <point x="613.2" y="861.2" type="line" smooth="yes"/>
      <point x="526.44" y="951.32"/>
      <point x="494.76" y="1015.64"/>
      <point x="494.76" y="1094.4" type="curve" smooth="yes"/>
      <point x="494.76" y="1191.08"/>
      <point x="560.36" y="1272.76"/>
      <point x="672.16" y="1272.76" type="curve" smooth="yes"/>
      <point x="765.0" y="1272.76"/>
      <point x="814.0" y="1213.48"/>
      <point x="838.72" y="1144.6" type="curve"/>
      <point x="851.64" y="1113.88"/>
      <point x="875.24" y="1100.52"/>
      <point x="903.08" y="1106.76" type="curve" smooth="yes"/>
      <point x="1060.4" y="1139.52" type="line"/>
      <point x="1046.36" y="1306.48"/>
      <point x="907.28" y="1462.8"/>
    </contour>
  </outline>
</glyph>
<glyph name="quotesingle" format="2">
  <advance width="422.8"/>
  <unicode hex="0027"/>
  <guideline x="254.24"/>
  <outline>
    <contour>
      <point x="103.89999999999999" y="1446.8" type="line"/>
      <point x="103.89999999999999" y="1159.04" type="line"/>
      <point x="126.18" y="1002.36" type="line"/>
      <point x="137.1" y="943.76"/>
      <point x="162.5" y="910.12"/>
      <point x="210.62" y="910.12" type="curve" smooth="yes"/>
      <point x="266.54" y="910.12"/>
      <point x="287.26" y="943.76"/>
      <point x="296.62" y="1002.36" type="curve"/>
      <point x="318.9" y="1159.04" type="line"/>
      <point x="318.9" y="1446.8" type="line"/>
    </contour>
  </outline>
</glyph>
<glyph name="parenleft" format="2">
  <advance width="548.58"/>
  <unicode hex="0028"/>
  <outline>
    <contour>
      <point x="287.28" y="627.32" type="curve"/>
      <point x="287.28" y="899.88"/>
      <point x="356.56" y="1174.32"/>
      <point x="479.52" y="1405.56" type="curve"/>
      <point x="507.36" y="1460.36"/>
      <point x="485.08" y="1486.64"/>
      <point x="457.68" y="1504.24" type="curve"/>
      <point x="347.84" y="1571.08" type="line"/>
      <point x="150.76" y="1267.12"/>
      <point x="73.4" y="961.64"/>
      <point x="73.4" y="627.32" type="curve"/>
      <point x="73.4" y="293.0"/>
      <point x="150.76" y="-12.480000000000004"/>
      <point x="347.84" y="-316.44" type="curve"/>
      <point x="457.68" y="-249.6" type="line"/>
      <point x="485.08" y="-232.0"/>
      <point x="507.36" y="-205.72"/>
      <point x="479.52" y="-150.92000000000002" type="curve"/>
      <point x="356.56" y="80.32"/>
      <point x="287.28" y="354.76"/>
    </contour>
  </outline>
</glyph>
<glyph name="parenright" format="2">
  <advance width="549"/>
  <unicode hex="0029"/>
  <outline>
    <contour>
      <point x="261.3" y="627.32" type="curve" smooth="yes" name="n00"/>
      <point x="261.3" y="354.76"/>
      <point x="192.02" y="80.32"/>
      <point x="69.06" y="-150.92" type="curve"/>
      <point x="41.22" y="-205.72"/>
      <point x="63.5" y="-232"/>
      <point x="90.9" y="-249.6" type="curve" smooth="yes"/>
      <point x="200.74" y="-316.44" type="line" name="n07"/>
      <point x="397.82" y="-12.48"/>
      <point x="475.18" y="293"/>
      <point x="475.18" y="627.32" type="curve" smooth="yes" name="n10"/>
      <point x="475.18" y="961.64"/>
      <point x="397.82" y="1267.12"/>
      <point x="200.74" y="1571.08" type="curve" name="n13"/>
      <point x="90.9" y="1504.24" type="line" smooth="yes"/>
      <point x="63.5" y="1486.64"/>
      <point x="41.22" y="1460.36"/>
      <point x="69.06" y="1405.56" type="curve"/>
      <point x="192.02" y="1174.32"/>
      <point x="261.3" y="899.88"/>
    </contour>
  </outline>
</glyph>
<glyph name="asterisk" format="2">
  <advance width="850.0"/>
  <unicode hex="002A"/>
  <outline>
    <contour>
      <point x="160.6" y="955.28" type="line"/>
      <point x="318.92" y="1046.76" type="line" smooth="yes"/>
      <point x="356.32" y="1068.8"/>
      <point x="385.28" y="1094.2"/>
      <point x="400.16" y="1130.92" type="curve"/>
      <point x="374.76" y="1175.92" type="line"/>
      <point x="335.15999999999997" y="1181.96"/>
      <point x="297.96" y="1169.48"/>
      <point x="260.56" y="1147.44" type="curve" smooth="yes"/>
      <point x="102.24" y="1055.96" type="line"/>
    </contour>
    <contour>
      <point x="483.92" y="835.52" type="line"/>
      <point x="483.92" y="1019.84" type="line" smooth="yes"/>
      <point x="483.92" y="1062.36"/>
      <point x="474.12" y="1100.68"/>
      <point x="449.84" y="1131.36" type="curve"/>
      <point x="400.16" y="1131.36" type="line"/>
      <point x="373.88" y="1102.68"/>
      <point x="365.64" y="1062.36"/>
      <point x="365.64" y="1018.28" type="curve" smooth="yes"/>
      <point x="365.64" y="835.52" type="line"/>
    </contour>
    <contour>
      <point x="748.2" y="1054.4" type="line"/>
      <point x="589.44" y="1147.44" type="line" smooth="yes"/>
      <point x="552.04" y="1171.04"/>
      <point x="513.72" y="1181.96"/>
      <point x="475.24" y="1175.92" type="curve"/>
      <point x="449.84" y="1130.92" type="line"/>
      <point x="463.6" y="1093.76"/>
      <point x="493.68" y="1068.8"/>
      <point x="531.08" y="1046.76" type="curve" smooth="yes"/>
      <point x="689.84" y="953.72" type="line"/>
    </contour>
    <contour>
      <point x="365.64" y="1516.32" type="line"/>
      <point x="365.64" y="1332.0" type="line" smooth="yes"/>
      <point x="365.64" y="1289.48"/>
      <point x="375.44" y="1250.72"/>
      <point x="400.16" y="1220.04" type="curve"/>
      <point x="449.84" y="1220.04" type="line"/>
      <point x="476.12" y="1249.16"/>
      <point x="483.92" y="1289.48"/>
      <point x="483.92" y="1333.56" type="curve" smooth="yes"/>
      <point x="483.92" y="1516.32" type="line"/>
    </contour>
    <contour>
      <point x="101.8" y="1297.44" type="line"/>
      <point x="260.56" y="1204.4" type="line" smooth="yes"/>
      <point x="297.96" y="1180.8"/>
      <point x="336.28" y="1169.88"/>
      <point x="374.76" y="1175.48" type="curve"/>
      <point x="400.16" y="1220.48" type="line"/>
      <point x="385.96" y="1257.2"/>
      <point x="356.32" y="1283.04"/>
      <point x="318.92" y="1305.08" type="curve" smooth="yes"/>
      <point x="160.16" y="1398.12" type="line"/>
    </contour>
    <contour>
      <point x="689.4" y="1396.56" type="line"/>
      <point x="531.08" y="1305.08" type="line" smooth="yes"/>
      <point x="493.68" y="1283.04"/>
      <point x="464.72" y="1257.2"/>
      <point x="449.84" y="1220.48" type="curve"/>
      <point x="475.24" y="1175.48" type="line"/>
      <point x="514.84" y="1169.0"/>
      <point x="552.04" y="1182.36"/>
      <point x="589.44" y="1204.4" type="curve" smooth="yes"/>
      <point x="747.76" y="1295.88" type="line"/>
    </contour>
    <contour>
      <point x="367.64" y="1204.44" type="line"/>
      <point x="360.28" y="1136.04" type="line"/>
      <point x="417.76" y="1094.6" type="line"/>
      <point x="487.72" y="1134.48" type="line"/>
      <point x="488.16" y="1212.68" type="line"/>
      <point x="431.8" y="1240.76" type="line"/>
    </contour>
  </outline>
</glyph>
<glyph name="plus" format="2">
  <advance width="1160"/>
  <unicode hex="002B"/>
  <outline>
    <contour>
      <point x="92.7" y="578.88" type="line" name="n00"/>
      <point x="1067.74" y="578.88" type="line"/>
      <point x="1067.74" y="764.24" type="line"/>
      <point x="92.7" y="764.24" type="line" name="n03"/>
    </contour>
    <contour>
      <point x="478.74" y="1173.4" type="line" name="n04"/>
      <point x="478.74" y="167.72" type="line" name="n05"/>
      <point x="679.7" y="167.72" type="line"/>
      <point x="679.7" y="1173.4" type="line" name="n07"/>
    </contour>
  </outline>
</glyph>
<glyph name="comma" format="2">
  <advance width="467.68"/>
  <unicode hex="002C"/>
  <outline>
    <contour>
      <point x="86.36" y="153.4" type="curve" smooth="yes"/>
      <point x="86.36" y="67.48"/>
      <point x="144.68" y="2.92"/>
      <point x="229.72" y="2.92" type="curve" smooth="yes"/>
      <point x="261.52" y="2.92"/>
      <point x="284.88" y="10.92"/>
      <point x="301.56" y="22.240000000000002" type="curve"/>
      <point x="232.04" y="45.64" type="line"/>
      <point x="232.04" y="-54.199999999999996"/>
      <point x="153.6" y="-135.16"/>
      <point x="119.34" y="-171.86" type="curve"/>
      <point x="108.75999999999999" y="-182.66"/>
      <point x="99.96000000000001" y="-196.36"/>
      <point x="99.96000000000001" y="-207.72" type="curve"/>
      <point x="99.96000000000001" y="-223.76"/>
      <point x="104.64" y="-233.56"/>
      <point x="117.78" y="-245.14" type="curve" smooth="yes"/>
      <point x="160.56" y="-284.8" type="line"/>
      <point x="303.44" y="-172.24"/>
      <point x="381.52" y="-8.280000000000001"/>
      <point x="381.52" y="118.68" type="curve" smooth="yes"/>
      <point x="381.52" y="210.8"/>
      <point x="332.12" y="288.72"/>
      <point x="230.6" y="288.72" type="curve" smooth="yes"/>
      <point x="144.68" y="288.72"/>
      <point x="86.36" y="229.08"/>
    </contour>
  </outline>
</glyph>
<glyph name="hyphen" format="2">
  <advance width="745.8"/>
  <unicode hex="002D"/>
  <unicode hex="00AD"/>
  <unicode hex="2010"/>
  <outline>
    <contour>
      <point x="113.9" y="500.0" type="line"/>
      <point x="631.9" y="500.0" type="line"/>
      <point x="631.9" y="708.76" type="line"/>
      <point x="113.9" y="708.76" type="line"/>
    </contour>
  </outline>
</glyph>
<glyph name="period" format="2">
  <advance width="475"/>
  <unicode hex="002E"/>
  <outline>
    <contour>
      <point x="85.88" y="136.92" type="curve" smooth="yes" name="n00"/>
      <point x="85.88" y="51"/>
      <point x="151.32" y="-14.44"/>
      <point x="237.24" y="-14.44" type="curve" smooth="yes" name="n03"/>
      <point x="321.6" y="-14.44"/>
      <point x="389.04" y="51"/>
      <point x="389.04" y="136.92" type="curve" smooth="yes" name="n06"/>
      <point x="389.04" y="221.28"/>
      <point x="321.6" y="288.72"/>
      <point x="237.24" y="288.72" type="curve" smooth="yes" name="n09"/>
      <point x="151.32" y="288.72"/>
      <point x="85.88" y="221.28"/>
    </contour>
  </outline>
</glyph>
<glyph name="slash" format="2">
  <advance width="932.04"/>
  <unicode hex="002F"/>
  <outline>
    <contour>
      <point x="873.56" y="1486.8" type="line"/>
      <point x="768.4" y="1486.8" type="line" smooth="yes"/>
      <point x="710.04" y="1486.8"/>
      <point x="663.48" y="1454.72"/>
      <point x="642.3199999999999" y="1398.36" type="curve"/>
      <point x="58.480000000000004" y="-95.16" type="line"/>
      <point x="163.2" y="-95.16" type="line" smooth="yes"/>
      <point x="214.88" y="-95.16"/>
      <point x="271.68" y="-63.519999999999996"/>
      <point x="294.4" y="-2.039999999999999" type="curve" smooth="yes"/>
    </contour>
  </outline>
</glyph>
<glyph name="zero" format="2">
  <advance width="1160"/>
  <unicode hex="0030"/>
  <outline>
    <contour>
      <point x="1110.32" y="723.4" type="curve" smooth="yes" name="n00"/>
      <point x="1110.32" y="1229"/>
      <point x="879.64" y="1462.8"/>
      <point x="578.44" y="1462.8" type="curve" smooth="yes" name="n03"/>
      <point x="277.24" y="1462.8"/>
      <point x="49.68" y="1229"/>
      <point x="49.68" y="723.4" type="curve" smooth="yes" name="n06"/>
      <point x="49.68" y="217.8"/>
      <point x="277.24" y="-15.56"/>
      <point x="578.44" y="-15.56" type="curve" smooth="yes" name="n09"/>
      <point x="879.64" y="-15.56"/>
      <point x="1110.32" y="217.8"/>
    </contour>
    <contour>
      <point x="855" y="723.4" type="curve" smooth="yes" name="n12"/>
      <point x="855" y="305.8"/>
      <point x="720.56" y="191.64"/>
      <point x="578.44" y="191.64" type="curve" smooth="yes" name="n15"/>
      <point x="436.32" y="191.64"/>
      <point x="304.56" y="305.8"/>
      <point x="304.56" y="723.4" type="curve" smooth="yes" name="n18"/>
      <point x="304.56" y="1141"/>
      <point x="436.32" y="1255.6"/>
      <point x="578.44" y="1255.6" type="curve" smooth="yes" name="n21"/>
      <point x="720.56" y="1255.6"/>
      <point x="855" y="1141"/>
    </contour>
  </outline>
</glyph>
<glyph name="one" format="2">
  <advance width="1160.0"/>
  <unicode hex="0031"/>
  <outline>
    <contour>
      <point x="572.16" y="1448.56" type="line"/>
      <point x="547.44" y="1312.48"/>
      <point x="527.84" y="1157.24"/>
      <point x="527.84" y="1024.28" type="curve" smooth="yes"/>
      <point x="527.84" y="0.0" type="line"/>
      <point x="774.92" y="0.0" type="line"/>
      <point x="774.92" y="1448.56" type="line"/>
    </contour>
    <contour>
      <point x="234.64" y="0.0" type="line"/>
      <point x="1035.16" y="0.0" type="line"/>
      <point x="1035.16" y="186.92000000000002" type="line"/>
      <point x="234.64" y="186.92000000000002" type="line"/>
    </contour>
    <contour>
      <point x="131.36" y="1072.72" type="line"/>
      <point x="209.12" y="964.88" type="line"/>
      <point x="226.04" y="941.72"/>
      <point x="276.16" y="918.3199999999999"/>
      <point x="322.72" y="955.52" type="curve"/>
      <point x="571.92" y="1162.48" type="line"/>
      <point x="572.16" y="1448.56" type="line"/>
    </contour>
  </outline>
</glyph>
<glyph name="two" format="2">
  <advance width="1160.0"/>
  <unicode hex="0032"/>
  <outline>
    <contour>
      <point x="593.8" y="1462.8" type="curve" smooth="yes"/>
      <point x="337.48" y="1462.8"/>
      <point x="141.6" y="1321.24"/>
      <point x="100.67999999999999" y="1042.64" type="curve"/>
      <point x="230.8" y="1019.24" type="line" smooth="yes"/>
      <point x="298.08" y="1008.32"/>
      <point x="330.6" y="1026.36"/>
      <point x="352.88" y="1088.28" type="curve" smooth="yes"/>
      <point x="378.64" y="1182.44"/>
      <point x="462.24" y="1252.48"/>
      <point x="579.76" y="1252.48" type="curve" smooth="yes"/>
      <point x="707.16" y="1252.48"/>
      <point x="790.44" y="1179.68"/>
      <point x="790.44" y="1042.2" type="curve" smooth="yes"/>
      <point x="790.44" y="890.56"/>
      <point x="707.04" y="774.2"/>
      <point x="558.64" y="624.92" type="curve"/>
      <point x="120.16" y="186.24" type="line"/>
      <point x="88.52" y="156.16"/>
      <point x="76.28" y="115.84"/>
      <point x="76.28" y="83.32000000000001" type="curve"/>
      <point x="76.28" y="0.0" type="line"/>
      <point x="1067.72" y="0.0" type="line"/>
      <point x="1067.72" y="149.28" type="line" smooth="yes"/>
      <point x="1067.72" y="198.96"/>
      <point x="1034.08" y="232.6"/>
      <point x="981.28" y="232.6" type="curve" smooth="yes"/>
      <point x="609.84" y="232.6" type="line" smooth="yes"/>
      <point x="505.48" y="232.6"/>
      <point x="364.76" y="191.6"/>
      <point x="273.92" y="143.92000000000002" type="curve"/>
      <point x="275.44" y="46.32" type="line"/>
      <point x="753.6" y="534.48" type="line" smooth="yes"/>
      <point x="910.24" y="693.12"/>
      <point x="1043.76" y="837.56"/>
      <point x="1043.76" y="1050.0" type="curve" smooth="yes"/>
      <point x="1043.76" y="1298.64"/>
      <point x="860.6800000000001" y="1462.8"/>
    </contour>
  </outline>
</glyph>
<glyph name="three" format="2">
  <advance width="1160.0"/>
  <unicode hex="0033"/>
  <outline>
    <contour>
      <point x="601.14" y="1462.8" type="curve" smooth="yes"/>
      <point x="344.82" y="1462.8"/>
      <point x="148.94" y="1321.24"/>
      <point x="108.02" y="1042.64" type="curve"/>
      <point x="238.14" y="1019.24" type="line" smooth="yes"/>
      <point x="305.42" y="1008.32"/>
      <point x="337.5" y="1026.36"/>
      <point x="359.78" y="1088.28" type="curve" smooth="yes"/>
      <point x="385.53999999999996" y="1182.44"/>
      <point x="469.58" y="1252.48"/>
      <point x="587.1" y="1252.48" type="curve" smooth="yes"/>
      <point x="714.5" y="1252.48"/>
      <point x="796.02" y="1181.0"/>
      <point x="796.02" y="1045.72" type="curve" smooth="yes"/>
      <point x="796.02" y="918.36"/>
      <point x="730.06" y="831.16"/>
      <point x="485.62" y="829.4" type="curve"/>
      <point x="485.62" y="651.16" type="line"/>
      <point x="779.34" y="650.72"/>
      <point x="818.86" y="558.88"/>
      <point x="818.86" y="421.48" type="curve" smooth="yes"/>
      <point x="818.86" y="314.08"/>
      <point x="735.46" y="194.32"/>
      <point x="567.54" y="194.32" type="curve" smooth="yes"/>
      <point x="417.70000000000005" y="194.32"/>
      <point x="358.1" y="287.08"/>
      <point x="309.53999999999996" y="381.72" type="curve" smooth="yes"/>
      <point x="287.94" y="425.12"/>
      <point x="231.82" y="436.72"/>
      <point x="174.78" y="412.88" type="curve" smooth="yes"/>
      <point x="66.25999999999999" y="367.2" type="line"/>
      <point x="146.62" y="119.32"/>
      <point x="281.02" y="-16.0"/>
      <point x="570.66" y="-16.0" type="curve" smooth="yes"/>
      <point x="837.14" y="-16.0"/>
      <point x="1065.94" y="140.6"/>
      <point x="1065.94" y="429.28" type="curve" smooth="yes"/>
      <point x="1065.94" y="659.36"/>
      <point x="905.66" y="786.64"/>
      <point x="585.7" y="800.44" type="curve"/>
      <point x="585.7" y="725.8" type="line"/>
      <point x="863.1" y="746.72"/>
      <point x="1036.86" y="826.12"/>
      <point x="1036.86" y="1089.4" type="curve" smooth="yes"/>
      <point x="1036.86" y="1299.96"/>
      <point x="868.02" y="1462.8"/>
    </contour>
  </outline>
</glyph>
<glyph name="four" format="2">
  <advance width="1160"/>
  <unicode hex="0034"/>
  <outline>
    <contour>
      <point x="927.38" y="1447.24" type="line" name="n00"/>
      <point x="693.42" y="1447.24" type="line"/>
      <point x="8.42" y="532.68" type="line"/>
      <point x="33.82" y="406.12" type="line" smooth="yes"/>
      <point x="40.5" y="375.16"/>
      <point x="69.02" y="352.44"/>
      <point x="101.74" y="352.44" type="curve" smooth="yes" name="n06"/>
      <point x="1059.18" y="352.44" type="line" smooth="yes"/>
      <point x="1091.46" y="352.44"/>
      <point x="1109.5" y="375.16"/>
      <point x="1109.5" y="401.88" type="curve" smooth="yes"/>
      <point x="1109.5" y="545.6" type="line"/>
      <point x="67.66" y="545.6" type="line" name="n12"/>
      <point x="189.98" y="430.4" type="line"/>
      <point x="857.42" y="1353.04" type="line"/>
      <point x="766.3" y="1369.52" type="line"/>
      <point x="726.42" y="1246.56"/>
      <point x="711.94" y="1112.68"/>
      <point x="711.94" y="1014.68" type="curve" smooth="yes"/>
      <point x="711.94" y="0" type="line" name="n19"/>
      <point x="927.38" y="0" type="line" name="n20"/>
    </contour>
  </outline>
</glyph>
<glyph name="five" format="2">
  <advance width="1160"/>
  <unicode hex="0035"/>
  <outline>
    <contour>
      <point x="999.38" y="1446.8" type="line"/>
      <point x="285.5" y="1446.8" type="line" name="n01"/>
      <point x="165.46" y="742.92" type="line"/>
      <point x="319.18" y="699.04" type="line"/>
      <point x="390.08" y="723.7"/>
      <point x="462.02" y="736.48"/>
      <point x="530.32" y="736.48" type="curve" smooth="yes" name="n06"/>
      <point x="707.12" y="736.48"/>
      <point x="801.02" y="643.8"/>
      <point x="801.02" y="487" type="curve" smooth="yes" name="n09"/>
      <point x="801.02" y="318"/>
      <point x="706.66" y="193.64"/>
      <point x="524.82" y="193.64" type="curve" smooth="yes" name="n12"/>
      <point x="354.22" y="193.64"/>
      <point x="293.02" y="295.44"/>
      <point x="226.22" y="295.44" type="curve" smooth="yes"/>
      <point x="201.5" y="295.44"/>
      <point x="178.78" y="284.08"/>
      <point x="162.74" y="261.36" type="curve" smooth="yes"/>
      <point x="86.54" y="155.08" type="line"/>
      <point x="183.5" y="64.08"/>
      <point x="330.9" y="-16"/>
      <point x="510.78" y="-16" type="curve" smooth="yes" name="n22"/>
      <point x="819.62" y="-16"/>
      <point x="1048.54" y="191"/>
      <point x="1048.54" y="499.04" type="curve" smooth="yes" name="n25"/>
      <point x="1048.54" y="746.38"/>
      <point x="886.62" y="940.56"/>
      <point x="583.36" y="940.56" type="curve" smooth="yes" name="n28"/>
      <point x="500.02" y="940.56"/>
      <point x="405.9" y="927"/>
      <point x="301.34" y="895.32" type="curve"/>
      <point x="374.66" y="742.04" type="line"/>
      <point x="492.02" y="1424.08" type="line"/>
      <point x="311.34" y="1220.44" type="line" name="n34"/>
      <point x="854.34" y="1220.44" type="line" smooth="yes"/>
      <point x="959.06" y="1220.44"/>
      <point x="999.38" y="1270.12"/>
      <point x="999.38" y="1340.08" type="curve" smooth="yes"/>
    </contour>
  </outline>
</glyph>
<glyph name="six" format="2">
  <advance width="1160.0"/>
  <unicode hex="0036"/>
  <outline>
    <contour>
      <point x="321.5" y="454.56" type="curve"/>
      <point x="321.5" y="604.04"/>
      <point x="425.58" y="716.88"/>
      <point x="582.14" y="716.88" type="curve" smooth="yes"/>
      <point x="740.38" y="716.88"/>
      <point x="847.34" y="617.92"/>
      <point x="847.34" y="452.36" type="curve" smooth="yes"/>
      <point x="847.34" y="301.92"/>
      <point x="736.14" y="188.08"/>
      <point x="578.22" y="188.08" type="curve" smooth="yes"/>
      <point x="410.42" y="188.08"/>
      <point x="321.5" y="295.0"/>
    </contour>
    <contour>
      <point x="312.82" y="499.32" type="line"/>
      <point x="313.70000000000005" y="661.4"/>
      <point x="400.9" y="775.2"/>
      <point x="521.78" y="921.8" type="curve"/>
      <point x="950.7" y="1446.8" type="line"/>
      <point x="731.02" y="1446.8" type="line" smooth="yes"/>
      <point x="672.42" y="1446.8"/>
      <point x="623.1800000000001" y="1420.28"/>
      <point x="598.9" y="1387.76" type="curve"/>
      <point x="253.74" y="925.56" type="line"/>
      <point x="138.89999999999998" y="772.08"/>
      <point x="83.78" y="627.84"/>
      <point x="83.78" y="492.4" type="curve" smooth="yes"/>
      <point x="83.78" y="189.24"/>
      <point x="274.94" y="-16.0"/>
      <point x="582.9" y="-16.0" type="curve" smooth="yes"/>
      <point x="888.14" y="-16.0"/>
      <point x="1094.42" y="202.36"/>
      <point x="1094.42" y="471.08" type="curve" smooth="yes"/>
      <point x="1094.42" y="759.44"/>
      <point x="887.18" y="903.8"/>
      <point x="667.5" y="903.8" type="curve" smooth="yes"/>
      <point x="410.3" y="903.8"/>
      <point x="260.46000000000004" y="712.6"/>
      <point x="260.46000000000004" y="498.0" type="curve"/>
    </contour>
  </outline>
</glyph>
<glyph name="seven" format="2">
  <advance width="1160"/>
  <unicode hex="0037"/>
  <outline>
    <contour>
      <point x="92.64" y="1446.8" type="line" name="n00"/>
      <point x="92.64" y="1277.68" type="line" smooth="yes"/>
      <point x="92.64" y="1247.84"/>
      <point x="120.04" y="1220.44"/>
      <point x="149.88" y="1220.44" type="curve" smooth="yes" name="n04"/>
      <point x="1047.92" y="1220.44" type="line"/>
      <point x="866.08" y="1245.16" type="line"/>
      <point x="824.2" y="1204.84"/>
      <point x="793.68" y="1159.84"/>
      <point x="763.16" y="1101.92" type="curve"/>
      <point x="204" y="0" type="line" name="n10"/>
      <point x="382.92" y="0" type="line" smooth="yes"/>
      <point x="452.2" y="0"/>
      <point x="491.4" y="38.32"/>
      <point x="514.12" y="85.32" type="curve" smooth="yes"/>
      <point x="1061.92" y="1210.2" type="line" smooth="yes"/>
      <point x="1074.84" y="1237.6"/>
      <point x="1092.44" y="1274.8"/>
      <point x="1092.44" y="1338.08" type="curve" smooth="yes"/>
      <point x="1092.44" y="1446.8" type="line"/>
    </contour>
  </outline>
</glyph>
<glyph name="eight" format="2">
  <advance width="1160.0"/>
  <unicode hex="0038"/>
  <outline>
    <contour>
      <point x="580.0" y="-16.0" type="curve"/>
      <point x="878.56" y="-16.0"/>
      <point x="1082.4" y="149.4"/>
      <point x="1082.4" y="406.36" type="curve" smooth="yes"/>
      <point x="1082.4" y="635.8"/>
      <point x="927.6800000000001" y="780.36"/>
      <point x="596.0" y="789.48" type="curve"/>
      <point x="596.0" y="709.52" type="line"/>
      <point x="884.6" y="719.52"/>
      <point x="1033.52" y="856.16"/>
      <point x="1033.52" y="1074.24" type="curve" smooth="yes"/>
      <point x="1033.52" y="1294.32"/>
      <point x="847.4" y="1462.8"/>
      <point x="580.0" y="1462.8" type="curve"/>
      <point x="312.6" y="1462.8"/>
      <point x="126.48" y="1294.32"/>
      <point x="126.48" y="1074.24" type="curve" smooth="yes"/>
      <point x="126.48" y="856.16"/>
      <point x="275.4" y="719.52"/>
      <point x="564.0" y="709.52" type="curve"/>
      <point x="564.0" y="789.48" type="line"/>
      <point x="232.32" y="780.36"/>
      <point x="77.6" y="635.8"/>
      <point x="77.6" y="406.36" type="curve" smooth="yes"/>
      <point x="77.6" y="149.4"/>
      <point x="281.44" y="-16.0"/>
    </contour>
    <contour>
      <point x="580.0" y="846.08" type="curve"/>
      <point x="418.68" y="846.08"/>
      <point x="367.32" y="955.72"/>
      <point x="367.32" y="1069.56" type="curve" smooth="yes"/>
      <point x="367.32" y="1178.0"/>
      <point x="433.56" y="1274.32"/>
      <point x="580.0" y="1274.32" type="curve"/>
      <point x="726.44" y="1274.32"/>
      <point x="792.6800000000001" y="1178.0"/>
      <point x="792.6800000000001" y="1069.56" type="curve" smooth="yes"/>
      <point x="792.6800000000001" y="955.72"/>
      <point x="741.3199999999999" y="846.08"/>
    </contour>
    <contour>
      <point x="580.0" y="178.72" type="curve"/>
      <point x="417.56" y="178.72"/>
      <point x="332.48" y="277.72"/>
      <point x="332.48" y="411.04" type="curve" smooth="yes"/>
      <point x="332.48" y="567.3199999999999"/>
      <point x="425.8" y="649.8"/>
      <point x="580.0" y="649.8" type="curve"/>
      <point x="734.2" y="649.8"/>
      <point x="827.52" y="567.3199999999999"/>
      <point x="827.52" y="411.04" type="curve" smooth="yes"/>
      <point x="827.52" y="277.72"/>
      <point x="742.44" y="178.72"/>
    </contour>
  </outline>
</glyph>
<glyph name="nine" format="2">
  <advance width="1160"/>
  <unicode hex="0039"/>
  <outline>
    <contour>
      <point x="820.82" y="1009.8" type="curve" smooth="yes"/>
      <point x="820.82" y="871.44"/>
      <point x="730.54" y="765.04"/>
      <point x="570.38" y="765.04" type="curve" smooth="yes" name="n03"/>
      <point x="417.02" y="765.04"/>
      <point x="330.1" y="851.76"/>
      <point x="330.1" y="1012" type="curve" smooth="yes" name="n06"/>
      <point x="330.1" y="1154.2"/>
      <point x="424.78" y="1258.72"/>
      <point x="573.86" y="1258.72" type="curve" smooth="yes" name="n09"/>
      <point x="718.54" y="1258.72"/>
      <point x="820.82" y="1167.6"/>
    </contour>
    <contour>
      <point x="837.06" y="968.8" type="line" name="n12"/>
      <point x="835.74" y="806.56"/>
      <point x="770.42" y="700.96"/>
      <point x="658.18" y="560.12" type="curve" smooth="yes"/>
      <point x="208.94" y="0" type="line" name="n16"/>
      <point x="436.42" y="0" type="line" smooth="yes"/>
      <point x="493.46" y="0"/>
      <point x="541.14" y="24.96"/>
      <point x="563.86" y="57.48" type="curve" smooth="yes"/>
      <point x="894.58" y="528.28" type="line"/>
      <point x="994.54" y="668.2"/>
      <point x="1056.98" y="804.96"/>
      <point x="1056.98" y="984.88" type="curve" smooth="yes"/>
      <point x="1056.98" y="1266.28"/>
      <point x="872.5" y="1462.8"/>
      <point x="576.98" y="1462.8" type="curve" smooth="yes" name="n27"/>
      <point x="283.06" y="1462.8"/>
      <point x="83.02" y="1250.68"/>
      <point x="83.02" y="993.28" type="curve" smooth="yes" name="n30"/>
      <point x="83.02" y="716.48"/>
      <point x="282.7" y="576.56"/>
      <point x="483.46" y="576.56" type="curve" smooth="yes" name="n33"/>
      <point x="707.26" y="576.56"/>
      <point x="887.42" y="720.52"/>
      <point x="887.42" y="968.8" type="curve" name="n36"/>
    </contour>
  </outline>
</glyph>
<glyph name="less" format="2">
  <advance width="1160"/>
  <unicode hex="003C"/>
  <outline>
    <contour>
      <point x="151.46" y="724.36" type="line"/>
      <point x="151.46" y="648.84" type="line"/>
      <point x="314.3" y="649.28"/>
      <point x="443.94" y="662.62"/>
      <point x="537.7" y="710.28" type="curve" smooth="yes"/>
      <point x="900.68" y="895.1" type="line" smooth="yes"/>
      <point x="931.84" y="910.68"/>
      <point x="943.86" y="933.62"/>
      <point x="943.86" y="960.56" type="curve" smooth="yes"/>
      <point x="943.86" y="1138.48" type="line" name="n09"/>
    </contour>
    <contour>
      <point x="151.46" y="623.44" type="line"/>
      <point x="943.86" y="209.32" type="line" name="n11"/>
      <point x="943.86" y="387.24" type="line" smooth="yes"/>
      <point x="943.86" y="414.18"/>
      <point x="931.84" y="437.12"/>
      <point x="900.68" y="452.7" type="curve" smooth="yes"/>
      <point x="537.7" y="637.52" type="line" smooth="yes"/>
      <point x="443.94" y="685.4"/>
      <point x="314.3" y="698.52"/>
      <point x="151.46" y="698.96" type="curve"/>
    </contour>
  </outline>
</glyph>
<glyph name="equal" format="2">
  <advance width="1160"/>
  <unicode hex="003D"/>
  <outline>
    <contour>
      <point x="137.1" y="403" type="line" name="n00"/>
      <point x="1022.9" y="403" type="line"/>
      <point x="1022.9" y="588.36" type="line"/>
      <point x="137.1" y="588.36" type="line" name="n03"/>
    </contour>
    <contour>
      <point x="137.1" y="756.28" type="line" name="n04"/>
      <point x="1022.9" y="756.28" type="line"/>
      <point x="1022.9" y="941.64" type="line"/>
      <point x="137.1" y="941.64" type="line" name="n07"/>
    </contour>
  </outline>
</glyph>
<glyph name="greater" format="2">
  <advance width="1160.0"/>
  <unicode hex="003E"/>
  <outline>
    <contour>
      <point x="1008.54" y="623.44" type="line"/>
      <point x="1008.54" y="698.96" type="line"/>
      <point x="845.7" y="698.52"/>
      <point x="716.06" y="685.18"/>
      <point x="622.3" y="637.52" type="curve" smooth="yes"/>
      <point x="259.32" y="452.70000000000005" type="line" smooth="yes"/>
      <point x="228.16" y="437.12"/>
      <point x="216.14" y="414.18"/>
      <point x="216.14" y="387.24" type="curve" smooth="yes"/>
      <point x="216.14" y="209.32" type="line"/>
    </contour>
    <contour>
      <point x="1008.54" y="724.36" type="line"/>
      <point x="216.14" y="1138.48" type="line"/>
      <point x="216.14" y="960.56" type="line" smooth="yes"/>
      <point x="216.14" y="933.62"/>
      <point x="228.16" y="910.68"/>
      <point x="259.32" y="895.1" type="curve" smooth="yes"/>
      <point x="622.3" y="710.28" type="line"/>
      <point x="716.06" y="662.4"/>
      <point x="845.7" y="649.28"/>
      <point x="1008.54" y="648.84" type="curve"/>
    </contour>
  </outline>
</glyph>
<glyph name="question" format="2">
  <advance width="920"/>
  <unicode hex="003F"/>
  <outline>
    <component base="period" xScale="1" xOffset="174.08"/>
    <contour>
      <point x="135.96" y="1211.16" type="line"/>
      <point x="147.32" y="1190.44"/>
      <point x="164.92" y="1180.64"/>
      <point x="187.64" y="1180.64" type="curve" smooth="yes"/>
      <point x="228.84" y="1180.64"/>
      <point x="281.4" y="1261.84"/>
      <point x="431.96" y="1261.84" type="curve" smooth="yes" name="n06"/>
      <point x="537.16" y="1261.84"/>
      <point x="612.52" y="1201.28"/>
      <point x="612.52" y="1107.04" type="curve" smooth="yes" name="n09"/>
      <point x="612.52" y="883.24"/>
      <point x="292.56" y="863.72"/>
      <point x="317.52" y="673.4" type="curve" name="n12"/>
      <point x="334.68" y="510.32" type="line" name="n13"/>
      <point x="503.56" y="510.32" type="line"/>
      <point x="526.72" y="655.8" type="line" name="n15"/>
      <point x="549.44" y="784.2"/>
      <point x="842.44" y="815.96"/>
      <point x="842.44" y="1121.08" type="curve" smooth="yes" name="n18"/>
      <point x="842.44" y="1328.72"/>
      <point x="684.88" y="1462.8"/>
      <point x="453.8" y="1462.8" type="curve" smooth="yes" name="n21"/>
      <point x="284.16" y="1462.8"/>
      <point x="162.76" y="1396.36"/>
      <point x="70.68" y="1315.88" type="curve"/>
    </contour>
  </outline>
</glyph>
<glyph name="at" format="2">
  <advance width="1686.68"/>
  <unicode hex="0040"/>
  <guideline y="723.4"/>
  <guideline x="830.64"/>
  <outline>
    <contour>
      <point x="1190.38" y="183.76" type="curve" smooth="yes"/>
      <point x="1430.3" y="183.76"/>
      <point x="1609.02" y="409.2"/>
      <point x="1609.02" y="694.96" type="curve" smooth="yes"/>
      <point x="1609.02" y="1121.84"/>
      <point x="1263.38" y="1382.44"/>
      <point x="884.62" y="1382.44" type="curve" smooth="yes"/>
      <point x="437.14" y="1382.44"/>
      <point x="91.1" y="1010.96"/>
      <point x="91.1" y="583.48" type="curve" smooth="yes"/>
      <point x="91.1" y="73.0"/>
      <point x="449.82" y="-240.68"/>
      <point x="931.78" y="-240.68" type="curve" smooth="yes"/>
      <point x="1169.42" y="-240.68"/>
      <point x="1353.66" y="-177.76"/>
      <point x="1491.62" y="-86.68" type="curve"/>
      <point x="1457.54" y="3.1000000000000085" type="line"/>
      <point x="1445.96" y="34.84"/>
      <point x="1417.68" y="44.08"/>
      <point x="1383.16" y="24.040000000000006" type="curve"/>
      <point x="1287.76" y="-30.72"/>
      <point x="1137.82" y="-79.84"/>
      <point x="931.78" y="-79.84" type="curve" smooth="yes"/>
      <point x="558.74" y="-79.84"/>
      <point x="270.66" y="145.84"/>
      <point x="270.66" y="583.48" type="curve" smooth="yes"/>
      <point x="270.66" y="942.56"/>
      <point x="534.46" y="1222.04"/>
      <point x="884.62" y="1222.04" type="curve" smooth="yes"/>
      <point x="1205.46" y="1222.04"/>
      <point x="1432.58" y="1041.64"/>
      <point x="1432.58" y="694.96" type="curve" smooth="yes"/>
      <point x="1432.58" y="486.96000000000004"/>
      <point x="1338.98" y="337.92"/>
      <point x="1226.7" y="337.92" type="curve" smooth="yes"/>
      <point x="1151.66" y="337.92"/>
      <point x="1103.58" y="377.68"/>
      <point x="1146.38" y="545.8" type="curve" smooth="yes"/>
      <point x="1242.18" y="917.68" type="line"/>
      <point x="1174.1" y="947.04"/>
      <point x="1107.42" y="963.28"/>
      <point x="1003.5" y="963.28" type="curve" smooth="yes"/>
      <point x="649.54" y="963.28"/>
      <point x="477.34" y="701.24"/>
      <point x="477.34" y="473.68" type="curve" smooth="yes"/>
      <point x="477.34" y="307.8"/>
      <point x="560.06" y="185.08"/>
      <point x="726.58" y="185.08" type="curve" smooth="yes"/>
      <point x="872.62" y="185.08"/>
      <point x="991.3" y="264.4"/>
      <point x="1091.62" y="479.36" type="curve"/>
      <point x="983.58" y="422.6" type="line"/>
      <point x="977.42" y="251.88"/>
      <point x="1070.46" y="183.76"/>
    </contour>
    <contour>
      <point x="1045.02" y="864.64" type="line"/>
      <point x="955.9" y="520.16" type="line" smooth="yes"/>
      <point x="920.66" y="384.52"/>
      <point x="845.26" y="345.48"/>
      <point x="775.82" y="345.48" type="curve" smooth="yes"/>
      <point x="706.42" y="345.48"/>
      <point x="668.26" y="394.68"/>
      <point x="668.26" y="479.92" type="curve" smooth="yes"/>
      <point x="668.26" y="651.36"/>
      <point x="797.7" y="807.56"/>
      <point x="962.94" y="807.56" type="curve" smooth="yes"/>
      <point x="1019.14" y="807.56"/>
      <point x="1068.3" y="796.44"/>
      <point x="1113.18" y="774.64" type="curve"/>
    </contour>
  </outline>
</glyph>
<glyph name="D" format="2">
  <advance width="1521"/>
  <unicode hex="0044"/>
  <anchor x="679.62" y="1518.62" name="Top"/>
  <anchor x="684.98" y="-95.74" name="bottom"/>
  <anchor x="679.62" y="1518.62" name="top"/>
  <outline>
    <contour>
      <point x="1444.74" y="723.4" type="curve" smooth="yes" name="n00"/>
      <point x="1444.74" y="1146.68"/>
      <point x="1151.1" y="1446.8"/>
      <point x="712.5" y="1446.8" type="curve" smooth="yes" name="n03"/>
      <point x="161.02" y="1446.8" type="line" name="n04"/>
      <point x="161.02" y="0" type="line"/>
      <point x="712.5" y="0" type="line" smooth="yes" name="n06"/>
      <point x="1151.1" y="0"/>
      <point x="1444.74" y="298.56"/>
    </contour>
    <contour>
      <point x="1169.14" y="723.4" type="curve" smooth="yes" name="n09"/>
      <point x="1169.14" y="406.4"/>
      <point x="994.7" y="216.56"/>
      <point x="712.5" y="216.56" type="curve" smooth="yes" name="n12"/>
      <point x="431.5" y="216.56" type="line"/>
      <point x="431.5" y="1230.24" type="line" name="n14"/>
      <point x="712.5" y="1230.24" type="line" smooth="yes" name="n15"/>
      <point x="994.7" y="1230.24"/>
      <point x="1169.14" y="1038.84"/>
    </contour>
  </outline>
</glyph>
<glyph name="F" format="2">
  <advance width="1132"/>
  <unicode hex="0046"/>
  <anchor x="627.64" y="1518.62" name="Top"/>
  <anchor x="497.5" y="-70" name="bottom"/>
  <anchor x="627.64" y="1518.62" name="top"/>
  <outline>
    <contour>
      <point x="431.5" y="1446.8" type="line" name="n00"/>
      <point x="161.02" y="1446.8" type="line"/>
      <point x="161.02" y="0" type="line" name="n02"/>
      <point x="431.5" y="0" type="line"/>
    </contour>
    <contour>
      <point x="404.78" y="804.96" type="line" name="n04"/>
      <point x="404.78" y="587.96" type="line" name="n05"/>
      <point x="972.62" y="587.96" type="line"/>
      <point x="972.62" y="804.96" type="line"/>
    </contour>
    <contour>
      <point x="404.78" y="1446.8" type="line" name="n08"/>
      <point x="404.78" y="1229.8" type="line" name="n09"/>
      <point x="1072.62" y="1229.8" type="line"/>
      <point x="1072.62" y="1446.8" type="line"/>
    </contour>
  </outline>
</glyph>
<glyph name="G" format="2">
  <advance width="1452"/>
  <unicode hex="0047"/>
  <anchor x="824.96" y="1518.62" name="Top"/>
  <anchor x="838.8" y="-70" name="bottom"/>
  <anchor x="824.96" y="1518.62" name="top"/>
  <outline>
    <contour>
      <point x="1353.28" y="139.56" type="curve" name="n00"/>
      <point x="1353.28" y="726.8" type="line"/>
      <point x="872.68" y="726.8" type="line" name="n02"/>
      <point x="872.68" y="573.28" type="line" smooth="yes"/>
      <point x="872.68" y="544.32"/>
      <point x="894.28" y="522.72"/>
      <point x="928.36" y="522.72" type="curve" smooth="yes" name="n06"/>
      <point x="1109.76" y="522.72" type="line"/>
      <point x="1109.76" y="113.28" type="line" name="n08"/>
      <point x="1187.96" y="303.32" type="line"/>
      <point x="1078.96" y="242.08"/>
      <point x="984.62" y="200.56"/>
      <point x="844.46" y="200.56" type="curve" smooth="yes" name="n12"/>
      <point x="545.82" y="200.56"/>
      <point x="349.76" y="393.24"/>
      <point x="349.76" y="723.4" type="curve" smooth="yes" name="n15"/>
      <point x="349.76" y="1031.04"/>
      <point x="531.76" y="1230.64"/>
      <point x="817.64" y="1230.64" type="curve" smooth="yes" name="n18"/>
      <point x="995" y="1230.64"/>
      <point x="1078.48" y="1181.6"/>
      <point x="1165.12" y="1128.56" type="curve" smooth="yes"/>
      <point x="1210.12" y="1100.48"/>
      <point x="1251.12" y="1111.84"/>
      <point x="1274.96" y="1150.16" type="curve" smooth="yes"/>
      <point x="1352.28" y="1273.16" type="line"/>
      <point x="1232.52" y="1384.72"/>
      <point x="1063.08" y="1462.8"/>
      <point x="827" y="1462.8" type="curve" smooth="yes" name="n28"/>
      <point x="367.12" y="1462.8"/>
      <point x="74.6" y="1158.72"/>
      <point x="74.6" y="723.4" type="curve" smooth="yes" name="n31"/>
      <point x="74.6" y="293.88"/>
      <point x="381.16" y="-16"/>
      <point x="852.26" y="-16" type="curve" smooth="yes" name="n34"/>
      <point x="1039.88" y="-16"/>
      <point x="1207.48" y="33.08"/>
    </contour>
  </outline>
</glyph>
<glyph name="L" format="2">
  <advance width="1039"/>
  <unicode hex="004C"/>
  <anchor x="298.26" y="721.84" name="Bar"/>
  <anchor x="314.2" y="1518.62" name="Top"/>
  <anchor x="560.5" y="-70" name="bottom"/>
  <anchor x="314.2" y="1518.62" name="top"/>
  <outline>
    <contour>
      <point x="429.94" y="1446.8" type="line" name="n00"/>
      <point x="161.02" y="1446.8" type="line"/>
      <point x="161.02" y="0" type="line"/>
      <point x="429.94" y="0" type="line" name="n03"/>
    </contour>
    <contour>
      <point x="404.78" y="224.8" type="line" name="n04"/>
      <point x="404.78" y="0" type="line" name="n05"/>
      <point x="1008.22" y="0" type="line"/>
      <point x="1008.22" y="224.8" type="line"/>
    </contour>
  </outline>
</glyph>
<glyph name="N" format="2">
  <advance width="1541"/>
  <unicode hex="004E"/>
  <anchor x="778.56" y="1518.18" name="Top"/>
  <anchor x="770.62" y="-70" name="bottom"/>
  <anchor x="778.56" y="1518.18" name="top"/>
  <outline>
    <contour>
      <point x="1186.34" y="394.4" type="line"/>
      <point x="392.06" y="1402.92" type="line" smooth="yes"/>
      <point x="363.1" y="1440.12"/>
      <point x="348.18" y="1446.8" name="n03"/>
      <point x="301.62" y="1446.8" type="curve" smooth="yes"/>
      <point x="161.02" y="1446.8" type="line"/>
      <point x="161.02" y="0" type="line" name="n06"/>
      <point x="397.86" y="0" type="line" name="n07"/>
      <point x="397.86" y="882.48" type="line" smooth="yes"/>
      <point x="397.86" y="957.76"/>
      <point x="389.62" y="1064.68"/>
      <point x="372.02" y="1139.96" type="curve"/>
      <point x="355.78" y="1052.4" type="line"/>
      <point x="1147.16" y="46.78" type="line" smooth="yes"/>
      <point x="1174.34" y="13.14"/>
      <point x="1199.96" y="0"/>
      <point x="1241.62" y="0" type="curve" smooth="yes"/>
      <point x="1380.22" y="0" type="line"/>
      <point x="1380.22" y="1446.8" type="line" name="n18"/>
      <point x="1143.38" y="1446.8" type="line" name="n19"/>
      <point x="1143.38" y="572.56" type="line" smooth="yes"/>
      <point x="1143.38" y="489.92"/>
      <point x="1154.74" y="375.64"/>
      <point x="1172.34" y="293" type="curve"/>
    </contour>
  </outline>
</glyph>
<glyph name="O" format="2">
  <advance width="1616"/>
  <unicode hex="004F"/>
  <anchor x="811.4" y="721.84" name="Slash"/>
  <anchor x="809.96" y="1518.62" name="Top"/>
  <anchor x="808.96" y="-70" name="bottom"/>
  <anchor x="-61.02" y="1120" name="onRight"/>
  <anchor x="809.96" y="1518.62" name="top"/>
  <outline>
    <contour>
      <point x="1540.2" y="723.4" type="curve" smooth="yes" name="n00"/>
      <point x="1540.2" y="1146.68"/>
      <point x="1246.56" y="1462.8"/>
      <point x="807.96" y="1462.8" type="curve" smooth="yes" name="n03"/>
      <point x="370.24" y="1462.8"/>
      <point x="74.6" y="1147.8"/>
      <point x="74.6" y="723.4" type="curve" smooth="yes" name="n06"/>
      <point x="74.6" y="298.56"/>
      <point x="370.24" y="-15.56"/>
      <point x="807.96" y="-15.56" type="curve" smooth="yes" name="n09"/>
      <point x="1246.56" y="-15.56"/>
      <point x="1540.2" y="298.56"/>
    </contour>
    <contour>
      <point x="1264.6" y="723.4" type="curve" smooth="yes" name="n12"/>
      <point x="1264.6" y="406.4"/>
      <point x="1090.16" y="216.6"/>
      <point x="807.96" y="216.6" type="curve" smooth="yes" name="n15"/>
      <point x="525.52" y="216.6"/>
      <point x="349.76" y="406.4"/>
      <point x="349.76" y="723.4" type="curve" smooth="yes" name="n18"/>
      <point x="349.76" y="1038.84"/>
      <point x="525.52" y="1230.64"/>
      <point x="807.96" y="1230.64" type="curve" smooth="yes" name="n21"/>
      <point x="1090.16" y="1230.64"/>
      <point x="1264.6" y="1038.84"/>
    </contour>
  </outline>
</glyph>
<glyph name="P" format="2">
  <advance width="1238"/>
  <unicode hex="0050"/>
  <anchor x="298.26" y="973.18" name="Bar"/>
  <anchor x="607.5" y="1518.62" name="Top"/>
  <anchor x="295.48" y="-70" name="bottom"/>
  <anchor x="805.8" y="654.36" name="tick"/>
  <anchor x="607.5" y="1518.62" name="top"/>
  <outline>
    <contour>
      <point x="316.98" y="507.96" type="line"/>
      <point x="631.46" y="507.96" type="line" smooth="yes" name="n01"/>
      <point x="1006.62" y="507.96"/>
      <point x="1192.82" y="704.04"/>
      <point x="1192.82" y="984.4" type="curve" smooth="yes" name="n04"/>
      <point x="1192.82" y="1254.4"/>
      <point x="1018.58" y="1446.8"/>
      <point x="631.46" y="1446.8" type="curve" smooth="yes" name="n07"/>
      <point x="161.02" y="1446.8" type="line"/>
      <point x="161.02" y="0" type="line" name="n09"/>
      <point x="429.94" y="0" type="line" name="n10"/>
      <point x="429.94" y="1236.48" type="line"/>
      <point x="631.46" y="1236.48" type="line" smooth="yes" name="n12"/>
      <point x="829.62" y="1236.48"/>
      <point x="923.9" y="1138.8"/>
      <point x="923.9" y="984.4" type="curve" smooth="yes" name="n15"/>
      <point x="923.9" y="822.32"/>
      <point x="829.02" y="719.84"/>
      <point x="631.46" y="719.84" type="curve" smooth="yes" name="n18"/>
      <point x="339.26" y="719.84" type="line"/>
    </contour>
  </outline>
</glyph>
<glyph name="Q" format="2">
  <advance width="1616"/>
  <unicode hex="0051"/>
  <anchor x="812.18" y="721.84" name="Slash"/>
  <anchor x="810.74" y="1518.62" name="Top"/>
  <anchor x="809.74" y="-70" name="bottom"/>
  <anchor x="-60.24" y="1120" name="onRight"/>
  <anchor x="810.74" y="1518.62" name="top"/>
  <outline>
    <component base="O" xOffset="0.78"/>
    <contour>
      <point x="1200.94" y="170.28" type="line" name="n00"/>
      <point x="904.62" y="146" type="line"/>
      <point x="1236.98" y="-221.28" type="line"/>
      <point x="1279.98" y="-267.4"/>
      <point x="1329.66" y="-282.32" name="n04"/>
      <point x="1394.26" y="-282.32" type="curve" smooth="yes"/>
      <point x="1615.94" y="-282.32" type="line"/>
    </contour>
  </outline>
</glyph>
<glyph name="R" format="2">
  <advance width="1285.52"/>
  <unicode hex="0052"/>
  <anchor x="616.3" y="1518.62" name="Top"/>
  <anchor x="616.3" y="1518.62" name="top"/>
  <anchor x="688.08" y="-70.0" name="bottom"/>
  <outline>
    <contour>
      <point x="544.98" y="563.68" type="line" smooth="yes"/>
      <point x="597.86" y="563.68"/>
      <point x="620.54" y="549.44"/>
      <point x="642.54" y="515.2" type="curve"/>
      <point x="946.5799999999999" y="54.120000000000005" type="line" smooth="yes"/>
      <point x="967.5" y="18.72"/>
      <point x="1001.58" y="0.0"/>
      <point x="1047.46" y="0.0" type="curve" smooth="yes"/>
      <point x="1289.66" y="0.0" type="line"/>
      <point x="927.74" y="533.0" type="line"/>
      <point x="863.4200000000001" y="632.52"/>
      <point x="758.98" y="659.92"/>
      <point x="644.66" y="659.92" type="curve"/>
      <point x="564.26" y="585.52" type="line"/>
      <point x="621.46" y="585.52" type="line" smooth="yes"/>
      <point x="959.1800000000001" y="585.52"/>
      <point x="1158.98" y="772.76"/>
      <point x="1158.98" y="1029.72" type="curve" smooth="yes"/>
      <point x="1158.98" y="1275.96"/>
      <point x="995.4200000000001" y="1446.8"/>
      <point x="602.02" y="1446.8" type="curve" smooth="yes"/>
      <point x="161.01999999999998" y="1446.8" type="line"/>
      <point x="161.01999999999998" y="0.0" type="line"/>
      <point x="429.94" y="0.0" type="line"/>
      <point x="429.94" y="1236.48" type="line"/>
      <point x="602.02" y="1236.48" type="line" smooth="yes"/>
      <point x="798.9" y="1236.48"/>
      <point x="896.3" y="1154.76"/>
      <point x="896.3" y="1009.44" type="curve" smooth="yes"/>
      <point x="896.3" y="864.32"/>
      <point x="801.86" y="758.4"/>
      <point x="598.06" y="758.4" type="curve" smooth="yes"/>
      <point x="338.82" y="758.4" type="line"/>
      <point x="304.5" y="563.68" type="line"/>
    </contour>
  </outline>
</glyph>
<glyph name="T" format="2">
  <advance width="1200"/>
  <unicode hex="0054"/>
  <anchor x="633.74" y="721.84" name="Slash"/>
  <anchor x="603.76" y="1518.62" name="Top"/>
  <anchor x="603.76" y="-70" name="bottom"/>
  <anchor x="603.76" y="1518.62" name="top"/>
  <outline>
    <contour>
      <point x="735.1" y="1382.2" type="line" name="n00"/>
      <point x="466.18" y="1382.2" type="line" name="n01"/>
      <point x="466.18" y="0" type="line" name="n02"/>
      <point x="735.1" y="0" type="line"/>
    </contour>
    <contour>
      <point x="29.78" y="1446.8" type="line" name="n04"/>
      <point x="29.78" y="1223.56" type="line" name="n05"/>
      <point x="1170.62" y="1223.56" type="line"/>
      <point x="1170.62" y="1446.8" type="line"/>
    </contour>
  </outline>
</glyph>
<glyph name="U" format="2">
  <advance width="1485"/>
  <unicode hex="0055"/>
  <anchor x="742.62" y="1518.62" name="Top"/>
  <anchor x="742.62" y="-70" name="bottom"/>
  <anchor x="742.62" y="1518.62" name="top"/>
  <outline>
    <contour>
      <point x="742.62" y="219.28" type="curve" smooth="yes" name="n00"/>
      <point x="534.22" y="219.28"/>
      <point x="411.94" y="362.36"/>
      <point x="411.94" y="581.28" type="curve" smooth="yes"/>
      <point x="411.94" y="1446.8" type="line" name="n04"/>
      <point x="143.02" y="1446.8" type="line" name="n05"/>
      <point x="143.02" y="580.84" type="line" smooth="yes"/>
      <point x="143.02" y="234.92"/>
      <point x="371.34" y="-16.44"/>
      <point x="742.62" y="-16.44" type="curve" smooth="yes" name="n09"/>
      <point x="1113.9" y="-16.44"/>
      <point x="1342.22" y="234.92"/>
      <point x="1342.22" y="580.84" type="curve" smooth="yes"/>
      <point x="1342.22" y="1446.8" type="line" name="n13"/>
      <point x="1073.3" y="1446.8" type="line" name="n14"/>
      <point x="1073.3" y="580.84" type="line" smooth="yes"/>
      <point x="1073.3" y="361.92"/>
      <point x="951.02" y="219.28"/>
    </contour>
  </outline>
</glyph>
<glyph name="V" format="2">
  <advance width="1389.44"/>
  <unicode hex="0056"/>
  <anchor x="697.28" y="1518.62" name="Top"/>
  <anchor x="697.28" y="1518.62" name="top"/>
  <anchor x="694.72" y="-70.0" name="bottom"/>
  <outline>
    <contour>
      <point x="1400.26" y="1446.8" type="line"/>
      <point x="1183.02" y="1446.8" type="line" smooth="yes"/>
      <point x="1138.02" y="1446.8"/>
      <point x="1105.5" y="1416.28"/>
      <point x="1094.14" y="1385.32" type="curve"/>
      <point x="755.1800000000001" y="507.68" type="line" smooth="yes"/>
      <point x="703.06" y="371.36"/>
      <point x="665.42" y="158.36"/>
      <point x="659.42" y="0.0" type="curve"/>
      <point x="816.26" y="0.0" type="line"/>
    </contour>
    <contour>
      <point x="573.18" y="0.0" type="line"/>
      <point x="736.26" y="0.0" type="line"/>
      <point x="741.1800000000001" y="158.36"/>
      <point x="687.94" y="371.36"/>
      <point x="635.82" y="507.68" type="curve" smooth="yes"/>
      <point x="295.3" y="1385.32" type="line"/>
      <point x="280.82" y="1420.96"/>
      <point x="251.86" y="1446.8"/>
      <point x="205.3" y="1446.8" type="curve" smooth="yes"/>
      <point x="-10.82" y="1446.8" type="line"/>
    </contour>
  </outline>
</glyph>
<glyph name="W" format="2">
  <advance width="2101.84"/>
  <unicode hex="0057"/>
  <guideline y="83.0"/>
  <anchor x="1049.92" y="1518.62" name="Top"/>
  <anchor x="1049.92" y="1518.62" name="top"/>
  <anchor x="1050.92" y="-70.0" name="bottom"/>
  <outline>
    <contour>
      <point x="1020.28" y="1446.8" type="line" smooth="yes"/>
      <point x="975.28" y="1446.8"/>
      <point x="941.2" y="1416.28"/>
      <point x="931.4" y="1385.32" type="curve" smooth="yes"/>
      <point x="647.22" y="525.26" type="line" smooth="yes"/>
      <point x="600.22" y="387.38"/>
      <point x="573.72" y="158.36"/>
      <point x="567.72" y="0.0" type="curve"/>
      <point x="708.52" y="0.0" type="line"/>
      <point x="1027.88" y="983.64" type="line" smooth="yes"/>
      <point x="1061.96" y="1084.1"/>
      <point x="1092.26" y="1267.92"/>
      <point x="1094.26" y="1369.28" type="curve"/>
      <point x="1010.7" y="1369.28" type="line"/>
      <point x="1012.7" y="1267.92"/>
      <point x="1043.0" y="1084.32"/>
      <point x="1077.08" y="983.64" type="curve" smooth="yes"/>
      <point x="1393.32" y="0.0" type="line"/>
      <point x="1555.96" y="0.0" type="line"/>
      <point x="1548.4" y="158.36"/>
      <point x="1520.34" y="387.38"/>
      <point x="1471.78" y="525.26" type="curve" smooth="yes"/>
      <point x="1189.16" y="1385.32" type="line" smooth="yes"/>
      <point x="1174.68" y="1420.96"/>
      <point x="1145.72" y="1446.8"/>
      <point x="1099.16" y="1446.8" type="curve" smooth="yes"/>
    </contour>
    <contour>
      <point x="465.44" y="0.0" type="line"/>
      <point x="654.6" y="0.0" type="line"/>
      <point x="647.04" y="158.36"/>
      <point x="612.74" y="384.26"/>
      <point x="578.22" y="525.26" type="curve" smooth="yes"/>
      <point x="332.24" y="1385.32" type="line" smooth="yes"/>
      <point x="322.44" y="1422.52"/>
      <point x="288.8" y="1446.8"/>
      <point x="242.24" y="1446.8" type="curve" smooth="yes"/>
      <point x="16.759999999999998" y="1446.8" type="line"/>
    </contour>
    <contour>
      <point x="2085.08" y="1446.8" type="line"/>
      <point x="1874.08" y="1446.8" type="line" smooth="yes"/>
      <point x="1829.08" y="1446.8"/>
      <point x="1793.44" y="1417.84"/>
      <point x="1785.2" y="1385.32" type="curve" smooth="yes"/>
      <point x="1539.22" y="525.26" type="line" smooth="yes"/>
      <point x="1504.7" y="385.82"/>
      <point x="1473.52" y="158.36"/>
      <point x="1467.52" y="0.0" type="curve"/>
      <point x="1636.4" y="0.0" type="line"/>
    </contour>
  </outline>
</glyph>
<glyph name="X" format="2">
  <advance width="1340.62"/>
  <unicode hex="0058"/>
  <anchor x="669.98" y="1518.62" name="Top"/>
  <anchor x="669.98" y="1518.62" name="top"/>
  <anchor x="670.2" y="-70.0" name="bottom"/>
  <outline>
    <contour>
      <point x="502.98" y="713.56" type="line"/>
      <point x="787.94" y="713.56" type="line"/>
      <point x="353.65999999999997" y="1414.08" type="line"/>
      <point x="340.3" y="1436.8"/>
      <point x="326.94" y="1446.8"/>
      <point x="290.42" y="1446.8" type="curve" smooth="yes"/>
      <point x="21.939999999999998" y="1446.8" type="line"/>
    </contour>
    <contour>
      <point x="1323.14" y="1446.8" type="line"/>
      <point x="1065.58" y="1446.8" type="line" smooth="yes"/>
      <point x="1040.42" y="1446.8"/>
      <point x="1023.5" y="1434.12"/>
      <point x="1008.58" y="1409.4" type="curve"/>
      <point x="707.5" y="935.88" type="line"/>
      <point x="665.18" y="864.6"/>
      <point x="661.18" y="800.44"/>
      <point x="659.62" y="713.56" type="curve"/>
      <point x="829.62" y="713.56" type="line"/>
    </contour>
    <contour>
      <point x="837.86" y="787.96" type="line"/>
      <point x="549.78" y="787.96" type="line"/>
      <point x="996.7" y="46.76" type="line"/>
      <point x="1010.06" y="22.48"/>
      <point x="1031.22" y="0.0"/>
      <point x="1067.74" y="0.0" type="curve" smooth="yes"/>
      <point x="1336.22" y="0.0" type="line"/>
    </contour>
    <contour>
      <point x="2.6199999999999974" y="0.0" type="line"/>
      <point x="253.94" y="0.0" type="line" smooth="yes"/>
      <point x="286.9" y="0.0"/>
      <point x="306.5" y="23.6"/>
      <point x="321.86" y="46.76" type="curve"/>
      <point x="642.7" y="556.28" type="line"/>
      <point x="676.1" y="611.96"/>
      <point x="685.46" y="700.64"/>
      <point x="687.46" y="787.96" type="curve"/>
      <point x="511.22" y="787.96" type="line"/>
    </contour>
  </outline>
</glyph>
<glyph name="Y" format="2">
  <advance width="1296.0"/>
  <unicode hex="0059"/>
  <guideline y="662.0"/>
  <anchor x="650.34" y="1518.62" name="Top"/>
  <anchor x="-200.32" y="1120.0" name="onRight"/>
  <anchor x="650.34" y="1518.62" name="top"/>
  <anchor x="648.0" y="-70.0" name="bottom"/>
  <outline>
    <contour>
      <point x="1309.14" y="1446.8" type="line"/>
      <point x="1070.74" y="1446.8" type="line" smooth="yes"/>
      <point x="1025.74" y="1446.8"/>
      <point x="996.78" y="1415.16"/>
      <point x="981.86" y="1385.76" type="curve" smooth="yes"/>
      <point x="719.12" y="905.36" type="line" smooth="yes"/>
      <point x="653.42" y="775.28"/>
      <point x="618.7" y="679.96"/>
      <point x="612.7" y="538.96" type="curve"/>
      <point x="769.54" y="538.96" type="line"/>
    </contour>
    <contour>
      <point x="526.46" y="538.96" type="line"/>
      <point x="689.54" y="538.96" type="line"/>
      <point x="685.1" y="681.52"/>
      <point x="645.92" y="773.72"/>
      <point x="578.44" y="905.36" type="curve" smooth="yes"/>
      <point x="314.14" y="1385.76" type="line" smooth="yes"/>
      <point x="296.1" y="1421.4"/>
      <point x="270.26" y="1446.8"/>
      <point x="223.70000000000002" y="1446.8" type="curve" smooth="yes"/>
      <point x="-13.14" y="1446.8" type="line"/>
    </contour>
    <contour>
      <point x="782.46" y="609.56" type="line"/>
      <point x="513.54" y="609.56" type="line"/>
      <point x="513.54" y="0.0" type="line"/>
      <point x="782.46" y="0.0" type="line"/>
    </contour>
  </outline>
</glyph>
<glyph name="Z" format="2">
  <advance width="1211.4"/>
  <unicode hex="005A"/>
  <anchor x="626.06" y="1518.62" name="Top"/>
  <anchor x="630.72" y="-70.0" name="bottom"/>
  <anchor x="626.06" y="1518.62" name="top"/>
  <outline>
    <contour>
      <point x="1130.78" y="1262.12" type="line" smooth="yes"/>
      <point x="1147.7" y="1287.28"/>
      <point x="1157.5" y="1316.68"/>
      <point x="1157.5" y="1346.08" type="curve" smooth="yes"/>
      <point x="1157.5" y="1446.8" type="line"/>
      <point x="960.1" y="1446.8" type="line"/>
      <point x="64.82" y="181.12" type="line"/>
      <point x="49.9" y="159.52"/>
      <point x="40.1" y="133.68"/>
      <point x="40.1" y="106.96000000000001" type="curve" smooth="yes"/>
      <point x="40.1" y="0.0" type="line"/>
      <point x="237.5" y="0.0" type="line"/>
    </contour>
    <contour>
      <point x="87.3" y="1446.8" type="line"/>
      <point x="87.3" y="1229.8" type="line"/>
      <point x="1015.14" y="1229.8" type="line"/>
      <point x="1157.5" y="1446.8" type="line"/>
    </contour>
    <contour>
      <point x="180.9" y="217.0" type="line"/>
      <point x="40.1" y="0.0" type="line"/>
      <point x="1139.9" y="0.0" type="line"/>
      <point x="1139.9" y="217.0" type="line"/>
    </contour>
  </outline>
</glyph>
<glyph name="bracketleft" format="2">
  <advance width="627"/>
  <unicode hex="005B"/>
  <outline>
    <contour>
      <point x="575.12" y="1547.24" type="line"/>
      <point x="165.4" y="1547.24" type="line" name="n01"/>
      <point x="165.4" y="1385.72" type="line" name="n02"/>
      <point x="509.64" y="1385.72" type="line" smooth="yes"/>
      <point x="547.72" y="1385.72"/>
      <point x="575.12" y="1414.68"/>
      <point x="575.12" y="1449.2" type="curve" smooth="yes"/>
    </contour>
    <contour>
      <point x="575.12" y="-309.08" type="line"/>
      <point x="575.12" y="-211.04" type="line" smooth="yes"/>
      <point x="575.12" y="-176.52"/>
      <point x="547.72" y="-147.56"/>
      <point x="509.64" y="-147.56" type="curve" smooth="yes"/>
      <point x="165.4" y="-147.56" type="line" name="n12"/>
      <point x="165.4" y="-309.08" type="line" name="n13"/>
    </contour>
    <contour>
      <point x="371.48" y="1547.24" type="line" name="n14"/>
      <point x="165.4" y="1547.24" type="line"/>
      <point x="165.4" y="-309.08" type="line"/>
      <point x="371.48" y="-309.08" type="line"/>
    </contour>
  </outline>
</glyph>
<glyph name="backslash" format="2">
  <advance width="932"/>
  <unicode hex="005C"/>
  <outline>
    <contour>
      <point x="637.64" y="-2.04" type="line"/>
      <point x="660.36" y="-63.52"/>
      <point x="717.16" y="-95.16" name="n02"/>
      <point x="768.84" y="-95.16" type="curve" smooth="yes"/>
      <point x="873.56" y="-95.16" type="line"/>
      <point x="289.72" y="1398.36" type="line"/>
      <point x="268.56" y="1454.72"/>
      <point x="222" y="1486.8" name="n07"/>
      <point x="163.64" y="1486.8" type="curve" smooth="yes"/>
      <point x="58.48" y="1486.8" type="line"/>
    </contour>
  </outline>
</glyph>
<glyph name="bracketright" format="2">
  <advance width="627.14"/>
  <unicode hex="005D"/>
  <outline>
    <contour>
      <point x="52.019999999999996" y="1449.2" type="line"/>
      <point x="52.019999999999996" y="1414.68"/>
      <point x="79.42" y="1385.72"/>
      <point x="117.5" y="1385.72" type="curve" smooth="yes"/>
      <point x="461.74" y="1385.72" type="line"/>
      <point x="461.74" y="1547.24" type="line"/>
      <point x="52.019999999999996" y="1547.24" type="line"/>
    </contour>
    <contour>
      <point x="461.74" y="-309.08" type="line"/>
      <point x="461.74" y="-147.56" type="line"/>
      <point x="117.5" y="-147.56" type="line" smooth="yes"/>
      <point x="79.42" y="-147.56"/>
      <point x="52.019999999999996" y="-176.51999999999998"/>
      <point x="52.019999999999996" y="-211.04" type="curve" smooth="yes"/>
      <point x="52.019999999999996" y="-309.08" type="line"/>
    </contour>
    <contour>
      <point x="255.66" y="-309.08" type="line"/>
      <point x="461.74" y="-309.08" type="line"/>
      <point x="461.74" y="1547.24" type="line"/>
      <point x="255.66" y="1547.24" type="line"/>
    </contour>
  </outline>
</glyph>
<glyph name="asciicircum" format="2">
  <advance width="1160.0"/>
  <unicode hex="005E"/>
  <outline>
    <contour>
      <point x="98.8" y="680.52" type="line"/>
      <point x="289.08" y="680.52" type="line" smooth="yes"/>
      <point x="322.48" y="680.52"/>
      <point x="344.3" y="698.66"/>
      <point x="354.32" y="722.6" type="curve"/>
      <point x="533.92" y="1104.24" type="line" smooth="yes"/>
      <point x="585.7" y="1222.96"/>
      <point x="607.4" y="1307.36"/>
      <point x="609.4" y="1446.8" type="curve"/>
      <point x="496.0" y="1446.8" type="line"/>
    </contour>
    <contour>
      <point x="656.2" y="1446.8" type="line"/>
      <point x="549.04" y="1446.8" type="line"/>
      <point x="549.48" y="1307.36"/>
      <point x="570.4" y="1223.74"/>
      <point x="627.64" y="1104.24" type="curve" smooth="yes"/>
      <point x="818.16" y="722.6" type="line"/>
      <point x="829.96" y="698.22"/>
      <point x="850.44" y="680.52"/>
      <point x="880.28" y="680.52" type="curve" smooth="yes"/>
      <point x="1061.2" y="680.52" type="line"/>
    </contour>
  </outline>
</glyph>
<glyph name="underscore" format="2">
  <advance width="933"/>
  <unicode hex="005F"/>
  <outline>
    <contour>
      <point x="72.4" y="-132.36" type="line" name="n00"/>
      <point x="72.4" y="-294.76" type="line" name="n01"/>
      <point x="860.4" y="-294.76" type="line"/>
      <point x="860.4" y="-132.36" type="line"/>
    </contour>
  </outline>
</glyph>
<glyph name="grave" format="2">
  <advance width="800"/>
  <unicode hex="0060"/>
  <anchor x="400" y="1120" name="_top"/>
  <outline>
    <contour>
      <point x="79.52" y="1462.8" type="line" name="n00"/>
      <point x="326.76" y="1201.88" type="line" smooth="yes"/>
      <point x="351.04" y="1175.6"/>
      <point x="371.08" y="1165.8" name="n03"/>
      <point x="408.28" y="1165.8" type="curve" smooth="yes"/>
      <point x="548.64" y="1165.8" type="line"/>
      <point x="406.48" y="1409.6" type="line" smooth="yes"/>
      <point x="386.68" y="1444.76"/>
      <point x="364.64" y="1462.8"/>
      <point x="311.44" y="1462.8" type="curve" smooth="yes"/>
    </contour>
  </outline>
</glyph>
<glyph name="a" format="2">
  <advance width="1015"/>
  <unicode hex="0061"/>
  <anchor x="501.48" y="-70" name="bottom"/>
  <anchor x="904.6" y="177.56" name="hook"/>
  <anchor x="500.66" y="1120" name="top"/>
  <outline>
    <contour>
      <point x="904.6" y="648" type="line" smooth="yes"/>
      <point x="904.6" y="881.16"/>
      <point x="764.68" y="1045.92"/>
      <point x="524.12" y="1045.92" type="curve" smooth="yes" name="n03"/>
      <point x="358.48" y="1045.92"/>
      <point x="215.68" y="991.92"/>
      <point x="97.84" y="883.68" type="curve"/>
      <point x="142.4" y="803.24" type="line"/>
      <point x="157.32" y="778.96"/>
      <point x="181.16" y="758.24"/>
      <point x="214.8" y="758.24" type="curve" smooth="yes"/>
      <point x="294.52" y="758.24"/>
      <point x="333.28" y="848.08"/>
      <point x="492.92" y="848.08" type="curve" smooth="yes" name="n13"/>
      <point x="603.4" y="848.08"/>
      <point x="663.76" y="783.8"/>
      <point x="663.76" y="648" type="curve" smooth="yes"/>
      <point x="663.76" y="621.74" type="line"/>
      <point x="904.6" y="621.74" type="line"/>
    </contour>
    <contour>
      <point x="904.6" y="0" type="line" name="n19"/>
      <point x="904.6" y="638.32" type="line"/>
      <point x="663.76" y="638.32" type="line"/>
      <point x="663.76" y="205.4" type="line"/>
      <point x="708.76" y="53.44" type="line"/>
      <point x="724.36" y="10.68"/>
      <point x="745.96" y="0"/>
      <point x="792.96" y="0" type="curve" smooth="yes"/>
    </contour>
    <contour>
      <point x="724.12" y="159.92" type="curve"/>
      <point x="724.12" y="159.92"/>
      <point x="693.84" y="298.72"/>
      <point x="693.84" y="298.72" type="curve"/>
      <point x="611" y="203.64"/>
      <point x="539.56" y="155.32"/>
      <point x="424.2" y="155.32" type="curve" smooth="yes" name="n33"/>
      <point x="341.4" y="155.32"/>
      <point x="285.12" y="189.44"/>
      <point x="285.12" y="275.24" type="curve" smooth="yes" name="n36"/>
      <point x="285.12" y="366.8"/>
      <point x="384.6" y="430.72"/>
      <point x="699.4" y="438.04" type="curve" name="n39"/>
      <point x="668.2" y="589.08" type="line" name="n40"/>
      <point x="197.24" y="579.08"/>
      <point x="48.96" y="417.36"/>
      <point x="48.96" y="262.76" type="curve" smooth="yes" name="n43"/>
      <point x="48.96" y="78.52"/>
      <point x="173.6" y="-16"/>
      <point x="347.76" y="-16" type="curve" smooth="yes" name="n46"/>
      <point x="512.6" y="-16"/>
      <point x="601.88" y="46.84"/>
    </contour>
  </outline>
</glyph>
<glyph name="b" format="2">
  <advance width="1135"/>
  <unicode hex="0062"/>
  <anchor x="306.76" y="1518.62" name="Top"/>
  <anchor x="245.14" y="1238" name="bar"/>
  <anchor x="577.8" y="-70" name="bottom"/>
  <anchor x="697.34" y="177.56" name="hook"/>
  <anchor x="661.86" y="1120" name="top"/>
  <outline>
    <contour>
      <point x="284.82" y="0" type="line" smooth="yes" name="n00"/>
      <point x="318.22" y="0"/>
      <point x="337.38" y="12.68"/>
      <point x="345.18" y="48.32" type="curve"/>
      <point x="361.66" y="156.38" type="line" name="n04"/>
      <point x="369.46" y="172.18" type="line"/>
      <point x="369.46" y="1486.8" type="line" name="n06"/>
      <point x="122.38" y="1486.8" type="line"/>
      <point x="122.38" y="0" type="line"/>
    </contour>
    <contour>
      <point x="337.62" y="139.44" type="line" name="n09"/>
      <point x="408.5" y="46.88"/>
      <point x="487.74" y="-15.12"/>
      <point x="627.82" y="-15.12" type="curve" smooth="yes" name="n12"/>
      <point x="892.78" y="-15.12"/>
      <point x="1066.18" y="207.02"/>
      <point x="1066.18" y="539.06" type="curve" smooth="yes" name="n15"/>
      <point x="1066.18" y="848.18"/>
      <point x="916.26" y="1042.8"/>
      <point x="679.16" y="1042.8" type="curve" smooth="yes" name="n18"/>
      <point x="520.32" y="1042.8"/>
      <point x="403.34" y="955.48"/>
      <point x="312.22" y="831.76" type="curve"/>
      <point x="341.18" y="688.76" type="line"/>
      <point x="414.02" y="790.4"/>
      <point x="484.98" y="848.08"/>
      <point x="594.14" y="848.08" type="curve" smooth="yes" name="n25"/>
      <point x="734.12" y="848.08"/>
      <point x="811.3" y="754.38"/>
      <point x="811.3" y="530.04" type="curve" smooth="yes" name="n28"/>
      <point x="811.3" y="279.62"/>
      <point x="717.4" y="174.92"/>
      <point x="565.2" y="174.92" type="curve" smooth="yes" name="n31"/>
      <point x="486.6" y="174.92"/>
      <point x="416.26" y="202.4"/>
      <point x="357.9" y="280.64" type="curve"/>
    </contour>
  </outline>
</glyph>
<glyph name="d" format="2">
  <advance width="1135.36"/>
  <unicode hex="0064"/>
  <anchor x="494.0" y="1120.0" name="top"/>
  <anchor x="1012.98" y="177.56" name="hook"/>
  <anchor x="889.44" y="1238.0" name="bar"/>
  <anchor x="833.28" y="1518.62" name="Top"/>
  <anchor x="603.86" y="-70.0" name="bottom"/>
  <outline>
    <contour>
      <point x="1012.98" y="0.0" type="line"/>
      <point x="1012.98" y="1486.8" type="line"/>
      <point x="765.9" y="1486.8" type="line"/>
      <point x="765.9" y="181.66" type="line"/>
      <point x="773.7" y="168.3" type="line"/>
      <point x="799.54" y="45.64" type="line"/>
      <point x="808.9" y="14.92"/>
      <point x="830.06" y="0.0"/>
      <point x="861.9" y="0.0" type="curve" smooth="yes"/>
    </contour>
    <contour>
      <point x="816.46" y="889.8" type="line"/>
      <point x="740.9" y="983.92"/>
      <point x="656.98" y="1045.92"/>
      <point x="510.1" y="1045.92" type="curve" smooth="yes"/>
      <point x="241.7" y="1045.92"/>
      <point x="69.18" y="815.68"/>
      <point x="69.18" y="509.84" type="curve" smooth="yes"/>
      <point x="69.18" y="174.52"/>
      <point x="224.34" y="-15.120000000000001"/>
      <point x="448.7" y="-15.120000000000001" type="curve" smooth="yes"/>
      <point x="618.3" y="-15.120000000000001"/>
      <point x="732.02" y="75.32"/>
      <point x="823.14" y="199.04" type="curve"/>
      <point x="794.18" y="342.04" type="line"/>
      <point x="721.34" y="240.4"/>
      <point x="651.3" y="182.72"/>
      <point x="532.94" y="182.72" type="curve" smooth="yes"/>
      <point x="403.70000000000005" y="182.72"/>
      <point x="324.06" y="271.64"/>
      <point x="324.06" y="509.84" type="curve" smooth="yes"/>
      <point x="324.06" y="746.4"/>
      <point x="418.62" y="855.88"/>
      <point x="567.82" y="855.88" type="curve" smooth="yes"/>
      <point x="649.42" y="855.88"/>
      <point x="719.1" y="828.4"/>
      <point x="777.46" y="750.16" type="curve"/>
    </contour>
  </outline>
</glyph>
<glyph name="e" format="2">
  <advance width="1068"/>
  <unicode hex="0065"/>
  <anchor x="570.16" y="-70" name="bottom"/>
  <anchor x="993.84" y="177.56" name="hook"/>
  <anchor x="565.16" y="1120" name="top"/>
  <outline>
    <contour>
      <point x="559.36" y="1042.8" type="curve" smooth="yes" name="n00"/>
      <point x="253.48" y="1042.8"/>
      <point x="65.84" y="815.16"/>
      <point x="65.84" y="534.96" type="curve" smooth="yes" name="n03"/>
      <point x="65.84" y="175.76"/>
      <point x="286" y="-15.12"/>
      <point x="571.16" y="-15.12" type="curve" smooth="yes" name="n06"/>
      <point x="715.36" y="-15.12"/>
      <point x="884.32" y="24.12"/>
      <point x="993.84" y="153.44" type="curve"/>
      <point x="922.76" y="244.8" type="line"/>
      <point x="912.96" y="259.28"/>
      <point x="896.92" y="267.52"/>
      <point x="877.32" y="267.52" type="curve" smooth="yes"/>
      <point x="817.4" y="267.52"/>
      <point x="753.28" y="178.04"/>
      <point x="593" y="178.04" type="curve" smooth="yes" name="n16"/>
      <point x="418.76" y="178.04"/>
      <point x="309.8" y="288.96"/>
      <point x="309.8" y="534.96" type="curve" smooth="yes" name="n19"/>
      <point x="309.8" y="740.76"/>
      <point x="393.4" y="863.68"/>
      <point x="564.04" y="863.68" type="curve" smooth="yes" name="n22"/>
      <point x="711.68" y="863.68"/>
      <point x="783" y="758"/>
      <point x="783" y="631.92" type="curve" name="n25"/>
      <point x="260.56" y="631.92" type="line" name="n26"/>
      <point x="263.24" y="481.32" type="line" name="n27"/>
      <point x="947.44" y="481.32" type="line" smooth="yes"/>
      <point x="992.44" y="481.32"/>
      <point x="1004.68" y="500.92"/>
      <point x="1004.68" y="577.12" type="curve" smooth="yes" name="n31"/>
      <point x="1004.68" y="872.52"/>
      <point x="818.4" y="1042.8"/>
    </contour>
  </outline>
</glyph>
<glyph name="f" format="2">
  <advance width="717.04"/>
  <unicode hex="0066"/>
  <anchor x="441.18" y="177.56" name="hook"/>
  <anchor x="515.66" y="1508.76" name="top"/>
  <anchor x="317.64" y="485.98" name="bar"/>
  <anchor x="448.2" y="1518.62" name="Top"/>
  <anchor x="317.64" y="-70.0" name="bottom"/>
  <outline>
    <contour>
      <point x="441.18" y="0.0" type="line"/>
      <point x="441.18" y="938.48" type="line"/>
      <point x="433.38" y="965.2" type="line"/>
      <point x="433.38" y="1084.88" type="line" smooth="yes"/>
      <point x="433.38" y="1236.68"/>
      <point x="503.28" y="1283.24"/>
      <point x="619.44" y="1283.24" type="curve" smooth="yes"/>
      <point x="663.56" y="1283.24"/>
      <point x="701.26" y="1289.56"/>
      <point x="703.7" y="1327.84" type="curve"/>
      <point x="708.82" y="1452.84" type="line"/>
      <point x="666.78" y="1465.28"/>
      <point x="624.6800000000001" y="1471.72"/>
      <point x="577.32" y="1471.72" type="curve" smooth="yes"/>
      <point x="340.2" y="1471.72"/>
      <point x="194.1" y="1327.6"/>
      <point x="194.1" y="1092.68" type="curve" smooth="yes"/>
      <point x="194.1" y="0.0" type="line"/>
    </contour>
    <contour>
      <point x="699.7" y="840.0" type="line"/>
      <point x="699.7" y="1017.56" type="line"/>
      <point x="41.5" y="1017.56" type="line"/>
      <point x="41.5" y="915.96" type="line" smooth="yes"/>
      <point x="41.5" y="879.2"/>
      <point x="67.34" y="861.16"/>
      <point x="104.98" y="853.36" type="curve"/>
      <point x="239.1" y="832.2" type="line"/>
      <point x="273.38" y="840.0" type="line"/>
    </contour>
  </outline>
</glyph>
<glyph name="g" format="2">
  <advance width="1056"/>
  <unicode hex="0067"/>
  <anchor x="549.06" y="-421" name="bottom"/>
  <anchor x="520.7" y="1120" name="top"/>
  <outline>
    <contour>
      <point x="496.92" y="1044.36" type="curve" smooth="yes" name="n00"/>
      <point x="263.28" y="1044.36"/>
      <point x="90.04" y="916.36"/>
      <point x="90.04" y="712.08" type="curve" smooth="yes" name="n03"/>
      <point x="90.04" y="508.92"/>
      <point x="263.28" y="379.8"/>
      <point x="496.92" y="379.8" type="curve" smooth="yes" name="n06"/>
      <point x="725.44" y="379.8"/>
      <point x="897.56" y="508.92"/>
      <point x="897.56" y="712.08" type="curve" smooth="yes" name="n09"/>
      <point x="897.56" y="916.36"/>
      <point x="725.44" y="1044.36"/>
    </contour>
    <contour>
      <point x="496.92" y="540.2" type="curve" smooth="yes" name="n12"/>
      <point x="375.56" y="540.2"/>
      <point x="315.28" y="609.84"/>
      <point x="315.28" y="705.84" type="curve" smooth="yes" name="n15"/>
      <point x="315.28" y="806.52"/>
      <point x="375.56" y="869.92"/>
      <point x="496.92" y="869.92" type="curve" smooth="yes" name="n18"/>
      <point x="618.28" y="869.92"/>
      <point x="678.56" y="806.52"/>
      <point x="678.56" y="705.84" type="curve" smooth="yes" name="n21"/>
      <point x="678.56" y="608.28"/>
      <point x="619.16" y="540.2"/>
    </contour>
    <contour>
      <point x="285.96" y="448.52" type="line"/>
      <point x="176.08" y="406.96"/>
      <point x="123.4" y="322.92"/>
      <point x="123.4" y="256.44" type="curve" smooth="yes"/>
      <point x="123.4" y="-67.44"/>
      <point x="775.64" y="157.32"/>
      <point x="775.64" y="-45.24" type="curve" smooth="yes" name="n30"/>
      <point x="775.64" y="-125"/>
      <point x="697.08" y="-182.84"/>
      <point x="512.04" y="-182.84" type="curve" smooth="yes" name="n33"/>
      <point x="330.64" y="-182.84"/>
      <point x="263.76" y="-129.44"/>
      <point x="263.76" y="-57.4" type="curve" smooth="yes" name="n36"/>
      <point x="263.76" y="19.16"/>
      <point x="342.16" y="71.76"/>
      <point x="434.72" y="101.72" type="curve"/>
      <point x="267.2" y="125.32" type="line"/>
      <point x="134.32" y="91.12"/>
      <point x="49.44" y="20.72"/>
      <point x="49.44" y="-90.16" type="curve" smooth="yes" name="n43"/>
      <point x="49.44" y="-231.04"/>
      <point x="196.56" y="-360.4"/>
      <point x="507.36" y="-360.4" type="curve" smooth="yes" name="n46"/>
      <point x="821.52" y="-360.4"/>
      <point x="1003.56" y="-184.08"/>
      <point x="1003.56" y="-3.12" type="curve" smooth="yes"/>
      <point x="1003.56" y="387.24"/>
      <point x="335.72" y="164.04"/>
      <point x="335.72" y="326.64" type="curve" smooth="yes" name="n52"/>
      <point x="335.72" y="357.24"/>
      <point x="364.32" y="387.36"/>
      <point x="426.96" y="410.88" type="curve"/>
    </contour>
    <contour>
      <point x="762.6" y="805.48" type="line"/>
      <point x="968.8" y="843.8" type="line" name="n57"/>
      <point x="1006.44" y="851.6"/>
      <point x="1022.24" y="868.52"/>
      <point x="1022.24" y="898.36" type="curve" smooth="yes" name="n60"/>
      <point x="1022.24" y="991.28" type="line" name="n61"/>
      <point x="652.8" y="991.28" type="line"/>
    </contour>
  </outline>
  <guideline angle="90" x="534" y="0"/>
</glyph>
<glyph name="h" format="2">
  <advance width="1128"/>
  <unicode hex="0068"/>
  <anchor x="589.6" y="721.84" name="Slash"/>
  <anchor x="305.2" y="1518.62" name="Top"/>
  <anchor x="569.28" y="-70" name="bottom"/>
  <anchor x="305.2" y="1518.62" name="top"/>
  <outline>
    <contour>
      <point x="369.46" y="0" type="line" name="n00"/>
      <point x="369.46" y="1486.8" type="line" name="n01"/>
      <point x="122.38" y="1486.8" type="line" name="n02"/>
      <point x="122.38" y="0" type="line"/>
    </contour>
    <contour>
      <point x="1016.18" y="0" type="line"/>
      <point x="1016.18" y="652.96" type="line" name="n05"/>
      <point x="769.1" y="652.96" type="line" name="n06"/>
      <point x="769.1" y="0" type="line"/>
    </contour>
    <contour>
      <point x="1016.18" y="652.96" type="line"/>
      <point x="1016.18" y="881.84"/>
      <point x="894.58" y="1042.8"/>
      <point x="670.34" y="1042.8" type="curve" smooth="yes" name="n11"/>
      <point x="499.42" y="1042.8"/>
      <point x="393.3" y="953.48"/>
      <point x="293.5" y="834.44" type="curve"/>
      <point x="322.46" y="688.76" type="line"/>
      <point x="398.62" y="784.16"/>
      <point x="489.38" y="848.08"/>
      <point x="595.46" y="848.08" type="curve" smooth="yes" name="n18"/>
      <point x="710.54" y="848.08"/>
      <point x="769.1" y="775.8"/>
      <point x="769.1" y="652.96" type="curve"/>
    </contour>
  </outline>
</glyph>
<glyph name="i" format="2">
  <advance width="508"/>
  <unicode hex="0069"/>
  <anchor x="254.02" y="1518.62" name="Top"/>
  <anchor x="254.02" y="-70" name="bottom"/>
  <anchor x="377.56" y="177.56" name="hook"/>
  <anchor x="254.02" y="1518.62" name="top"/>
  <outline>
    <contour>
      <point x="130.48" y="1026.8" type="line" name="n00"/>
      <point x="130.48" y="0" type="line" name="n01"/>
      <point x="377.56" y="0" type="line"/>
      <point x="377.56" y="1026.8" type="line" name="n03"/>
    </contour>
    <contour>
      <point x="412.2" y="1325.28" type="curve" smooth="yes"/>
      <point x="412.2" y="1413"/>
      <point x="338.96" y="1484.24"/>
      <point x="251.68" y="1484.24" type="curve" smooth="yes" name="n07"/>
      <point x="167.08" y="1484.24"/>
      <point x="95.84" y="1413"/>
      <point x="95.84" y="1325.28" type="curve" smooth="yes"/>
      <point x="95.84" y="1239.56"/>
      <point x="167.08" y="1168.32"/>
      <point x="251.68" y="1168.32" type="curve" smooth="yes" name="n13"/>
      <point x="338.96" y="1168.32"/>
      <point x="412.2" y="1239.56"/>
    </contour>
  </outline>
  <guideline angle="90" x="232" y="0"/>
</glyph>
<glyph name="j" format="2">
  <advance width="508"/>
  <unicode hex="006A"/>
  <anchor x="253.8" y="1518.62" name="Top"/>
  <anchor x="256.14" y="485.98" name="bar"/>
  <anchor x="254.02" y="-421" name="bottom"/>
  <anchor x="253.8" y="1518.62" name="top"/>
  <outline>
    <contour>
      <point x="130.48" y="1026.8" type="line" name="n00"/>
      <point x="130.48" y="-33.16" type="line" smooth="yes"/>
      <point x="130.48" y="-139.6"/>
      <point x="98.56" y="-174.6"/>
      <point x="-0.96" y="-174.6" type="curve" smooth="yes" name="n04"/>
      <point x="-50.28" y="-174.6"/>
      <point x="-63.16" y="-180.04"/>
      <point x="-66.92" y="-206.72" type="curve"/>
      <point x="-75.6" y="-341.08" type="line"/>
      <point x="-34.44" y="-353.52"/>
      <point x="3.6" y="-359.96"/>
      <point x="50.52" y="-359.96" type="curve" smooth="yes" name="n11"/>
      <point x="290.64" y="-359.96"/>
      <point x="377.56" y="-213.56"/>
      <point x="377.56" y="-33.16" type="curve" smooth="yes"/>
      <point x="377.56" y="1026.8" type="line" name="n15"/>
    </contour>
    <contour>
      <point x="411.98" y="1325.28" type="curve" smooth="yes"/>
      <point x="411.98" y="1413"/>
      <point x="338.74" y="1484.24"/>
      <point x="251.46" y="1484.24" type="curve" smooth="yes" name="n19"/>
      <point x="166.86" y="1484.24"/>
      <point x="95.62" y="1413"/>
      <point x="95.62" y="1325.28" type="curve" smooth="yes"/>
      <point x="95.62" y="1239.56"/>
      <point x="166.86" y="1168.32"/>
      <point x="251.46" y="1168.32" type="curve" smooth="yes" name="n25"/>
      <point x="338.74" y="1168.32"/>
      <point x="411.98" y="1239.56"/>
    </contour>
  </outline>
  <guideline angle="90" x="231" y="0"/>
</glyph>
<glyph name="l" format="2">
  <advance width="497"/>
  <unicode hex="006C"/>
  <anchor x="251.46" y="1518.62" name="Top"/>
  <anchor x="256.58" y="743.68" name="bar"/>
  <anchor x="251.12" y="-70" name="bottom"/>
  <anchor x="372.1" y="177.56" name="hook"/>
  <anchor x="251.46" y="1518.62" name="top"/>
  <outline>
    <contour>
      <point x="125.02" y="1486.8" type="line" name="n00"/>
      <point x="125.02" y="0" type="line" name="n01"/>
      <point x="372.1" y="0" type="line"/>
      <point x="372.1" y="1486.8" type="line" name="n03"/>
    </contour>
  </outline>
</glyph>
<glyph name="m" format="2">
  <advance width="1674.94"/>
  <unicode hex="006D"/>
  <anchor x="846.94" y="-70.0" name="bottom"/>
  <anchor x="868.08" y="1120.0" name="top"/>
  <anchor x="1562.78" y="177.56" name="hook"/>
  <outline>
    <contour>
      <point x="369.46000000000004" y="0.0" type="line"/>
      <point x="369.46000000000004" y="844.04" type="line"/>
      <point x="361.65999999999997" y="857.4" type="line"/>
      <point x="335.82" y="981.16" type="line"/>
      <point x="326.46000000000004" y="1011.88"/>
      <point x="305.3" y="1026.8"/>
      <point x="273.46000000000004" y="1026.8" type="curve" smooth="yes"/>
      <point x="122.38" y="1026.8" type="line"/>
      <point x="122.38" y="0.0" type="line"/>
    </contour>
    <contour>
      <point x="966.58" y="0.0" type="line"/>
      <point x="966.58" y="652.96" type="line"/>
      <point x="719.5" y="652.96" type="line"/>
      <point x="719.5" y="0.0" type="line"/>
    </contour>
    <contour>
      <point x="910.66" y="652.96" type="line"/>
      <point x="910.66" y="874.04"/>
      <point x="821.78" y="1042.8"/>
      <point x="627.74" y="1042.8" type="curve" smooth="yes"/>
      <point x="473.46000000000004" y="1042.8"/>
      <point x="381.98" y="948.8"/>
      <point x="293.5" y="836.0" type="curve"/>
      <point x="322.46000000000004" y="688.76" type="line"/>
      <point x="383.74" y="784.16"/>
      <point x="462.98" y="848.08"/>
      <point x="555.54" y="848.08" type="curve" smooth="yes"/>
      <point x="662.26" y="848.08"/>
      <point x="719.5" y="789.84"/>
      <point x="719.5" y="652.96" type="curve"/>
    </contour>
    <contour>
      <point x="1562.78" y="0.0" type="line"/>
      <point x="1562.78" y="652.96" type="line"/>
      <point x="1315.7" y="652.96" type="line"/>
      <point x="1315.7" y="0.0" type="line"/>
    </contour>
    <contour>
      <point x="1562.78" y="652.96" type="line"/>
      <point x="1562.78" y="900.32"/>
      <point x="1435.42" y="1042.8"/>
      <point x="1209.3" y="1042.8" type="curve" smooth="yes"/>
      <point x="1027.7" y="1042.8"/>
      <point x="840.94" y="935.72"/>
      <point x="840.94" y="652.96" type="curve"/>
      <point x="966.58" y="652.96" type="line"/>
      <point x="966.58" y="780.44"/>
      <point x="1047.06" y="848.08"/>
      <point x="1146.9" y="848.08" type="curve" smooth="yes"/>
      <point x="1257.38" y="848.08"/>
      <point x="1315.7" y="781.8"/>
      <point x="1315.7" y="652.96" type="curve"/>
    </contour>
  </outline>
</glyph>
<glyph name="n" format="2">
  <advance width="1128"/>
  <unicode hex="006E"/>
  <anchor x="569.28" y="-70" name="bottom"/>
  <anchor x="1016.18" y="177.56" name="hook"/>
  <anchor x="573.98" y="1120" name="top"/>
  <outline>
    <contour>
      <point x="369.46" y="0" type="line" name="n00"/>
      <point x="369.46" y="844.04" type="line"/>
      <point x="361.66" y="857.4" type="line"/>
      <point x="335.82" y="981.16" type="line" name="n03"/>
      <point x="326.46" y="1011.88"/>
      <point x="305.3" y="1026.8" name="n05"/>
      <point x="273.46" y="1026.8" type="curve" smooth="yes"/>
      <point x="122.38" y="1026.8" type="line" name="n07"/>
      <point x="122.38" y="0" type="line"/>
    </contour>
    <contour>
      <point x="1016.18" y="0" type="line"/>
      <point x="1016.18" y="652.96" type="line" name="n10"/>
      <point x="769.1" y="652.96" type="line" name="n11"/>
      <point x="769.1" y="0" type="line"/>
    </contour>
    <contour>
      <point x="1016.18" y="652.96" type="line" smooth="yes"/>
      <point x="1016.18" y="881.84"/>
      <point x="894.58" y="1042.8"/>
      <point x="670.34" y="1042.8" type="curve" smooth="yes" name="n16"/>
      <point x="499.42" y="1042.8"/>
      <point x="393.3" y="953.48"/>
      <point x="293.5" y="834.44" type="curve"/>
      <point x="322.46" y="688.76" type="line"/>
      <point x="398.62" y="784.16"/>
      <point x="489.38" y="848.08"/>
      <point x="595.46" y="848.08" type="curve" smooth="yes" name="n23"/>
      <point x="710.54" y="848.08"/>
      <point x="769.1" y="775.8"/>
      <point x="769.1" y="652.96" type="curve" smooth="yes"/>
      <point x="769.1" y="615.16" type="line"/>
      <point x="1016.18" y="615.16" type="line"/>
    </contour>
  </outline>
  <guideline angle="90" x="-1350" y="0"/>
</glyph>
<glyph name="o" format="2">
  <advance width="1148.58"/>
  <unicode hex="006F"/>
  <guideline x="578.36"/>
  <anchor x="576.18" y="1120.0" name="top"/>
  <anchor x="576.18" y="-70.0" name="bottom"/>
  <outline>
    <contour>
      <point x="575.74" y="1042.8" type="curve" smooth="yes"/>
      <point x="268.54" y="1042.8"/>
      <point x="66.62" y="839.24"/>
      <point x="66.62" y="514.96" type="curve" smooth="yes"/>
      <point x="66.62" y="189.12"/>
      <point x="268.54" y="-15.120000000000001"/>
      <point x="575.74" y="-15.120000000000001" type="curve" smooth="yes"/>
      <point x="881.38" y="-15.120000000000001"/>
      <point x="1081.74" y="189.12"/>
      <point x="1081.74" y="514.96" type="curve" smooth="yes"/>
      <point x="1081.74" y="839.24"/>
      <point x="881.38" y="1042.8"/>
    </contour>
    <contour>
      <point x="575.74" y="176.48000000000002" type="curve" smooth="yes"/>
      <point x="402.9" y="176.48000000000002"/>
      <point x="321.5" y="294.04"/>
      <point x="321.5" y="513.4" type="curve" smooth="yes"/>
      <point x="321.5" y="732.76"/>
      <point x="402.9" y="851.2"/>
      <point x="575.74" y="851.2" type="curve" smooth="yes"/>
      <point x="745.46" y="851.2"/>
      <point x="826.86" y="732.76"/>
      <point x="826.86" y="513.4" type="curve" smooth="yes"/>
      <point x="826.86" y="294.04"/>
      <point x="745.46" y="176.48000000000002"/>
    </contour>
  </outline>
</glyph>
<glyph name="p" format="2">
  <advance width="1136.14"/>
  <unicode hex="0070"/>
  <anchor x="803.3199999999999" y="177.56" name="hook"/>
  <anchor x="248.26" y="-142.18" name="bar"/>
  <anchor x="732.56" y="118.10000000000001" name="tick"/>
  <anchor x="536.28" y="1120.0" name="top"/>
  <anchor x="700.02" y="-70.0" name="bottom"/>
  <outline>
    <contour>
      <point x="369.46000000000004" y="-335.04" type="line"/>
      <point x="369.46000000000004" y="846.02" type="line"/>
      <point x="361.65999999999997" y="859.38" type="line"/>
      <point x="335.82" y="981.16" type="line"/>
      <point x="326.46000000000004" y="1011.88"/>
      <point x="305.3" y="1026.8"/>
      <point x="273.46000000000004" y="1026.8" type="curve" smooth="yes"/>
      <point x="122.38" y="1026.8" type="line"/>
      <point x="122.38" y="-335.04" type="line"/>
    </contour>
    <contour>
      <point x="1066.18" y="520.96" type="curve" smooth="yes"/>
      <point x="1066.18" y="856.28"/>
      <point x="911.02" y="1045.92"/>
      <point x="686.66" y="1045.92" type="curve" smooth="yes"/>
      <point x="517.06" y="1045.92"/>
      <point x="403.34000000000003" y="955.48"/>
      <point x="312.22" y="831.76" type="curve"/>
      <point x="341.18" y="688.76" type="line"/>
      <point x="414.02" y="790.4"/>
      <point x="484.06" y="848.08"/>
      <point x="602.42" y="848.08" type="curve" smooth="yes"/>
      <point x="731.66" y="848.08"/>
      <point x="811.3" y="759.16"/>
      <point x="811.3" y="520.96" type="curve" smooth="yes"/>
      <point x="811.3" y="284.4"/>
      <point x="716.74" y="174.92000000000002"/>
      <point x="567.54" y="174.92000000000002" type="curve" smooth="yes"/>
      <point x="485.94" y="174.92000000000002"/>
      <point x="416.26" y="202.4"/>
      <point x="357.9" y="280.64" type="curve"/>
      <point x="318.9" y="141.0" type="line"/>
      <point x="394.46000000000004" y="46.88"/>
      <point x="478.38" y="-15.120000000000001"/>
      <point x="625.26" y="-15.120000000000001" type="curve" smooth="yes"/>
      <point x="893.66" y="-15.120000000000001"/>
      <point x="1066.18" y="215.12"/>
    </contour>
  </outline>
</glyph>
<glyph name="q" format="2">
  <advance width="1135"/>
  <unicode hex="0071"/>
  <anchor x="603.86" y="-421" name="bottom"/>
  <anchor x="612.18" y="1120" name="top"/>
  <outline>
    <contour>
      <point x="861.9" y="1026.8" type="line" smooth="yes" name="n00"/>
      <point x="830.06" y="1026.8"/>
      <point x="808.9" y="1011.88"/>
      <point x="799.54" y="981.16" type="curve"/>
      <point x="773.7" y="868.84" type="line"/>
      <point x="765.9" y="855.48" type="line" name="n05"/>
      <point x="765.9" y="-335.04" type="line" name="n06"/>
      <point x="1012.98" y="-335.04" type="line"/>
      <point x="1012.98" y="1026.8" type="line"/>
    </contour>
    <contour>
      <point x="816.46" y="889.8" type="line" name="n09"/>
      <point x="740.9" y="983.92"/>
      <point x="656.98" y="1045.92"/>
      <point x="510.1" y="1045.92" type="curve" smooth="yes" name="n12"/>
      <point x="241.7" y="1045.92"/>
      <point x="69.18" y="815.68"/>
      <point x="69.18" y="509.84" type="curve" smooth="yes" name="n15"/>
      <point x="69.18" y="174.52"/>
      <point x="224.34" y="-15.12"/>
      <point x="448.7" y="-15.12" type="curve" smooth="yes" name="n18"/>
      <point x="618.3" y="-15.12"/>
      <point x="732.02" y="75.32"/>
      <point x="823.14" y="199.04" type="curve"/>
      <point x="794.18" y="342.04" type="line"/>
      <point x="721.34" y="240.4"/>
      <point x="651.3" y="182.72"/>
      <point x="532.94" y="182.72" type="curve" smooth="yes" name="n25"/>
      <point x="403.7" y="182.72"/>
      <point x="324.06" y="271.64"/>
      <point x="324.06" y="509.84" type="curve" smooth="yes" name="n28"/>
      <point x="324.06" y="746.4"/>
      <point x="418.62" y="855.88"/>
      <point x="567.82" y="855.88" type="curve" smooth="yes" name="n31"/>
      <point x="649.42" y="855.88"/>
      <point x="720.64" y="827.08"/>
      <point x="777.46" y="750.16" type="curve"/>
    </contour>
  </outline>
</glyph>
<glyph name="r" format="2">
  <advance width="746.5"/>
  <unicode hex="0072"/>
  <anchor x="421.9" y="1120.0" name="top"/>
  <anchor x="249.82" y="-70.0" name="bottom"/>
  <anchor x="369.46000000000004" y="177.56" name="hook"/>
  <anchor x="251.38" y="485.98" name="bar"/>
  <outline>
    <contour>
      <point x="739.02" y="1014.56" type="line"/>
      <point x="710.14" y="1035.46"/>
      <point x="670.82" y="1045.92"/>
      <point x="625.02" y="1045.92" type="curve" smooth="yes"/>
      <point x="455.98" y="1045.92"/>
      <point x="352.86" y="894.08"/>
      <point x="283.7" y="672.76" type="curve"/>
      <point x="336.5" y="538.0" type="line"/>
      <point x="388.24" y="702.6800000000001"/>
      <point x="442.8" y="803.96"/>
      <point x="580.56" y="803.96" type="curve" smooth="yes"/>
      <point x="618.16" y="803.96"/>
      <point x="662.66" y="794.2"/>
      <point x="682.9" y="794.2" type="curve" smooth="yes"/>
      <point x="704.5" y="794.2"/>
      <point x="717.42" y="802.88"/>
      <point x="722.54" y="827.16" type="curve" smooth="yes"/>
    </contour>
    <contour>
      <point x="369.46000000000004" y="0.0" type="line"/>
      <point x="369.46000000000004" y="777.44" type="line"/>
      <point x="361.65999999999997" y="790.8" type="line"/>
      <point x="340.5" y="964.0" type="line"/>
      <point x="332.70000000000005" y="1010.32"/>
      <point x="317.78" y="1026.8"/>
      <point x="267.22" y="1026.8" type="curve" smooth="yes"/>
      <point x="122.38" y="1026.8" type="line"/>
      <point x="122.38" y="0.0" type="line"/>
    </contour>
  </outline>
</glyph>
<glyph name="s" format="2">
  <advance width="879"/>
  <unicode hex="0073"/>
  <anchor x="424.02" y="-70" name="bottom"/>
  <anchor x="763.56" y="177.56" name="hook"/>
  <anchor x="455.4" y="1120" name="top"/>
  <outline>
    <contour>
      <point x="803.86" y="915.6" type="line"/>
      <point x="727.42" y="991.4"/>
      <point x="606.86" y="1042.8"/>
      <point x="465.66" y="1042.8" type="curve" smooth="yes" name="n03"/>
      <point x="212.78" y="1042.8"/>
      <point x="79.42" y="896.72"/>
      <point x="79.42" y="729.28" type="curve" smooth="yes" name="n06"/>
      <point x="79.42" y="363.12"/>
      <point x="584.1" y="471.04"/>
      <point x="584.1" y="281.36" type="curve" smooth="yes" name="n09"/>
      <point x="584.1" y="217.6"/>
      <point x="534.26" y="158.44"/>
      <point x="417.14" y="158.44" type="curve" smooth="yes" name="n12"/>
      <point x="268.82" y="158.44"/>
      <point x="230.68" y="240.36"/>
      <point x="169.68" y="240.36" type="curve" smooth="yes"/>
      <point x="138.72" y="240.36"/>
      <point x="119.56" y="227.44"/>
      <point x="106.2" y="204.72" type="curve" smooth="yes"/>
      <point x="48.72" y="109.8" type="line"/>
      <point x="128.72" y="37.8"/>
      <point x="264.66" y="-16"/>
      <point x="404.66" y="-16" type="curve" smooth="yes" name="n22"/>
      <point x="670.62" y="-16"/>
      <point x="815.14" y="128.04"/>
      <point x="815.14" y="325.48" type="curve" smooth="yes" name="n25"/>
      <point x="815.14" y="657.52"/>
      <point x="313.58" y="573.64"/>
      <point x="313.58" y="749.56" type="curve" smooth="yes" name="n28"/>
      <point x="313.58" y="814.96"/>
      <point x="372.98" y="860.56"/>
      <point x="470.34" y="860.56" type="curve" smooth="yes" name="n31"/>
      <point x="594.86" y="860.56"/>
      <point x="649.74" y="795.96"/>
      <point x="699.38" y="795.96" type="curve" smooth="yes"/>
      <point x="722.1" y="795.96"/>
      <point x="735.46" y="804.2"/>
      <point x="748.38" y="825.36" type="curve" smooth="yes"/>
    </contour>
  </outline>
</glyph>
<glyph name="t" format="2">
  <advance width="743.58"/>
  <unicode hex="0074"/>
  <anchor x="457.54" y="-70.0" name="bottom"/>
  <anchor x="419.3" y="721.84" name="Slash"/>
  <anchor x="312.84000000000003" y="485.98" name="bar"/>
  <anchor x="344.6" y="1444.46" name="top"/>
  <outline>
    <contour>
      <point x="186.74" y="954.52" type="line"/>
      <point x="186.74" y="268.68" type="line" smooth="yes"/>
      <point x="186.74" y="91.92"/>
      <point x="286.38" y="-16.0"/>
      <point x="464.34000000000003" y="-16.0" type="curve" smooth="yes"/>
      <point x="563.74" y="-16.0"/>
      <point x="662.02" y="16.2"/>
      <point x="733.22" y="74.88" type="curve"/>
      <point x="659.02" y="195.88" type="line" smooth="yes"/>
      <point x="649.22" y="211.92000000000002"/>
      <point x="640.98" y="218.6"/>
      <point x="626.06" y="218.6" type="curve" smooth="yes"/>
      <point x="602.26" y="218.6"/>
      <point x="582.58" y="184.96"/>
      <point x="522.06" y="184.96" type="curve" smooth="yes"/>
      <point x="468.38" y="184.96"/>
      <point x="433.82" y="222.48000000000002"/>
      <point x="433.82" y="285.84000000000003" type="curve" smooth="yes"/>
      <point x="433.82" y="1339.76" type="line"/>
      <point x="306.14" y="1339.76" type="line" smooth="yes"/>
      <point x="276.74" y="1339.76"/>
      <point x="257.14" y="1323.96"/>
      <point x="250.9" y="1297.68" type="curve"/>
    </contour>
    <contour>
      <point x="266.02" y="1017.56" type="line"/>
      <point x="231.74" y="1025.36" type="line"/>
      <point x="34.14" y="991.72" type="line"/>
      <point x="34.14" y="892.12" type="line" smooth="yes"/>
      <point x="34.14" y="858.04"/>
      <point x="55.74" y="840.0"/>
      <point x="82.46" y="840.0" type="curve" smooth="yes"/>
      <point x="707.76" y="840.0" type="line"/>
      <point x="707.76" y="1017.56" type="line"/>
    </contour>
  </outline>
</glyph>
<glyph name="u" format="2">
  <advance width="1127.9"/>
  <unicode hex="0075"/>
  <anchor x="564.5" y="1120.0" name="top"/>
  <anchor x="1005.96" y="177.56" name="hook"/>
  <anchor x="601.64" y="-70.0" name="bottom"/>
  <outline>
    <contour>
      <point x="758.88" y="1026.8" type="line"/>
      <point x="758.88" y="182.76" type="line"/>
      <point x="766.68" y="169.4" type="line"/>
      <point x="792.52" y="45.64" type="line"/>
      <point x="801.88" y="14.92"/>
      <point x="823.04" y="0.0"/>
      <point x="854.88" y="0.0" type="curve" smooth="yes"/>
      <point x="1005.96" y="0.0" type="line"/>
      <point x="1005.96" y="1026.8" type="line"/>
    </contour>
    <contour>
      <point x="112.16" y="1026.8" type="line"/>
      <point x="112.16" y="373.84" type="line"/>
      <point x="359.24" y="373.84" type="line"/>
      <point x="359.24" y="1026.8" type="line"/>
    </contour>
    <contour>
      <point x="112.16" y="373.84" type="line"/>
      <point x="112.16" y="144.96"/>
      <point x="233.76" y="-16.0"/>
      <point x="458.0" y="-16.0" type="curve" smooth="yes"/>
      <point x="628.92" y="-16.0"/>
      <point x="735.04" y="73.32"/>
      <point x="834.84" y="192.36" type="curve"/>
      <point x="805.88" y="338.04" type="line"/>
      <point x="729.72" y="242.64000000000001"/>
      <point x="638.96" y="178.72"/>
      <point x="532.88" y="178.72" type="curve" smooth="yes"/>
      <point x="417.8" y="178.72"/>
      <point x="359.24" y="251.0"/>
      <point x="359.24" y="373.84" type="curve"/>
    </contour>
  </outline>
</glyph>
<glyph name="v" format="2">
  <advance width="1056"/>
  <unicode hex="0076"/>
  <anchor x="528" y="-70" name="bottom"/>
  <anchor x="709.58" y="177.56" name="hook"/>
  <anchor x="528" y="1120" name="top"/>
  <outline>
    <contour>
      <point x="416.04" y="0" type="line" name="n00"/>
      <point x="568.88" y="0" type="line"/>
      <point x="549.72" y="151.92"/>
      <point x="531.24" y="287.8"/>
      <point x="482.24" y="436.16" type="curve"/>
      <point x="284.12" y="980.04" type="line"/>
      <point x="275.88" y="1006.32"/>
      <point x="249.6" y="1026.8" name="n07"/>
      <point x="213.08" y="1026.8" type="curve" smooth="yes"/>
      <point x="8.76" y="1026.8" type="line"/>
    </contour>
    <contour>
      <point x="1047.24" y="1026.8" type="line"/>
      <point x="852.28" y="1026.8" type="line" smooth="yes"/>
      <point x="819.32" y="1026.8"/>
      <point x="793.04" y="1006.76"/>
      <point x="784.36" y="980.04" type="curve"/>
      <point x="581.56" y="436.16" type="line"/>
      <point x="531" y="286.24"/>
      <point x="510.96" y="151.92"/>
      <point x="493.36" y="0" type="curve"/>
      <point x="639.96" y="0" type="line"/>
    </contour>
  </outline>
</glyph>
<glyph name="w" format="2">
  <advance width="1605"/>
  <unicode hex="0077"/>
  <anchor x="802.38" y="-70" name="bottom"/>
  <anchor x="804.04" y="1120" name="top"/>
  <outline>
    <contour>
      <point x="343.28" y="0" type="line" name="n00"/>
      <point x="532.68" y="0" type="line" smooth="yes"/>
      <point x="560.08" y="0"/>
      <point x="578.12" y="14.92"/>
      <point x="586.36" y="44.32" type="curve"/>
      <point x="773.32" y="631.84" type="line"/>
      <point x="804.28" y="733.64"/>
      <point x="817.64" y="835"/>
      <point x="827.44" y="936.8" type="curve"/>
      <point x="777.76" y="936.8" type="line"/>
      <point x="787.56" y="835"/>
      <point x="800.92" y="735.2"/>
      <point x="831.88" y="633.4" type="curve"/>
      <point x="1016.4" y="44.32" type="line"/>
      <point x="1024.64" y="13.36"/>
      <point x="1041.12" y="0"/>
      <point x="1062.72" y="0" type="curve" smooth="yes"/>
      <point x="1261.48" y="0" type="line"/>
      <point x="1586.56" y="1026.8" type="line" name="n18"/>
      <point x="1399.4" y="1026.8" type="line" smooth="yes"/>
      <point x="1366.44" y="1026.8"/>
      <point x="1340.16" y="1006.76"/>
      <point x="1331.48" y="980.04" type="curve"/>
      <point x="1179.68" y="436.16" type="line"/>
      <point x="1140.48" y="283.12"/>
      <point x="1124.68" y="152.8"/>
      <point x="1114.88" y="0.88" type="curve"/>
      <point x="1182.16" y="0.44" type="line"/>
      <point x="1173.92" y="152.36"/>
      <point x="1138.28" y="286.24"/>
      <point x="1095.96" y="436.16" type="curve"/>
      <point x="931.04" y="982.24" type="line" smooth="yes"/>
      <point x="922.8" y="1008.52"/>
      <point x="897.4" y="1028.12" name="n33"/>
      <point x="861.76" y="1028.12" type="curve" smooth="yes"/>
      <point x="752.8" y="1028.12" type="line" smooth="yes"/>
      <point x="720.28" y="1028.12"/>
      <point x="694.88" y="1008.52"/>
      <point x="686.64" y="982.24" type="curve" smooth="yes"/>
      <point x="516.6" y="436.16" type="line"/>
      <point x="471.16" y="284.68"/>
      <point x="435.52" y="152.8"/>
      <point x="417.92" y="0.88" type="curve"/>
      <point x="495.68" y="0.88" type="line"/>
      <point x="484.32" y="152.8"/>
      <point x="468.96" y="284.68"/>
      <point x="432.88" y="436.16" type="curve"/>
      <point x="285.76" y="980.04" type="line"/>
      <point x="277.52" y="1006.32"/>
      <point x="251.24" y="1026.8"/>
      <point x="214.72" y="1026.8" type="curve" smooth="yes"/>
      <point x="18.2" y="1026.8" type="line"/>
    </contour>
  </outline>
</glyph>
<glyph name="z" format="2">
  <advance width="918.8"/>
  <unicode hex="007A"/>
  <anchor x="482.52" y="1120.0" name="top"/>
  <anchor x="457.38" y="-70.0" name="bottom"/>
  <anchor x="779.62" y="177.56" name="hook"/>
  <outline>
    <contour>
      <point x="858.84" y="1026.8" type="line"/>
      <point x="81.03999999999999" y="1026.8" type="line"/>
      <point x="81.03999999999999" y="835.2" type="line"/>
      <point x="639.16" y="835.2" type="line"/>
      <point x="592.16" y="856.8" type="line"/>
      <point x="84.24" y="190.04" type="line"/>
      <point x="63.08" y="162.20000000000002"/>
      <point x="51.72" y="125.88000000000001"/>
      <point x="51.72" y="104.28" type="curve" smooth="yes"/>
      <point x="51.72" y="0.0" type="line"/>
      <point x="844.44" y="0.0" type="line"/>
      <point x="844.44" y="191.6" type="line"/>
      <point x="283.88" y="191.6" type="line"/>
      <point x="318.4" y="164.88" type="line"/>
      <point x="826.32" y="830.08" type="line"/>
      <point x="845.92" y="851.68"/>
      <point x="858.84" y="888.0"/>
      <point x="858.84" y="923.2" type="curve" smooth="yes"/>
    </contour>
  </outline>
</glyph>
<glyph name="braceleft" format="2">
  <advance width="611.98"/>
  <unicode hex="007B"/>
  <guideline y="630.0"/>
  <outline>
    <contour>
      <point x="177.07999999999998" y="829.2" type="curve" smooth="yes"/>
      <point x="177.07999999999998" y="748.12"/>
      <point x="140.51999999999998" y="691.48"/>
      <point x="56.56" y="691.48" type="curve"/>
      <point x="56.56" y="546.68" type="line"/>
      <point x="160.12" y="609.28" type="line"/>
      <point x="298.32" y="609.28"/>
      <point x="386.28" y="710.52"/>
      <point x="386.28" y="832.32" type="curve" smooth="yes"/>
      <point x="386.28" y="957.36"/>
      <point x="349.48" y="1074.84"/>
      <point x="349.48" y="1222.16" type="curve" smooth="yes"/>
      <point x="349.48" y="1322.92"/>
      <point x="399.8" y="1385.72"/>
      <point x="492.6" y="1385.72" type="curve" smooth="yes"/>
      <point x="502.28" y="1385.72" type="line" smooth="yes"/>
      <point x="521.2" y="1385.72"/>
      <point x="554.84" y="1400.64"/>
      <point x="554.84" y="1436.28" type="curve" smooth="yes"/>
      <point x="554.84" y="1547.24" type="line"/>
      <point x="501.96" y="1547.24" type="line" smooth="yes"/>
      <point x="250.76" y="1547.24"/>
      <point x="134.04" y="1409.84"/>
      <point x="134.04" y="1206.56" type="curve" smooth="yes"/>
      <point x="134.04" y="1076.64"/>
      <point x="177.07999999999998" y="954.0"/>
    </contour>
    <contour>
      <point x="177.07999999999998" y="408.96" type="curve" smooth="yes"/>
      <point x="177.07999999999998" y="284.16"/>
      <point x="134.04" y="161.52"/>
      <point x="134.04" y="31.6" type="curve" smooth="yes"/>
      <point x="134.04" y="-171.68"/>
      <point x="250.76" y="-309.08"/>
      <point x="501.96" y="-309.08" type="curve" smooth="yes"/>
      <point x="554.84" y="-309.08" type="line"/>
      <point x="554.84" y="-198.12" type="line" smooth="yes"/>
      <point x="554.84" y="-162.48000000000002"/>
      <point x="521.2" y="-147.56"/>
      <point x="502.28" y="-147.56" type="curve" smooth="yes"/>
      <point x="492.6" y="-147.56" type="line" smooth="yes"/>
      <point x="399.8" y="-147.56"/>
      <point x="349.48" y="-84.75999999999999"/>
      <point x="349.48" y="16.0" type="curve" smooth="yes"/>
      <point x="349.48" y="163.32"/>
      <point x="386.28" y="280.8"/>
      <point x="386.28" y="405.84" type="curve" smooth="yes"/>
      <point x="386.28" y="527.64"/>
      <point x="298.32" y="628.88"/>
      <point x="160.12" y="628.88" type="curve"/>
      <point x="56.56" y="691.48" type="line"/>
      <point x="56.56" y="546.68" type="line"/>
      <point x="140.51999999999998" y="546.68"/>
      <point x="177.07999999999998" y="490.04"/>
    </contour>
  </outline>
</glyph>
<glyph name="bar" format="2">
  <advance width="521.52"/>
  <unicode hex="007C"/>
  <outline>
    <contour>
      <point x="164.96" y="-343.84" type="line"/>
      <point x="356.56" y="-343.84" type="line"/>
      <point x="356.56" y="1547.24" type="line"/>
      <point x="164.96" y="1547.24" type="line"/>
    </contour>
  </outline>
</glyph>
<glyph name="braceright" format="2">
  <advance width="612"/>
  <unicode hex="007D"/>
  <outline>
    <contour>
      <point x="434.9" y="829.2" type="curve" smooth="yes" name="n00"/>
      <point x="434.9" y="954"/>
      <point x="477.94" y="1076.64"/>
      <point x="477.94" y="1206.56" type="curve" smooth="yes" name="n03"/>
      <point x="477.94" y="1409.84"/>
      <point x="361.22" y="1547.24"/>
      <point x="110.02" y="1547.24" type="curve" smooth="yes" name="n06"/>
      <point x="57.14" y="1547.24" type="line"/>
      <point x="57.14" y="1436.28" type="line" smooth="yes"/>
      <point x="57.14" y="1400.64"/>
      <point x="90.78" y="1385.72"/>
      <point x="109.7" y="1385.72" type="curve" smooth="yes"/>
      <point x="119.38" y="1385.72" type="line" smooth="yes" name="n12"/>
      <point x="212.18" y="1385.72"/>
      <point x="262.5" y="1322.92"/>
      <point x="262.5" y="1222.16" type="curve" smooth="yes" name="n15"/>
      <point x="262.5" y="1074.84"/>
      <point x="225.7" y="957.36"/>
      <point x="225.7" y="832.32" type="curve" smooth="yes" name="n18"/>
      <point x="225.7" y="710.52"/>
      <point x="313.66" y="609.28"/>
      <point x="451.86" y="609.28" type="curve"/>
      <point x="555.42" y="546.68" type="line"/>
      <point x="555.42" y="691.48" type="line"/>
      <point x="471.46" y="691.48"/>
      <point x="434.9" y="748.12"/>
    </contour>
    <contour>
      <point x="434.9" y="408.96" type="curve" smooth="yes"/>
      <point x="434.9" y="490.04"/>
      <point x="471.46" y="546.68"/>
      <point x="555.42" y="546.68" type="curve"/>
      <point x="555.42" y="691.48" type="line"/>
      <point x="451.86" y="628.88" type="line"/>
      <point x="313.66" y="628.88"/>
      <point x="225.7" y="527.64"/>
      <point x="225.7" y="405.84" type="curve" smooth="yes"/>
      <point x="225.7" y="280.8"/>
      <point x="262.5" y="163.32"/>
      <point x="262.5" y="16" type="curve" smooth="yes"/>
      <point x="262.5" y="-84.76"/>
      <point x="212.18" y="-147.56"/>
      <point x="119.38" y="-147.56" type="curve" smooth="yes" name="n40"/>
      <point x="109.7" y="-147.56" type="line" smooth="yes"/>
      <point x="90.78" y="-147.56"/>
      <point x="57.14" y="-162.48"/>
      <point x="57.14" y="-198.12" type="curve" smooth="yes"/>
      <point x="57.14" y="-309.08" type="line"/>
      <point x="110.02" y="-309.08" type="line" smooth="yes" name="n46"/>
      <point x="361.22" y="-309.08"/>
      <point x="477.94" y="-171.68"/>
      <point x="477.94" y="31.6" type="curve" smooth="yes"/>
      <point x="477.94" y="161.52"/>
      <point x="434.9" y="284.16"/>
    </contour>
  </outline>
  <guideline angle="0" x="0" y="630"/>
</glyph>
<glyph name="asciitilde" format="2">
  <advance width="1160.0"/>
  <unicode hex="007E"/>
  <outline>
    <contour>
      <point x="747.52" y="649.6800000000001" type="curve"/>
      <point x="663.2" y="649.6800000000001"/>
      <point x="543.56" y="737.52"/>
      <point x="402.88" y="737.52" type="curve"/>
      <point x="212.04" y="737.52"/>
      <point x="100.6" y="603.88"/>
      <point x="100.6" y="397.4" type="curve"/>
      <point x="300.0" y="397.4" type="line"/>
      <point x="300.44" y="482.88"/>
      <point x="343.92" y="533.44"/>
      <point x="418.48" y="533.44" type="curve" smooth="yes"/>
      <point x="502.8" y="533.44"/>
      <point x="622.44" y="445.6"/>
      <point x="763.12" y="445.6" type="curve"/>
      <point x="953.96" y="445.6"/>
      <point x="1065.4" y="579.24"/>
      <point x="1065.4" y="785.72" type="curve"/>
      <point x="866.0" y="785.72" type="line"/>
      <point x="865.56" y="700.24"/>
      <point x="822.08" y="649.6800000000001"/>
    </contour>
  </outline>
</glyph>
<glyph name="exclamdown" format="2">
  <advance width="540"/>
  <unicode hex="00A1"/>
  <outline>
    <contour>
      <point x="387.46" y="-335.04" type="line" name="n00"/>
      <point x="387.46" y="198" type="line" smooth="yes"/>
      <point x="387.46" y="319.12"/>
      <point x="374.54" y="432.56"/>
      <point x="354.94" y="562.48" type="curve" name="n04"/>
      <point x="187.62" y="562.48" type="line"/>
      <point x="168.02" y="432.56"/>
      <point x="155.1" y="319.12"/>
      <point x="155.1" y="198" type="curve" smooth="yes" name="n08"/>
      <point x="155.1" y="-335.04" type="line"/>
    </contour>
    <contour>
      <point x="116.7" y="891.44" type="curve" smooth="yes" name="n10"/>
      <point x="116.7" y="807.08"/>
      <point x="182.14" y="739.64"/>
      <point x="268.06" y="739.64" type="curve" smooth="yes" name="n13"/>
      <point x="352.42" y="739.64"/>
      <point x="419.86" y="807.08"/>
      <point x="419.86" y="891.44" type="curve" smooth="yes" name="n16"/>
      <point x="419.86" y="977.36"/>
      <point x="352.42" y="1042.8"/>
      <point x="268.06" y="1042.8" type="curve" smooth="yes" name="n19"/>
      <point x="182.14" y="1042.8"/>
      <point x="116.7" y="977.36"/>
    </contour>
  </outline>
  <guideline angle="90" x="342" y="0"/>
</glyph>
<glyph name="cent" format="2">
  <advance width="1160.0"/>
  <unicode hex="00A2"/>
  <outline>
    <contour>
      <point x="1037.44" y="898.68" type="line"/>
      <point x="940.48" y="989.88"/>
      <point x="818.2" y="1041.24"/>
      <point x="655.44" y="1041.24" type="curve" smooth="yes"/>
      <point x="309.52" y="1041.24"/>
      <point x="118.36" y="814.28"/>
      <point x="118.36" y="513.4" type="curve" smooth="yes"/>
      <point x="118.36" y="178.68"/>
      <point x="341.16" y="-15.120000000000001"/>
      <point x="618.72" y="-15.120000000000001" type="curve" smooth="yes"/>
      <point x="778.92" y="-15.120000000000001"/>
      <point x="940.12" y="25.240000000000002"/>
      <point x="1049.2" y="151.88" type="curve"/>
      <point x="981.24" y="240.12" type="line" smooth="yes"/>
      <point x="971.44" y="253.04"/>
      <point x="955.4" y="261.28"/>
      <point x="935.8" y="261.28" type="curve" smooth="yes"/>
      <point x="876.12" y="261.28"/>
      <point x="836.24" y="171.8"/>
      <point x="654.6" y="171.8" type="curve" smooth="yes"/>
      <point x="471.48" y="171.8"/>
      <point x="362.32" y="292.76"/>
      <point x="362.32" y="513.4" type="curve" smooth="yes"/>
      <point x="362.32" y="727.16"/>
      <point x="459.68" y="854.3199999999999"/>
      <point x="663.24" y="854.3199999999999" type="curve" smooth="yes"/>
      <point x="819.12" y="854.3199999999999"/>
      <point x="874.84" y="782.6"/>
      <point x="923.6" y="782.6" type="curve" smooth="yes"/>
      <point x="949.44" y="782.6"/>
      <point x="960.8" y="792.4"/>
      <point x="973.72" y="811.56" type="curve" smooth="yes"/>
    </contour>
    <contour>
      <point x="516.72" y="-221.2" type="line"/>
      <point x="607.84" y="-221.2" type="line" smooth="yes"/>
      <point x="645.48" y="-221.2"/>
      <point x="671.32" y="-190.24"/>
      <point x="674.44" y="-158.39999999999998" type="curve"/>
      <point x="796.2" y="1259.16" type="line"/>
      <point x="705.08" y="1259.16" type="line" smooth="yes"/>
      <point x="667.44" y="1259.16"/>
      <point x="641.6" y="1228.2"/>
      <point x="638.48" y="1196.36" type="curve"/>
    </contour>
  </outline>
</glyph>
<glyph name="sterling" format="2">
  <advance width="1160"/>
  <unicode hex="00A3"/>
  <outline>
    <contour>
      <point x="1121.54" y="212.32" type="line"/>
      <point x="535.94" y="212.32" type="line" smooth="yes"/>
      <point x="416.58" y="212.32"/>
      <point x="303.22" y="176.44"/>
      <point x="190.78" y="131.44" type="curve"/>
      <point x="56.66" y="156.16" type="line" name="n05"/>
      <point x="56.66" y="0" type="line" name="n06"/>
      <point x="1015.5" y="0" type="line" smooth="yes"/>
      <point x="1079.66" y="0"/>
      <point x="1121.54" y="57.48"/>
      <point x="1121.54" y="107.16" type="curve" smooth="yes"/>
    </contour>
    <contour>
      <point x="270.78" y="100.48" type="line"/>
      <point x="392.58" y="181.68"/>
      <point x="480.62" y="268.8"/>
      <point x="480.62" y="407" type="curve" smooth="yes"/>
      <point x="480.62" y="999.36" type="line" smooth="yes" name="n15"/>
      <point x="480.62" y="1157.36"/>
      <point x="548.9" y="1252.04"/>
      <point x="685.94" y="1252.04" type="curve" smooth="yes" name="n18"/>
      <point x="773.86" y="1252.04"/>
      <point x="817.34" y="1213.32"/>
      <point x="867.78" y="1153.2" type="curve"/>
      <point x="903.42" y="1113.56"/>
      <point x="946.42" y="1113.12"/>
      <point x="991.86" y="1136.96" type="curve"/>
      <point x="1090.78" y="1201.36" type="line"/>
      <point x="1020.06" y="1347.88"/>
      <point x="897.98" y="1462.36"/>
      <point x="685.94" y="1462.36" type="curve" smooth="yes" name="n28"/>
      <point x="376.9" y="1462.36"/>
      <point x="227.3" y="1250.04"/>
      <point x="227.3" y="997.8" type="curve" smooth="yes" name="n31"/>
      <point x="227.3" y="339.92" type="line" smooth="yes"/>
      <point x="227.3" y="231.16"/>
      <point x="145.98" y="177.88"/>
      <point x="56.66" y="156.16" type="curve"/>
    </contour>
    <contour>
      <point x="36.9" y="599.64" type="line"/>
      <point x="819.94" y="599.64" type="line" smooth="yes" name="n37"/>
      <point x="860.26" y="599.64"/>
      <point x="889.66" y="631.72"/>
      <point x="889.66" y="664.24" type="curve" smooth="yes"/>
      <point x="889.66" y="763.16" type="line" name="n41"/>
      <point x="119.54" y="763.16" type="line" smooth="yes"/>
      <point x="65.18" y="763.16"/>
      <point x="36.9" y="724.84"/>
      <point x="36.9" y="679.4" type="curve" smooth="yes"/>
    </contour>
  </outline>
</glyph>
<glyph name="currency" format="2">
  <advance width="1160.0"/>
  <unicode hex="00A4"/>
  <outline>
    <contour>
      <point x="211.0" y="673.12" type="curve" smooth="yes"/>
      <point x="211.0" y="467.72"/>
      <point x="374.6" y="304.12"/>
      <point x="580.0" y="304.12" type="curve" smooth="yes"/>
      <point x="784.28" y="304.12"/>
      <point x="949.44" y="467.72"/>
      <point x="949.44" y="673.12" type="curve" smooth="yes"/>
      <point x="949.44" y="878.96"/>
      <point x="784.28" y="1042.56"/>
      <point x="580.0" y="1042.56" type="curve" smooth="yes"/>
      <point x="374.6" y="1042.56"/>
      <point x="211.0" y="878.96"/>
    </contour>
    <contour>
      <point x="393.24" y="673.12" type="curve"/>
      <point x="393.24" y="778.04"/>
      <point x="477.08" y="861.88"/>
      <point x="580.0" y="861.88" type="curve" smooth="yes"/>
      <point x="684.92" y="861.88"/>
      <point x="768.76" y="778.04"/>
      <point x="768.76" y="673.12" type="curve" smooth="yes"/>
      <point x="768.76" y="571.76"/>
      <point x="684.92" y="486.36"/>
      <point x="580.0" y="486.36" type="curve" smooth="yes"/>
      <point x="477.08" y="486.36"/>
      <point x="393.24" y="571.76"/>
    </contour>
    <contour>
      <point x="322.6" y="802.64" type="line"/>
      <point x="447.36" y="925.84" type="line"/>
      <point x="235.0" y="1138.2" type="line"/>
      <point x="110.24" y="1015.0" type="line"/>
    </contour>
    <contour>
      <point x="709.52" y="930.52" type="line"/>
      <point x="832.72" y="805.76" type="line"/>
      <point x="1045.08" y="1018.12" type="line"/>
      <point x="921.88" y="1142.88" type="line"/>
    </contour>
    <contour>
      <point x="452.04" y="415.72" type="line"/>
      <point x="327.28" y="540.48" type="line"/>
      <point x="114.92" y="328.12" type="line"/>
      <point x="238.12" y="203.36" type="line"/>
    </contour>
    <contour>
      <point x="837.4" y="545.16" type="line"/>
      <point x="712.64" y="420.4" type="line"/>
      <point x="925.0" y="208.04" type="line"/>
      <point x="1049.76" y="332.8" type="line"/>
    </contour>
  </outline>
</glyph>
<glyph name="yen" format="2">
  <advance width="1160"/>
  <unicode hex="00A5"/>
  <outline>
    <contour>
      <point x="1145.54" y="1446.8" type="line" name="n00"/>
      <point x="938.34" y="1446.8" type="line" smooth="yes"/>
      <point x="893.34" y="1446.8"/>
      <point x="862.82" y="1416.72"/>
      <point x="849.46" y="1385.76" type="curve" smooth="yes"/>
      <point x="632.22" y="900.96" type="line"/>
      <point x="578.98" y="767.96"/>
      <point x="566.3" y="679.96"/>
      <point x="560.3" y="538.96" type="curve"/>
      <point x="701.54" y="538.96" type="line"/>
    </contour>
    <contour>
      <point x="458.46" y="538.96" type="line"/>
      <point x="605.94" y="538.96" type="line"/>
      <point x="601.5" y="681.52"/>
      <point x="584.14" y="766.4"/>
      <point x="529.34" y="900.96" type="curve"/>
      <point x="310.54" y="1385.76" type="line"/>
      <point x="295.62" y="1422.96"/>
      <point x="266.66" y="1446.8"/>
      <point x="220.1" y="1446.8" type="curve" smooth="yes"/>
      <point x="14.46" y="1446.8" type="line"/>
    </contour>
    <contour>
      <point x="703.54" y="609.56" type="line" name="n20"/>
      <point x="456.46" y="609.56" type="line" name="n21"/>
      <point x="456.46" y="0" type="line" name="n22"/>
      <point x="703.54" y="0" type="line"/>
    </contour>
    <contour>
      <point x="137.1" y="260.6" type="line" name="n24"/>
      <point x="1022.9" y="260.6" type="line"/>
      <point x="1022.9" y="399.16" type="line"/>
      <point x="137.1" y="399.16" type="line" name="n27"/>
    </contour>
    <contour>
      <point x="137.1" y="494.4" type="line" name="n28"/>
      <point x="1022.9" y="494.4" type="line"/>
      <point x="1022.9" y="632.96" type="line"/>
      <point x="137.1" y="632.96" type="line" name="n31"/>
    </contour>
  </outline>
</glyph>
<glyph name="brokenbar" format="2">
  <advance width="527.52"/>
  <unicode hex="00A6"/>
  <outline>
    <contour>
      <point x="167.96" y="738.44" type="line"/>
      <point x="359.56" y="738.44" type="line"/>
      <point x="359.56" y="1547.24" type="line"/>
      <point x="167.96" y="1547.24" type="line"/>
    </contour>
    <contour>
      <point x="167.96" y="-335.04" type="line"/>
      <point x="359.56" y="-335.04" type="line"/>
      <point x="359.56" y="473.76" type="line"/>
      <point x="167.96" y="473.76" type="line"/>
    </contour>
  </outline>
</glyph>
<glyph name="section" format="2">
  <advance width="1007.38"/>
  <unicode hex="00A7"/>
  <outline>
    <contour>
      <point x="458.84000000000003" y="968.2" type="line"/>
      <point x="207.72" y="955.88"/>
      <point x="88.44" y="840.92"/>
      <point x="88.44" y="684.32" type="curve" smooth="yes"/>
      <point x="88.44" y="332.2"/>
      <point x="650.92" y="394.72"/>
      <point x="650.92" y="180.08" type="curve" smooth="yes"/>
      <point x="650.92" y="102.28"/>
      <point x="587.04" y="54.03999999999999"/>
      <point x="477.72" y="54.03999999999999" type="curve" smooth="yes"/>
      <point x="320.04" y="54.03999999999999"/>
      <point x="282.12" y="135.96"/>
      <point x="221.12" y="135.96" type="curve" smooth="yes"/>
      <point x="190.16" y="135.96"/>
      <point x="171.0" y="123.03999999999999"/>
      <point x="157.64" y="100.32000000000001" type="curve" smooth="yes"/>
      <point x="100.16" y="5.400000000000002" type="line"/>
      <point x="180.16" y="-66.6"/>
      <point x="315.88" y="-120.4"/>
      <point x="455.88" y="-120.4" type="curve" smooth="yes"/>
      <point x="721.84" y="-120.4"/>
      <point x="866.36" y="23.64"/>
      <point x="866.36" y="221.07999999999998" type="curve" smooth="yes"/>
      <point x="866.36" y="553.12"/>
      <point x="307.0" y="524.0"/>
      <point x="307.0" y="724.88" type="curve" smooth="yes"/>
      <point x="307.0" y="788.56"/>
      <point x="347.84000000000003" y="831.8"/>
      <point x="453.24" y="868.4" type="curve"/>
    </contour>
    <contour>
      <point x="875.96" y="1334.04" type="line"/>
      <point x="799.52" y="1409.84"/>
      <point x="678.96" y="1461.24"/>
      <point x="537.76" y="1461.24" type="curve" smooth="yes"/>
      <point x="284.88" y="1461.24"/>
      <point x="151.51999999999998" y="1315.16"/>
      <point x="151.51999999999998" y="1147.72" type="curve" smooth="yes"/>
      <point x="151.51999999999998" y="782.0"/>
      <point x="706.52" y="833.3199999999999"/>
      <point x="706.52" y="618.96" type="curve" smooth="yes"/>
      <point x="706.52" y="553.28"/>
      <point x="664.3199999999999" y="500.24"/>
      <point x="556.8" y="477.88" type="curve"/>
      <point x="543.16" y="374.96" type="line"/>
      <point x="811.84" y="385.52"/>
      <point x="921.96" y="513.88"/>
      <point x="921.96" y="675.56" type="curve" smooth="yes"/>
      <point x="921.96" y="995.96"/>
      <point x="370.08000000000004" y="992.08"/>
      <point x="370.08000000000004" y="1158.64" type="curve" smooth="yes"/>
      <point x="370.08000000000004" y="1225.6"/>
      <point x="431.04" y="1279.0"/>
      <point x="542.44" y="1279.0" type="curve" smooth="yes"/>
      <point x="666.96" y="1279.0"/>
      <point x="721.84" y="1214.4"/>
      <point x="771.48" y="1214.4" type="curve" smooth="yes"/>
      <point x="794.2" y="1214.4"/>
      <point x="807.56" y="1222.64"/>
      <point x="820.48" y="1243.8" type="curve"/>
    </contour>
  </outline>
</glyph>
<glyph name="dieresis" format="2">
  <advance width="800"/>
  <unicode hex="00A8"/>
  <anchor x="400" y="1120" name="_top"/>
  <anchor x="400" y="1444.46" name="top"/>
  <outline>
    <contour>
      <point x="335.68" y="1292.48" type="curve" smooth="yes"/>
      <point x="335.68" y="1369.28"/>
      <point x="271.8" y="1432.72"/>
      <point x="195.44" y="1432.72" type="curve" smooth="yes" name="n03"/>
      <point x="123.32" y="1432.72"/>
      <point x="59.88" y="1369.28"/>
      <point x="59.88" y="1292.48" type="curve" smooth="yes"/>
      <point x="59.88" y="1217.68"/>
      <point x="123.32" y="1157.36"/>
      <point x="195.44" y="1157.36" type="curve" smooth="yes" name="n09"/>
      <point x="271.8" y="1157.36"/>
      <point x="335.68" y="1217.68"/>
    </contour>
    <contour>
      <point x="740.12" y="1292.48" type="curve" smooth="yes"/>
      <point x="740.12" y="1369.28"/>
      <point x="677.8" y="1432.72"/>
      <point x="601.44" y="1432.72" type="curve" smooth="yes"/>
      <point x="526.2" y="1432.72"/>
      <point x="464.32" y="1369.28"/>
      <point x="464.32" y="1292.48" type="curve" smooth="yes"/>
      <point x="464.32" y="1217.68"/>
      <point x="526.2" y="1157.36"/>
      <point x="601.44" y="1157.36" type="curve" smooth="yes"/>
      <point x="677.8" y="1157.36"/>
      <point x="740.12" y="1217.68"/>
    </contour>
  </outline>
</glyph>
<glyph name="copyright" format="2">
  <advance width="1648"/>
  <unicode hex="00A9"/>
  <outline>
    <contour>
      <point x="1050.1" y="513.48" type="curve"/>
      <point x="991.5" y="498.08"/>
      <point x="969.66" y="447.6"/>
      <point x="837.94" y="447.6" type="curve" smooth="yes" name="n03"/>
      <point x="703.34" y="447.6"/>
      <point x="605.78" y="546.32"/>
      <point x="605.78" y="726.52" type="curve" smooth="yes" name="n06"/>
      <point x="605.78" y="898.04"/>
      <point x="698.66" y="1005.88"/>
      <point x="858.18" y="1005.88" type="curve" smooth="yes" name="n09"/>
      <point x="994.66" y="1005.88"/>
      <point x="1017.42" y="941.96"/>
      <point x="1063.06" y="941.96" type="curve" smooth="yes"/>
      <point x="1084.22" y="941.96"/>
      <point x="1097.58" y="956"/>
      <point x="1105.82" y="966.24" type="curve"/>
      <point x="1170.66" y="1056.48" type="line"/>
      <point x="1098.7" y="1133.84"/>
      <point x="994.18" y="1189.68"/>
      <point x="845.7" y="1189.68" type="curve" smooth="yes" name="n19"/>
      <point x="585.94" y="1189.68"/>
      <point x="386.78" y="997.2"/>
      <point x="386.78" y="726.52" type="curve" smooth="yes" name="n22"/>
      <point x="386.78" y="463.44"/>
      <point x="559.42" y="262.24"/>
      <point x="825.46" y="262.24" type="curve" smooth="yes" name="n25"/>
      <point x="978.34" y="262.24"/>
      <point x="1093.06" y="313.8"/>
      <point x="1166.82" y="408.76" type="curve"/>
      <point x="1084.62" y="496.76" type="line"/>
      <point x="1076.38" y="506.12"/>
      <point x="1063.46" y="513.92"/>
    </contour>
    <contour>
      <point x="85.86" y="723.4" type="curve" smooth="yes" name="n32"/>
      <point x="85.86" y="316.92"/>
      <point x="416.78" y="-14"/>
      <point x="823.26" y="-14" type="curve" smooth="yes" name="n35"/>
      <point x="1231.3" y="-14"/>
      <point x="1562.22" y="316.92"/>
      <point x="1562.22" y="723.4" type="curve" smooth="yes" name="n38"/>
      <point x="1562.22" y="1131.44"/>
      <point x="1231.3" y="1462.36"/>
      <point x="823.26" y="1462.36" type="curve" smooth="yes" name="n41"/>
      <point x="416.78" y="1462.36"/>
      <point x="85.86" y="1131.44"/>
    </contour>
    <contour>
      <point x="220.62" y="723.4" type="curve" smooth="yes" name="n44"/>
      <point x="220.62" y="1071.08"/>
      <point x="484.94" y="1346.76"/>
      <point x="823.26" y="1346.76" type="curve" smooth="yes" name="n47"/>
      <point x="1163.14" y="1346.76"/>
      <point x="1431.02" y="1071.08"/>
      <point x="1431.02" y="723.4" type="curve" smooth="yes" name="n50"/>
      <point x="1431.02" y="377.28"/>
      <point x="1163.14" y="105.16"/>
      <point x="823.26" y="105.16" type="curve" smooth="yes" name="n53"/>
      <point x="484.94" y="105.16"/>
      <point x="220.62" y="377.28"/>
    </contour>
  </outline>
</glyph>
<glyph name="ordfeminine" format="2">
  <advance width="734"/>
  <unicode hex="00AA"/>
  <anchor x="367.22" y="-70" name="bottom"/>
  <outline>
    <contour>
      <point x="622.28" y="1225.6" type="curve"/>
      <point x="622.28" y="1364.08"/>
      <point x="529.52" y="1466.6"/>
      <point x="378.56" y="1466.6" type="curve" smooth="yes" name="n03"/>
      <point x="274.72" y="1466.6"/>
      <point x="185.08" y="1436.6"/>
      <point x="111.48" y="1368.8" type="curve"/>
      <point x="142" y="1311.32" type="line"/>
      <point x="153.36" y="1295.28"/>
      <point x="169.4" y="1277.68"/>
      <point x="193.68" y="1277.68" type="curve" smooth="yes"/>
      <point x="248.68" y="1277.68"/>
      <point x="266.6" y="1323.36"/>
      <point x="356.72" y="1323.36" type="curve" smooth="yes" name="n13"/>
      <point x="416.12" y="1323.36"/>
      <point x="448.96" y="1296.36"/>
      <point x="448.96" y="1225.6" type="curve"/>
      <point x="448.96" y="1225.6"/>
      <point x="622.28" y="1225.6"/>
    </contour>
    <contour>
      <point x="622.28" y="841.12" type="line"/>
      <point x="622.28" y="1225.6" type="line"/>
      <point x="448.96" y="1225.6" type="line"/>
      <point x="448.96" y="966.96" type="line"/>
      <point x="479.48" y="877.64" type="line" name="n23"/>
      <point x="493.96" y="847.8"/>
      <point x="506.88" y="841.12"/>
      <point x="539.4" y="841.12" type="curve" smooth="yes"/>
    </contour>
    <contour>
      <point x="491.28" y="934.64" type="curve"/>
      <point x="491.28" y="934.64"/>
      <point x="471.24" y="1033.76"/>
      <point x="471.24" y="1033.76" type="curve" name="n30"/>
      <point x="421.72" y="980"/>
      <point x="383.36" y="955.64"/>
      <point x="323.28" y="955.64" type="curve" smooth="yes" name="n33"/>
      <point x="277.12" y="955.64"/>
      <point x="250.8" y="969.8"/>
      <point x="250.8" y="1011" type="curve" smooth="yes" name="n36"/>
      <point x="250.8" y="1054.64"/>
      <point x="297.92" y="1089.92"/>
      <point x="474.36" y="1091.68" type="curve" name="n39"/>
      <point x="450.96" y="1200.6" type="line" name="n40"/>
      <point x="162.04" y="1195.04"/>
      <point x="80.6" y="1090.72"/>
      <point x="80.6" y="1002.76" type="curve" smooth="yes" name="n43"/>
      <point x="80.6" y="892.96"/>
      <point x="156.36" y="832.68"/>
      <point x="266.68" y="832.68" type="curve" smooth="yes" name="n46"/>
      <point x="365.32" y="832.68"/>
      <point x="416.16" y="867.32"/>
    </contour>
  </outline>
</glyph>
<glyph name="logicalnot" format="2">
  <advance width="1160.0"/>
  <unicode hex="00AC"/>
  <outline>
    <contour>
      <point x="132.3" y="578.88" type="line"/>
      <point x="1018.54" y="578.88" type="line"/>
      <point x="1018.54" y="764.24" type="line"/>
      <point x="132.3" y="764.24" type="line"/>
    </contour>
    <contour>
      <point x="809.34" y="296.04" type="line"/>
      <point x="1018.54" y="296.04" type="line"/>
      <point x="1018.54" y="764.24" type="line"/>
      <point x="809.34" y="764.24" type="line"/>
    </contour>
  </outline>
</glyph>
<glyph name="registered" format="2">
  <advance width="1648"/>
  <unicode hex="00AE"/>
  <outline>
    <contour>
      <point x="766.66" y="601.32" type="line" smooth="yes"/>
      <point x="799.98" y="601.32"/>
      <point x="813.54" y="591.32"/>
      <point x="826.66" y="571.52" type="curve"/>
      <point x="971.02" y="310.12" type="line" smooth="yes"/>
      <point x="983.26" y="288.08"/>
      <point x="1004.42" y="277.16"/>
      <point x="1033.82" y="277.16" type="curve" smooth="yes"/>
      <point x="1239.46" y="277.16" type="line"/>
      <point x="1058.34" y="583.12" type="line"/>
      <point x="1023.86" y="649.68"/>
      <point x="984.02" y="685.76"/>
      <point x="881.18" y="685.76" type="curve"/>
      <point x="795.34" y="640.32" type="line"/>
      <point x="831.62" y="640.32" type="line" smooth="yes" name="n14"/>
      <point x="1071.58" y="640.32"/>
      <point x="1179.54" y="756.84"/>
      <point x="1179.54" y="915.32" type="curve" smooth="yes" name="n17"/>
      <point x="1179.54" y="1082.48"/>
      <point x="1067.74" y="1174.32"/>
      <point x="818.66" y="1174.32" type="curve" smooth="yes" name="n20"/>
      <point x="497.46" y="1174.32" type="line"/>
      <point x="497.46" y="277.16" type="line"/>
      <point x="711.78" y="277.16" type="line"/>
      <point x="711.78" y="1010.8" type="line" name="n24"/>
      <point x="818.66" y="1010.8" type="line" smooth="yes" name="n25"/>
      <point x="941.18" y="1010.8"/>
      <point x="968.34" y="969.52"/>
      <point x="968.34" y="887.24" type="curve" smooth="yes" name="n28"/>
      <point x="968.34" y="802.28"/>
      <point x="938.1" y="755.48"/>
      <point x="800.42" y="755.48" type="curve" smooth="yes" name="n31"/>
      <point x="653.66" y="755.48" type="line" name="n32"/>
      <point x="647.42" y="601.32" type="line"/>
    </contour>
    <contour>
      <point x="85.86" y="723.4" type="curve" smooth="yes" name="n34"/>
      <point x="85.86" y="316.92"/>
      <point x="416.78" y="-14"/>
      <point x="823.26" y="-14" type="curve" smooth="yes" name="n37"/>
      <point x="1231.3" y="-14"/>
      <point x="1562.22" y="316.92"/>
      <point x="1562.22" y="723.4" type="curve" smooth="yes" name="n40"/>
      <point x="1562.22" y="1131.44"/>
      <point x="1231.3" y="1462.36"/>
      <point x="823.26" y="1462.36" type="curve" smooth="yes" name="n43"/>
      <point x="416.78" y="1462.36"/>
      <point x="85.86" y="1131.44"/>
    </contour>
    <contour>
      <point x="220.62" y="723.4" type="curve" smooth="yes" name="n46"/>
      <point x="220.62" y="1071.08"/>
      <point x="484.94" y="1346.76"/>
      <point x="823.26" y="1346.76" type="curve" smooth="yes" name="n49"/>
      <point x="1163.14" y="1346.76"/>
      <point x="1431.02" y="1071.08"/>
      <point x="1431.02" y="723.4" type="curve" smooth="yes" name="n52"/>
      <point x="1431.02" y="377.28"/>
      <point x="1163.14" y="105.16"/>
      <point x="823.26" y="105.16" type="curve" smooth="yes" name="n55"/>
      <point x="484.94" y="105.16"/>
      <point x="220.62" y="377.28"/>
    </contour>
  </outline>
</glyph>
<glyph name="macron" format="2">
  <advance width="800.0"/>
  <unicode hex="00AF"/>
  <unicode hex="02C9"/>
  <anchor x="400.0" y="1120.0" name="_top"/>
  <outline>
    <contour>
      <point x="101.0" y="1213.84" type="line"/>
      <point x="699.0" y="1213.84" type="line"/>
      <point x="699.0" y="1372.68" type="line"/>
      <point x="101.0" y="1372.68" type="line"/>
    </contour>
  </outline>
</glyph>
<glyph name="degree" format="2">
  <advance width="830.68"/>
  <unicode hex="00B0"/>
  <outline>
    <contour>
      <point x="69.03999999999999" y="1122.84" type="curve" smooth="yes"/>
      <point x="69.03999999999999" y="937.64"/>
      <point x="219.56" y="782.44"/>
      <point x="414.56" y="782.44" type="curve" smooth="yes"/>
      <point x="609.56" y="782.44"/>
      <point x="761.64" y="937.64"/>
      <point x="761.64" y="1122.84" type="curve" smooth="yes"/>
      <point x="761.64" y="1312.72"/>
      <point x="609.56" y="1464.36"/>
      <point x="414.56" y="1464.36" type="curve" smooth="yes"/>
      <point x="219.56" y="1464.36"/>
      <point x="69.03999999999999" y="1312.72"/>
    </contour>
    <contour>
      <point x="241.24" y="1121.28" type="curve" smooth="yes"/>
      <point x="241.24" y="1221.16"/>
      <point x="314.68" y="1299.28"/>
      <point x="414.56" y="1299.28" type="curve" smooth="yes"/>
      <point x="514.44" y="1299.28"/>
      <point x="587.88" y="1221.16"/>
      <point x="587.88" y="1121.28" type="curve" smooth="yes"/>
      <point x="587.88" y="1022.96"/>
      <point x="514.44" y="946.4"/>
      <point x="414.56" y="946.4" type="curve" smooth="yes"/>
      <point x="314.68" y="946.4"/>
      <point x="241.24" y="1022.96"/>
    </contour>
  </outline>
</glyph>
<glyph name="plusminus" format="2">
  <advance width="1160"/>
  <unicode hex="00B1"/>
  <outline>
    <contour>
      <point x="92.48" y="703.68" type="line" name="n00"/>
      <point x="1067.52" y="703.68" type="line"/>
      <point x="1067.52" y="889.04" type="line"/>
      <point x="92.48" y="889.04" type="line" name="n03"/>
    </contour>
    <contour>
      <point x="478.52" y="1242.6" type="line" name="n04"/>
      <point x="478.52" y="363.72" type="line"/>
      <point x="679.48" y="363.72" type="line"/>
      <point x="679.48" y="1242.6" type="line" name="n07"/>
    </contour>
    <contour>
      <point x="92.48" y="80" type="line" name="n08"/>
      <point x="1067.52" y="80" type="line"/>
      <point x="1067.52" y="265.36" type="line"/>
      <point x="92.48" y="265.36" type="line" name="n11"/>
    </contour>
  </outline>
</glyph>
<glyph name="acute" format="2">
  <advance width="800"/>
  <unicode hex="00B4"/>
  <anchor x="400" y="1120" name="_top"/>
  <outline>
    <contour>
      <point x="506.12" y="1462.8" type="line" smooth="yes" name="n00"/>
      <point x="452.92" y="1462.8"/>
      <point x="430.88" y="1444.76"/>
      <point x="411.08" y="1409.6" type="curve" smooth="yes"/>
      <point x="268.92" y="1165.8" type="line" name="n04"/>
      <point x="417.08" y="1165.8" type="line" smooth="yes"/>
      <point x="454.28" y="1165.8"/>
      <point x="474.32" y="1175.6"/>
      <point x="498.6" y="1201.88" type="curve" smooth="yes"/>
      <point x="745.84" y="1462.8" type="line"/>
    </contour>
  </outline>
</glyph>
<glyph name="micro" format="2">
  <advance width="1320"/>
  <unicode hex="00B5"/>
  <anchor x="691.72" y="-421" name="bottom"/>
  <anchor x="612.2" y="1120" name="top"/>
  <outline>
    <contour>
      <point x="164.52" y="1026.8" type="line" name="n00"/>
      <point x="164.52" y="-231" type="line" smooth="yes"/>
      <point x="164.52" y="-297.84"/>
      <point x="204.4" y="-335.04" name="n03"/>
      <point x="273.24" y="-335.04" type="curve" smooth="yes"/>
      <point x="396" y="-335.04" type="line"/>
      <point x="396" y="-96.08" type="line" smooth="yes"/>
      <point x="396" y="-15.16"/>
      <point x="386.2" y="96.2"/>
      <point x="349.88" y="161.52" type="curve"/>
      <point x="411.6" y="202.24" type="line"/>
      <point x="411.6" y="1026.8" type="line"/>
    </contour>
    <contour>
      <point x="267.68" y="420.64" type="line" name="n12"/>
      <point x="267.68" y="166.8"/>
      <point x="360.22" y="15.2" name="n14"/>
      <point x="569.64" y="15.2" type="curve" smooth="yes"/>
      <point x="717.16" y="15.2"/>
      <point x="823.28" y="117.9"/>
      <point x="902.02" y="287.64" type="curve"/>
      <point x="827.82" y="423.96" type="line"/>
      <point x="784.42" y="295.8"/>
      <point x="704.58" y="217.72"/>
      <point x="585.24" y="217.72" type="curve" smooth="yes"/>
      <point x="470.16" y="217.72"/>
      <point x="411.6" y="297.8"/>
      <point x="411.6" y="420.64" type="curve" name="n25"/>
    </contour>
    <contour>
      <point x="812.02" y="315.72" type="line"/>
      <point x="835.86" y="304.5" type="line"/>
      <point x="837.42" y="88.32"/>
      <point x="957.26" y="-10.34"/>
      <point x="1097.12" y="-10.34" type="curve" smooth="yes" name="n30"/>
      <point x="1193.64" y="-10.34"/>
      <point x="1251.88" y="31.32"/>
      <point x="1251.88" y="73.76" type="curve" smooth="yes"/>
      <point x="1251.88" y="172.68" type="line"/>
      <point x="1179.42" y="172.68" type="line" smooth="yes" name="n35"/>
      <point x="1105.66" y="172.68"/>
      <point x="1059.1" y="214.52"/>
      <point x="1059.1" y="303.72" type="curve" smooth="yes"/>
      <point x="1059.1" y="1026.8" type="line" name="n39"/>
      <point x="812.02" y="1026.8" type="line" name="n40"/>
    </contour>
  </outline>
</glyph>
<glyph name="paragraph" format="2">
  <advance width="1474"/>
  <unicode hex="00B6"/>
  <outline>
    <contour>
      <point x="737" y="1446.8" type="line"/>
      <point x="521.12" y="1446.8" type="line" name="n01"/>
      <point x="521.12" y="-209.64" type="line" name="n02"/>
      <point x="737" y="-209.64" type="line"/>
    </contour>
    <contour>
      <point x="521.12" y="1446.8" type="line" smooth="yes"/>
      <point x="244" y="1446.8"/>
      <point x="64.84" y="1279.12"/>
      <point x="64.84" y="1037" type="curve" smooth="yes" name="n07"/>
      <point x="64.84" y="814.04"/>
      <point x="244" y="629.04"/>
      <point x="521.12" y="629.04" type="curve"/>
      <point x="569.88" y="1237.6" type="line" name="n11"/>
      <point x="1402" y="1237.6" type="line" name="n12"/>
      <point x="1402" y="1446.8" type="line" name="n13"/>
    </contour>
    <contour>
      <point x="1187.6" y="1446.8" type="line" name="n14"/>
      <point x="971.72" y="1446.8" type="line" name="n15"/>
      <point x="971.72" y="-209.64" type="line"/>
      <point x="1187.6" y="-209.64" type="line"/>
    </contour>
  </outline>
</glyph>
<glyph name="periodcentered" format="2">
  <advance width="549.16"/>
  <unicode hex="00B7"/>
  <unicode hex="2219"/>
  <outline>
    <contour>
      <point x="85.88" y="594.68" type="curve" smooth="yes"/>
      <point x="85.88" y="491.36"/>
      <point x="170.04" y="407.2"/>
      <point x="273.36" y="407.2" type="curve" smooth="yes"/>
      <point x="379.12" y="407.2"/>
      <point x="463.28" y="491.36"/>
      <point x="463.28" y="594.68" type="curve" smooth="yes"/>
      <point x="463.28" y="700.44"/>
      <point x="379.12" y="784.6"/>
      <point x="273.36" y="784.6" type="curve" smooth="yes"/>
      <point x="170.04" y="784.6"/>
      <point x="85.88" y="700.44"/>
    </contour>
  </outline>
</glyph>
<glyph name="cedilla" format="2">
  <advance width="800"/>
  <unicode hex="00B8"/>
  <anchor x="400" y="-70" name="_bottom"/>
  <outline>
    <contour>
      <point x="280.54" y="-233.6" type="curve" smooth="yes"/>
      <point x="264.06" y="-233.6"/>
      <point x="255.82" y="-241.84"/>
      <point x="251.82" y="-256.76" type="curve" smooth="yes"/>
      <point x="229.1" y="-334.08" type="line"/>
      <point x="274.7" y="-348.48"/>
      <point x="322.22" y="-356.44"/>
      <point x="376.22" y="-356.44" type="curve" smooth="yes" name="n07"/>
      <point x="520.82" y="-356.44"/>
      <point x="619.58" y="-299.96"/>
      <point x="619.58" y="-209.92" type="curve" smooth="yes" name="n10"/>
      <point x="619.58" y="-130.16"/>
      <point x="560.98" y="-72.96"/>
      <point x="384.82" y="-48.72" type="curve"/>
      <point x="440.06" y="-96.84" type="line"/>
      <point x="476.84" y="35.88" type="line" name="n15"/>
      <point x="338.72" y="35.88" type="line"/>
      <point x="279.22" y="-141.6" type="line"/>
      <point x="378.98" y="-155.16"/>
      <point x="425.98" y="-167.36"/>
      <point x="425.98" y="-205.68" type="curve" smooth="yes" name="n20"/>
      <point x="425.98" y="-228.68"/>
      <point x="404.5" y="-247.96"/>
      <point x="360.38" y="-247.96" type="curve" smooth="yes" name="n23"/>
      <point x="318.3" y="-247.96"/>
      <point x="298.78" y="-233.6"/>
    </contour>
  </outline>
</glyph>
<glyph name="ordmasculine" format="2">
  <advance width="801"/>
  <unicode hex="00BA"/>
  <anchor x="400.54" y="-70" name="bottom"/>
  <outline>
    <contour>
      <point x="402.32" y="1465.04" type="curve" smooth="yes" name="n00"/>
      <point x="206.92" y="1465.04"/>
      <point x="73.48" y="1344.36"/>
      <point x="73.48" y="1149.2" type="curve" smooth="yes" name="n03"/>
      <point x="73.48" y="950.92"/>
      <point x="206.92" y="829.12"/>
      <point x="402.32" y="829.12" type="curve" smooth="yes" name="n06"/>
      <point x="595.72" y="829.12"/>
      <point x="727.6" y="950.92"/>
      <point x="727.6" y="1149.2" type="curve" smooth="yes" name="n09"/>
      <point x="727.6" y="1344.36"/>
      <point x="595.72" y="1465.04"/>
    </contour>
    <contour>
      <point x="402.32" y="974.6" type="curve" smooth="yes"/>
      <point x="308.52" y="974.6"/>
      <point x="266.64" y="1030"/>
      <point x="266.64" y="1147.64" type="curve" smooth="yes" name="n15"/>
      <point x="266.64" y="1265.28"/>
      <point x="308.52" y="1319.56"/>
      <point x="402.32" y="1319.56" type="curve" smooth="yes"/>
      <point x="491" y="1319.56"/>
      <point x="534.44" y="1265.28"/>
      <point x="534.44" y="1147.64" type="curve" smooth="yes" name="n21"/>
      <point x="534.44" y="1030"/>
      <point x="491" y="974.6"/>
    </contour>
  </outline>
</glyph>
<glyph name="questiondown" format="2">
  <advance width="910.5"/>
  <unicode hex="00BF"/>
  <outline>
    <contour>
      <point x="782.08" y="-98.08" type="line"/>
      <point x="770.72" y="-77.35999999999999"/>
      <point x="753.12" y="-67.56"/>
      <point x="730.4" y="-67.56" type="curve"/>
      <point x="689.2" y="-67.56"/>
      <point x="636.64" y="-148.76"/>
      <point x="486.08" y="-148.76" type="curve" smooth="yes"/>
      <point x="380.88" y="-148.76"/>
      <point x="305.52" y="-88.19999999999999"/>
      <point x="305.52" y="6.040000000000006" type="curve"/>
      <point x="305.52" y="222.04"/>
      <point x="623.9200000000001" y="195.04"/>
      <point x="600.52" y="399.4" type="curve" smooth="yes"/>
      <point x="583.36" y="562.48" type="line"/>
      <point x="414.48" y="562.48" type="line"/>
      <point x="391.32" y="417.0" type="line"/>
      <point x="368.6" y="288.6"/>
      <point x="75.6" y="289.32"/>
      <point x="75.6" y="-15.799999999999997" type="curve" smooth="yes"/>
      <point x="75.6" y="-223.44"/>
      <point x="233.16" y="-349.72"/>
      <point x="464.24" y="-349.72" type="curve" smooth="yes"/>
      <point x="633.88" y="-349.72"/>
      <point x="755.28" y="-283.28"/>
      <point x="847.36" y="-202.8" type="curve"/>
    </contour>
    <component base="period" xOffset="266.36" yOffset="754.08"/>
  </outline>
</glyph>
<glyph name="AE" format="2">
  <advance width="1866"/>
  <unicode hex="00C6"/>
  <anchor x="1240.46" y="1518.62" name="Top"/>
  <anchor x="897.32" y="-70" name="bottom"/>
  <anchor x="1240.46" y="1518.62" name="top"/>
  <outline>
    <contour>
      <point x="-20.24" y="0" type="line"/>
      <point x="183.84" y="0" type="line" smooth="yes"/>
      <point x="231.96" y="0"/>
      <point x="267.94" y="24.62"/>
      <point x="284.98" y="61.04" type="curve" smooth="yes"/>
      <point x="769.76" y="1063.92" type="line"/>
      <point x="813.84" y="1160.56"/>
      <point x="859.28" y="1288.88"/>
      <point x="887.12" y="1446.8" type="curve"/>
      <point x="715.12" y="1446.8" type="line"/>
    </contour>
    <contour>
      <point x="308.08" y="354.76" type="line" name="n10"/>
      <point x="1133.48" y="354.76" type="line"/>
      <point x="1133.48" y="546.36" type="line"/>
      <point x="308.08" y="546.36" type="line" name="n13"/>
    </contour>
    <contour>
      <point x="1068.04" y="1446.8" type="line"/>
      <point x="813.6" y="1446.8" type="line"/>
      <point x="990.92" y="0" type="line"/>
      <point x="1245.36" y="0" type="line"/>
    </contour>
    <contour>
      <point x="1120.2" y="832.76" type="line" name="n18"/>
      <point x="1120.2" y="623.56" type="line" name="n19"/>
      <point x="1652.44" y="623.56" type="line"/>
      <point x="1652.44" y="832.76" type="line"/>
    </contour>
    <contour>
      <point x="1014.8" y="1446.8" type="line" name="n22"/>
      <point x="1014.8" y="1229.8" type="line" name="n23"/>
      <point x="1788.04" y="1229.8" type="line"/>
      <point x="1788.04" y="1446.8" type="line"/>
    </contour>
    <contour>
      <point x="1142.2" y="217" type="line" name="n26"/>
      <point x="1142.2" y="0" type="line" name="n27"/>
      <point x="1788.04" y="0" type="line"/>
      <point x="1788.48" y="217" type="line"/>
    </contour>
  </outline>
</glyph>
<glyph name="Eth" format="2">
  <advance width="1540.14"/>
  <unicode hex="00D0"/>
  <anchor x="688.94" y="1518.62" name="Top"/>
  <anchor x="688.94" y="1518.62" name="top"/>
  <anchor x="654.28" y="-70.0" name="bottom"/>
  <outline>
    <contour>
      <point x="1463.54" y="723.4" type="curve" smooth="yes"/>
      <point x="1463.54" y="1146.68"/>
      <point x="1169.9" y="1446.8"/>
      <point x="731.3" y="1446.8" type="curve"/>
      <point x="179.82" y="1446.8" type="line"/>
      <point x="179.82" y="0.0" type="line"/>
      <point x="731.3" y="0.0" type="line"/>
      <point x="1169.9" y="0.0"/>
      <point x="1463.54" y="298.56"/>
    </contour>
    <contour>
      <point x="1187.94" y="723.4" type="curve" smooth="yes"/>
      <point x="1187.94" y="406.4"/>
      <point x="1013.5" y="216.56"/>
      <point x="731.3" y="216.56" type="curve"/>
      <point x="450.3" y="216.56" type="line"/>
      <point x="450.3" y="1230.24" type="line"/>
      <point x="731.3" y="1230.24" type="line"/>
      <point x="1013.5" y="1230.24"/>
      <point x="1187.94" y="1038.84"/>
    </contour>
    <contour>
      <point x="-0.7000000000000011" y="650.52" type="line"/>
      <point x="716.3" y="650.52" type="line"/>
      <point x="716.3" y="804.6800000000001" type="line"/>
      <point x="-0.7000000000000011" y="804.6800000000001" type="line"/>
    </contour>
  </outline>
</glyph>
<glyph name="multiply" format="2">
  <advance width="1160"/>
  <unicode hex="00D7"/>
  <outline>
    <contour>
      <point x="124.74" y="997.16" type="line"/>
      <point x="921.42" y="200.92" type="line"/>
      <point x="1052.42" y="331.92" type="line"/>
      <point x="254.62" y="1128.6" type="line" name="n03"/>
    </contour>
    <contour>
      <point x="905.38" y="1126.6" type="line"/>
      <point x="109.14" y="329.92" type="line"/>
      <point x="240.14" y="198.92" type="line" name="n06"/>
      <point x="1036.82" y="995.16" type="line"/>
    </contour>
  </outline>
</glyph>
<glyph name="Oslash" format="2">
  <advance width="1616"/>
  <unicode hex="00D8"/>
  <anchor x="816.18" y="1518.62" name="Top"/>
  <anchor x="744.16" y="-70" name="bottom"/>
  <anchor x="816.18" y="1518.62" name="top"/>
  <outline>
    <contour>
      <point x="1502.24" y="1512.36" type="line" name="n00"/>
      <point x="1364.56" y="1512.36" type="line" smooth="yes"/>
      <point x="1306.2" y="1512.36"/>
      <point x="1288.16" y="1494.32"/>
      <point x="1252.52" y="1445.76" type="curve" smooth="yes"/>
      <point x="120.84" y="-111.36" type="line" name="n05"/>
      <point x="226.88" y="-111.36" type="line" smooth="yes"/>
      <point x="278.56" y="-111.36"/>
      <point x="336.48" y="-91.76"/>
      <point x="375.24" y="-38.52" type="curve" smooth="yes"/>
    </contour>
    <contour>
      <point x="1540.2" y="723.4" type="curve" smooth="yes" name="n10"/>
      <point x="1540.2" y="1146.68"/>
      <point x="1246.56" y="1462.8"/>
      <point x="807.96" y="1462.8" type="curve" smooth="yes" name="n13"/>
      <point x="370.24" y="1462.8"/>
      <point x="74.6" y="1147.8"/>
      <point x="74.6" y="723.4" type="curve" smooth="yes" name="n16"/>
      <point x="74.6" y="298.56"/>
      <point x="370.24" y="-15.56"/>
      <point x="807.96" y="-15.56" type="curve" smooth="yes" name="n19"/>
      <point x="1246.56" y="-15.56"/>
      <point x="1540.2" y="298.56"/>
    </contour>
    <contour>
      <point x="1264.6" y="723.4" type="curve" smooth="yes" name="n22"/>
      <point x="1264.6" y="406.4"/>
      <point x="1090.16" y="216.6"/>
      <point x="807.96" y="216.6" type="curve" smooth="yes" name="n25"/>
      <point x="525.52" y="216.6"/>
      <point x="349.76" y="406.4"/>
      <point x="349.76" y="723.4" type="curve" smooth="yes" name="n28"/>
      <point x="349.76" y="1038.84"/>
      <point x="525.52" y="1230.64"/>
      <point x="807.96" y="1230.64" type="curve" smooth="yes" name="n31"/>
      <point x="1090.16" y="1230.64"/>
      <point x="1264.6" y="1038.84"/>
    </contour>
  </outline>
</glyph>
<glyph name="Thorn" format="2">
  <advance width="1231.32"/>
  <unicode hex="00DE"/>
  <anchor x="406.3" y="1518.62" name="Top"/>
  <anchor x="406.3" y="1518.62" name="top"/>
  <anchor x="295.48" y="-70.0" name="bottom"/>
  <outline>
    <contour>
      <point x="316.98" y="260.56" type="line"/>
      <point x="631.46" y="260.56" type="line" smooth="yes"/>
      <point x="1006.62" y="260.56"/>
      <point x="1192.82" y="456.64"/>
      <point x="1192.82" y="737.0" type="curve" smooth="yes"/>
      <point x="1192.82" y="1007.0"/>
      <point x="1018.58" y="1199.4"/>
      <point x="631.46" y="1199.4" type="curve" smooth="yes"/>
      <point x="429.94" y="1199.4" type="line"/>
      <point x="429.94" y="1446.8" type="line"/>
      <point x="161.01999999999998" y="1446.8" type="line"/>
      <point x="161.01999999999998" y="0.0" type="line"/>
      <point x="429.94" y="0.0" type="line"/>
      <point x="429.94" y="989.08" type="line"/>
      <point x="631.46" y="989.08" type="line" smooth="yes"/>
      <point x="829.62" y="989.08"/>
      <point x="923.9" y="891.4"/>
      <point x="923.9" y="737.0" type="curve" smooth="yes"/>
      <point x="923.9" y="574.92"/>
      <point x="829.02" y="472.44"/>
      <point x="631.46" y="472.44" type="curve" smooth="yes"/>
      <point x="339.26" y="472.44" type="line"/>
    </contour>
  </outline>
</glyph>
<glyph name="germandbls" format="2">
  <advance width="1205.08"/>
  <unicode hex="00DF"/>
  <anchor x="617.6" y="1518.62" name="Top"/>
  <anchor x="617.6" y="1518.62" name="top"/>
  <anchor x="593.36" y="-70.0" name="bottom"/>
  <outline>
    <contour>
      <point x="645.72" y="1471.72" type="curve" smooth="yes"/>
      <point x="321.44" y="1471.72"/>
      <point x="121.6" y="1266.2"/>
      <point x="121.6" y="983.48" type="curve" smooth="yes"/>
      <point x="121.6" y="0.0" type="line"/>
      <point x="368.68" y="0.0" type="line"/>
      <point x="368.68" y="975.68" type="line" smooth="yes"/>
      <point x="368.68" y="1179.48"/>
      <point x="460.64" y="1291.04"/>
      <point x="634.8" y="1291.04" type="curve" smooth="yes"/>
      <point x="781.48" y="1291.04"/>
      <point x="841.44" y="1218.6"/>
      <point x="841.44" y="1130.8" type="curve" smooth="yes"/>
      <point x="841.44" y="963.04"/>
      <point x="557.84" y="948.88"/>
      <point x="557.84" y="719.4" type="curve" smooth="yes"/>
      <point x="557.84" y="445.08"/>
      <point x="921.48" y="480.15999999999997"/>
      <point x="921.48" y="292.28" type="curve" smooth="yes"/>
      <point x="921.48" y="214.48000000000002"/>
      <point x="863.84" y="158.44"/>
      <point x="781.04" y="158.44" type="curve" smooth="yes"/>
      <point x="660.8" y="158.44"/>
      <point x="618.2" y="240.36"/>
      <point x="557.2" y="240.36" type="curve" smooth="yes"/>
      <point x="526.24" y="240.36"/>
      <point x="507.08000000000004" y="227.44"/>
      <point x="493.72" y="204.72" type="curve" smooth="yes"/>
      <point x="436.24" y="109.8" type="line"/>
      <point x="516.24" y="37.8"/>
      <point x="636.36" y="-16.0"/>
      <point x="759.2" y="-16.0" type="curve" smooth="yes"/>
      <point x="972.12" y="-16.0"/>
      <point x="1152.52" y="104.64"/>
      <point x="1152.52" y="331.72" type="curve" smooth="yes"/>
      <point x="1152.52" y="638.8"/>
      <point x="816.96" y="637.12"/>
      <point x="816.96" y="769.32" type="curve"/>
      <point x="816.96" y="883.84"/>
      <point x="1081.4" y="902.0"/>
      <point x="1081.4" y="1131.92" type="curve" smooth="yes"/>
      <point x="1081.4" y="1267.04"/>
      <point x="958.52" y="1471.72"/>
    </contour>
  </outline>
</glyph>
<glyph name="ae" format="2">
  <advance width="1619.42"/>
  <unicode hex="00E6"/>
  <anchor x="804.76" y="1120.0" name="top"/>
  <anchor x="775.88" y="-70.0" name="bottom"/>
  <outline>
    <contour>
      <point x="1144.24" y="1042.8" type="curve" smooth="yes"/>
      <point x="855.0" y="1042.8"/>
      <point x="699.4" y="815.16"/>
      <point x="699.4" y="534.96" type="curve" smooth="yes"/>
      <point x="699.4" y="152.36"/>
      <point x="904.24" y="-15.120000000000001"/>
      <point x="1138.88" y="-15.120000000000001" type="curve" smooth="yes"/>
      <point x="1276.88" y="-15.120000000000001"/>
      <point x="1438.08" y="24.119999999999997"/>
      <point x="1546.72" y="153.44" type="curve"/>
      <point x="1480.32" y="238.56" type="line" smooth="yes"/>
      <point x="1470.52" y="253.04"/>
      <point x="1454.48" y="261.28"/>
      <point x="1430.2" y="261.28" type="curve" smooth="yes"/>
      <point x="1374.52" y="261.28"/>
      <point x="1343.8" y="178.04"/>
      <point x="1162.28" y="178.04" type="curve" smooth="yes"/>
      <point x="999.56" y="178.04"/>
      <point x="896.8" y="288.96000000000004"/>
      <point x="896.8" y="534.96" type="curve" smooth="yes"/>
      <point x="896.8" y="740.76"/>
      <point x="974.64" y="863.68"/>
      <point x="1133.76" y="863.68" type="curve" smooth="yes"/>
      <point x="1270.32" y="863.68"/>
      <point x="1334.32" y="742.4"/>
      <point x="1334.32" y="611.92" type="curve"/>
      <point x="847.56" y="611.92" type="line"/>
      <point x="851.8" y="461.32" type="line"/>
      <point x="1498.76" y="461.32" type="line" smooth="yes"/>
      <point x="1543.76" y="461.32"/>
      <point x="1554.0" y="480.92"/>
      <point x="1554.0" y="557.12" type="curve" smooth="yes"/>
      <point x="1554.0" y="856.92"/>
      <point x="1377.04" y="1042.8"/>
    </contour>
    <contour>
      <point x="833.52" y="416.8" type="line"/>
      <point x="849.12" y="648.0" type="line" smooth="yes"/>
      <point x="849.12" y="881.16"/>
      <point x="749.32" y="1045.92"/>
      <point x="499.6" y="1045.92" type="curve" smooth="yes"/>
      <point x="343.32" y="1045.92"/>
      <point x="217.68" y="991.92"/>
      <point x="99.84" y="883.68" type="curve"/>
      <point x="144.4" y="803.24" type="line" smooth="yes"/>
      <point x="159.32" y="778.96"/>
      <point x="183.16" y="758.24"/>
      <point x="216.8" y="758.24" type="curve" smooth="yes"/>
      <point x="296.52" y="758.24"/>
      <point x="335.28" y="855.88"/>
      <point x="494.92" y="855.88" type="curve" smooth="yes"/>
      <point x="605.4" y="855.88"/>
      <point x="665.76" y="783.8"/>
      <point x="665.76" y="648.0" type="curve" smooth="yes"/>
      <point x="665.76" y="416.8" type="line"/>
    </contour>
    <contour>
      <point x="665.76" y="416.8" type="line"/>
      <point x="665.76" y="231.8"/>
      <point x="564.6" y="155.32"/>
      <point x="433.68" y="155.32" type="curve" smooth="yes"/>
      <point x="343.4" y="155.32"/>
      <point x="287.56" y="197.24"/>
      <point x="287.56" y="287.44" type="curve" smooth="yes"/>
      <point x="287.56" y="379.0"/>
      <point x="386.6" y="455.12"/>
      <point x="701.4" y="462.44" type="curve"/>
      <point x="670.2" y="613.48" type="line"/>
      <point x="199.24" y="603.48"/>
      <point x="51.4" y="429.56"/>
      <point x="51.4" y="274.96" type="curve" smooth="yes"/>
      <point x="51.4" y="86.32"/>
      <point x="175.6" y="-16.0"/>
      <point x="374.4" y="-16.0" type="curve" smooth="yes"/>
      <point x="608.2" y="-16.0"/>
      <point x="833.52" y="105.64"/>
      <point x="833.52" y="416.8" type="curve"/>
    </contour>
  </outline>
</glyph>
<glyph name="ccedilla" format="2">
  <advance width="966"/>
  <unicode hex="00E7"/>
  <anchor x="528.74" y="-421" name="bottom"/>
  <anchor x="558.58" y="1120" name="top"/>
  <outline>
    <contour>
      <point x="922.38" y="898.68" type="line"/>
      <point x="831.42" y="991.44"/>
      <point x="717.14" y="1042.8"/>
      <point x="564.82" y="1042.8" type="curve" smooth="yes" name="n03"/>
      <point x="241.78" y="1042.8"/>
      <point x="66.62" y="815.84"/>
      <point x="66.62" y="514.96" type="curve" smooth="yes" name="n06"/>
      <point x="66.62" y="178.68"/>
      <point x="274.98" y="-15.12"/>
      <point x="528.54" y="-15.12" type="curve" smooth="yes" name="n09"/>
      <point x="672.74" y="-15.12"/>
      <point x="823.5" y="23.68"/>
      <point x="932.14" y="153.44" type="curve"/>
      <point x="861.06" y="244.8" type="line"/>
      <point x="851.26" y="259.28"/>
      <point x="835.22" y="267.52"/>
      <point x="815.62" y="267.52" type="curve" smooth="yes"/>
      <point x="754.38" y="267.52"/>
      <point x="731.86" y="174.92"/>
      <point x="573.78" y="174.92" type="curve" smooth="yes"/>
      <point x="417.78" y="174.92"/>
      <point x="319.94" y="297.44"/>
      <point x="319.94" y="514.96" type="curve" smooth="yes" name="n22"/>
      <point x="319.94" y="724.04"/>
      <point x="405.98" y="852.76"/>
      <point x="580.42" y="852.76" type="curve" smooth="yes" name="n25"/>
      <point x="716.74" y="852.76"/>
      <point x="755.1" y="777.92"/>
      <point x="805.42" y="777.92" type="curve" smooth="yes"/>
      <point x="831.26" y="777.92"/>
      <point x="842.62" y="789.28"/>
      <point x="857.1" y="808.44" type="curve" smooth="yes"/>
    </contour>
    <contour>
      <point x="419.08" y="-233.6" type="curve" smooth="yes"/>
      <point x="402.6" y="-233.6"/>
      <point x="394.36" y="-241.84"/>
      <point x="390.36" y="-256.76" type="curve" smooth="yes"/>
      <point x="367.64" y="-334.08" type="line"/>
      <point x="413.24" y="-348.48"/>
      <point x="460.76" y="-356.44"/>
      <point x="514.76" y="-356.44" type="curve" smooth="yes" name="n39"/>
      <point x="659.36" y="-356.44"/>
      <point x="758.12" y="-299.96"/>
      <point x="758.12" y="-209.92" type="curve" smooth="yes" name="n42"/>
      <point x="758.12" y="-130.16"/>
      <point x="699.52" y="-72.96"/>
      <point x="523.36" y="-48.72" type="curve"/>
      <point x="578.6" y="-96.84" type="line"/>
      <point x="615.38" y="35.88" type="line"/>
      <point x="477.26" y="35.88" type="line" name="n48"/>
      <point x="417.76" y="-141.6" type="line"/>
      <point x="517.52" y="-155.16"/>
      <point x="564.52" y="-167.36"/>
      <point x="564.52" y="-205.68" type="curve" smooth="yes" name="n52"/>
      <point x="564.52" y="-228.68"/>
      <point x="543.04" y="-247.96"/>
      <point x="498.92" y="-247.96" type="curve" smooth="yes" name="n55"/>
      <point x="456.84" y="-247.96"/>
      <point x="437.32" y="-233.6"/>
    </contour>
  </outline>
</glyph>
<glyph name="eth" format="2">
  <advance width="1141"/>
  <unicode hex="00F0"/>
  <anchor x="674.72" y="1518.62" name="Top"/>
  <anchor x="552.7" y="-70" name="bottom"/>
  <anchor x="674.72" y="1518.62" name="top"/>
  <outline>
    <contour>
      <point x="318.1" y="1432.84" type="curve"/>
      <point x="289.58" y="1346.84" type="line"/>
      <point x="265.74" y="1281.12"/>
      <point x="296.02" y="1242.8"/>
      <point x="339.02" y="1230.32" type="curve"/>
      <point x="717.42" y="1129.96"/>
      <point x="850.94" y="962.28"/>
      <point x="851.38" y="601.56" type="curve"/>
      <point x="832.22" y="597.12" type="line" name="n08"/>
      <point x="832.22" y="288.76"/>
      <point x="717.38" y="175.36"/>
      <point x="557.5" y="175.36" type="curve" smooth="yes" name="n11"/>
      <point x="419.7" y="175.36"/>
      <point x="309.46" y="279.64"/>
      <point x="309.46" y="472.52" type="curve" smooth="yes" name="n14"/>
      <point x="309.46" y="622"/>
      <point x="400.22" y="741.56"/>
      <point x="570.62" y="741.56" type="curve" smooth="yes" name="n17"/>
      <point x="725.5" y="741.56"/>
      <point x="808.26" y="640.24"/>
      <point x="844.7" y="526.8" type="curve"/>
      <point x="953.86" y="585.4" type="line"/>
      <point x="879.14" y="807.52"/>
      <point x="726.62" y="931.6"/>
      <point x="520.7" y="931.6" type="curve" smooth="yes" name="n24"/>
      <point x="243.58" y="931.6"/>
      <point x="63.94" y="718.92"/>
      <point x="63.94" y="474.08" type="curve" smooth="yes" name="n27"/>
      <point x="63.94" y="167.56"/>
      <point x="275.34" y="-14.68"/>
      <point x="551.26" y="-14.68" type="curve" smooth="yes" name="n30"/>
      <point x="883.14" y="-14.68"/>
      <point x="1064.38" y="216.16"/>
      <point x="1064.38" y="608.04" type="curve" smooth="yes" name="n33"/>
      <point x="1064.38" y="1123.76"/>
      <point x="721.7" y="1367.68"/>
    </contour>
    <contour>
      <point x="430.54" y="982.64" type="line"/>
      <point x="677.26" y="1142.64" type="line"/>
      <point x="698.42" y="1146.64" type="line"/>
      <point x="894.84" y="1259.9" type="line"/>
      <point x="923.12" y="1277.48"/>
      <point x="932.26" y="1308.44"/>
      <point x="914.22" y="1337.84" type="curve" smooth="yes"/>
      <point x="864.98" y="1418.28" type="line" name="n43"/>
      <point x="617.34" y="1258.48" type="line"/>
      <point x="597.74" y="1254.48" type="line"/>
      <point x="405.82" y="1143.48" type="line" smooth="yes"/>
      <point x="373.3" y="1125"/>
      <point x="364.38" y="1093.6"/>
      <point x="384.42" y="1061.52" type="curve"/>
    </contour>
  </outline>
  <guideline angle="0" x="0" y="1406"/>
</glyph>
<glyph name="divide" format="2">
  <advance width="1160"/>
  <unicode hex="00F7"/>
  <outline>
    <contour>
      <point x="92.26" y="578.88" type="line" name="n00"/>
      <point x="1067.3" y="578.88" type="line"/>
      <point x="1067.3" y="764.24" type="line"/>
      <point x="92.26" y="764.24" type="line" name="n03"/>
    </contour>
    <contour>
      <point x="427.42" y="1027.12" type="curve" smooth="yes" name="n04"/>
      <point x="427.42" y="941.2"/>
      <point x="492.86" y="875.76"/>
      <point x="578.78" y="875.76" type="curve" smooth="yes" name="n07"/>
      <point x="663.14" y="875.76"/>
      <point x="730.58" y="941.2"/>
      <point x="730.58" y="1027.12" type="curve" smooth="yes" name="n10"/>
      <point x="730.58" y="1111.48"/>
      <point x="663.14" y="1178.92"/>
      <point x="578.78" y="1178.92" type="curve" smooth="yes" name="n13"/>
      <point x="492.86" y="1178.92"/>
      <point x="427.42" y="1111.48"/>
    </contour>
    <contour>
      <point x="427.42" y="315.12" type="curve" smooth="yes"/>
      <point x="427.42" y="229.2"/>
      <point x="492.86" y="163.76"/>
      <point x="578.78" y="163.76" type="curve" smooth="yes" name="n19"/>
      <point x="663.14" y="163.76"/>
      <point x="730.58" y="229.2"/>
      <point x="730.58" y="315.12" type="curve" smooth="yes"/>
      <point x="730.58" y="399.48"/>
      <point x="663.14" y="466.92"/>
      <point x="578.78" y="466.92" type="curve" smooth="yes" name="n25"/>
      <point x="492.86" y="466.92"/>
      <point x="427.42" y="399.48"/>
    </contour>
  </outline>
</glyph>
<glyph name="oslash" format="2">
  <advance width="1148"/>
  <unicode hex="00F8"/>
  <anchor x="538.76" y="-70" name="bottom"/>
  <anchor x="574.96" y="1120" name="top"/>
  <outline>
    <contour>
      <point x="575.74" y="1042.8" type="curve" smooth="yes" name="n00"/>
      <point x="268.54" y="1042.8"/>
      <point x="66.62" y="839.24"/>
      <point x="66.62" y="514.96" type="curve" smooth="yes" name="n03"/>
      <point x="66.62" y="189.12"/>
      <point x="268.54" y="-15.12"/>
      <point x="575.74" y="-15.12" type="curve" smooth="yes" name="n06"/>
      <point x="881.38" y="-15.12"/>
      <point x="1081.74" y="189.12"/>
      <point x="1081.74" y="514.96" type="curve" smooth="yes" name="n09"/>
      <point x="1081.74" y="839.24"/>
      <point x="881.38" y="1042.8"/>
    </contour>
    <contour>
      <point x="575.74" y="168.68" type="curve" smooth="yes" name="n12"/>
      <point x="402.9" y="168.68"/>
      <point x="305.9" y="278.44"/>
      <point x="305.9" y="513.4" type="curve" smooth="yes" name="n15"/>
      <point x="305.9" y="732.76"/>
      <point x="402.9" y="859"/>
      <point x="575.74" y="859" type="curve" smooth="yes" name="n18"/>
      <point x="745.46" y="859"/>
      <point x="842.46" y="748.36"/>
      <point x="842.46" y="513.4" type="curve" smooth="yes" name="n21"/>
      <point x="842.46" y="294.04"/>
      <point x="745.46" y="168.68"/>
    </contour>
    <contour>
      <point x="1119.82" y="1125.6" type="line" name="n24"/>
      <point x="997.74" y="1125.6" type="line" smooth="yes"/>
      <point x="939.38" y="1125.6"/>
      <point x="918.22" y="1109.12"/>
      <point x="885.7" y="1059" type="curve"/>
      <point x="48.98" y="-77.12" type="line" name="n29"/>
      <point x="139.42" y="-77.12" type="line" smooth="yes"/>
      <point x="191.1" y="-77.12"/>
      <point x="252.14" y="-59.08"/>
      <point x="287.78" y="-4.28" type="curve"/>
    </contour>
  </outline>
</glyph>
<glyph name="thorn" format="2">
  <advance width="1136"/>
  <unicode hex="00FE"/>
  <anchor x="306.76" y="1518.62" name="Top"/>
  <anchor x="516.62" y="-421" name="bottom"/>
  <anchor x="306.76" y="1518.62" name="top"/>
  <outline>
    <contour>
      <point x="369.46" y="-335.04" type="line" name="n00"/>
      <point x="369.46" y="1486.8" type="line" name="n01"/>
      <point x="122.38" y="1486.8" type="line"/>
      <point x="122.38" y="-335.04" type="line"/>
    </contour>
    <contour>
      <point x="337.62" y="139.44" type="line" name="n04"/>
      <point x="408.5" y="46.88"/>
      <point x="487.74" y="-15.12"/>
      <point x="625.26" y="-15.12" type="curve" smooth="yes" name="n07"/>
      <point x="893.66" y="-15.12"/>
      <point x="1066.18" y="215.12"/>
      <point x="1066.18" y="520.96" type="curve" smooth="yes" name="n10"/>
      <point x="1066.18" y="856.28"/>
      <point x="911.02" y="1042.8"/>
      <point x="686.66" y="1042.8" type="curve" smooth="yes" name="n13"/>
      <point x="517.06" y="1042.8"/>
      <point x="403.34" y="955.48"/>
      <point x="312.22" y="831.76" type="curve"/>
      <point x="341.18" y="688.76" type="line"/>
      <point x="414.02" y="790.4"/>
      <point x="484.06" y="848.08"/>
      <point x="602.42" y="848.08" type="curve" smooth="yes" name="n20"/>
      <point x="731.66" y="848.08"/>
      <point x="811.3" y="759.16"/>
      <point x="811.3" y="520.96" type="curve" smooth="yes" name="n23"/>
      <point x="811.3" y="284.4"/>
      <point x="716.74" y="174.92"/>
      <point x="567.54" y="174.92" type="curve" smooth="yes" name="n26"/>
      <point x="485.94" y="174.92"/>
      <point x="416.26" y="202.4"/>
      <point x="357.9" y="280.64" type="curve"/>
    </contour>
  </outline>
</glyph>
<glyph name="dcroat" format="2">
  <advance width="1136.14"/>
  <unicode hex="0111"/>
  <anchor x="847.32" y="1518.62" name="Top"/>
  <anchor x="847.32" y="1518.62" name="top"/>
  <anchor x="602.3" y="-70.0" name="bottom"/>
  <outline>
    <contour>
      <point x="540.66" y="1131.0" type="line"/>
      <point x="1158.5" y="1131.0" type="line"/>
      <point x="1158.5" y="1285.16" type="line"/>
      <point x="540.66" y="1285.16" type="line"/>
    </contour>
    <contour>
      <point x="1014.54" y="0.0" type="line"/>
      <point x="1014.54" y="1486.8" type="line"/>
      <point x="767.46" y="1486.8" type="line"/>
      <point x="767.46" y="182.76" type="line"/>
      <point x="775.26" y="169.4" type="line"/>
      <point x="801.1" y="45.64" type="line"/>
      <point x="810.46" y="14.92"/>
      <point x="831.62" y="0.0"/>
      <point x="863.46" y="0.0" type="curve"/>
    </contour>
    <contour>
      <point x="818.02" y="858.6" type="line"/>
      <point x="742.46" y="952.72"/>
      <point x="658.54" y="1014.72"/>
      <point x="511.65999999999997" y="1014.72" type="curve" smooth="yes"/>
      <point x="243.26" y="1014.72"/>
      <point x="70.74" y="800.08"/>
      <point x="70.74" y="494.24" type="curve" smooth="yes"/>
      <point x="70.74" y="158.92"/>
      <point x="225.9" y="-15.120000000000001"/>
      <point x="450.26" y="-15.120000000000001" type="curve" smooth="yes"/>
      <point x="619.86" y="-15.120000000000001"/>
      <point x="733.58" y="75.32"/>
      <point x="824.7" y="199.04" type="curve"/>
      <point x="795.74" y="342.04" type="line"/>
      <point x="722.9" y="240.4"/>
      <point x="652.86" y="182.72"/>
      <point x="534.5" y="182.72" type="curve" smooth="yes"/>
      <point x="405.26" y="182.72"/>
      <point x="325.62" y="256.04"/>
      <point x="325.62" y="494.24" type="curve" smooth="yes"/>
      <point x="325.62" y="730.8"/>
      <point x="420.18" y="824.6800000000001"/>
      <point x="569.38" y="824.6800000000001" type="curve" smooth="yes"/>
      <point x="650.98" y="824.6800000000001"/>
      <point x="720.66" y="797.2"/>
      <point x="779.02" y="718.96" type="curve"/>
    </contour>
  </outline>
</glyph>
<glyph name="Hbar" format="2">
  <advance width="1561"/>
  <unicode hex="0126"/>
  <anchor x="782.62" y="1518.62" name="Top"/>
  <anchor x="784.4" y="-70" name="bottom"/>
  <anchor x="-95.78" y="1120" name="onRight"/>
  <anchor x="782.62" y="1518.62" name="top"/>
  <outline>
    <component base="H" xOffset="9.8"/>
    <contour>
      <point x="19.82" y="1035.76" type="line" name="n00"/>
      <point x="1541.02" y="1035.76" type="line"/>
      <point x="1541.02" y="1194.16" type="line"/>
      <point x="19.82" y="1194.16" type="line" name="n03"/>
    </contour>
  </outline>
</glyph>
<glyph name="idotless" format="2">
  <advance width="509.6"/>
  <unicode hex="0131"/>
  <anchor x="261.82" y="1120.0" name="top"/>
  <anchor x="254.8" y="-70.0" name="bottom"/>
  <outline>
    <contour>
      <point x="131.26" y="1026.8" type="line"/>
      <point x="131.26" y="0.0" type="line"/>
      <point x="378.34000000000003" y="0.0" type="line"/>
      <point x="378.34000000000003" y="1026.8" type="line"/>
    </contour>
  </outline>
</glyph>
<glyph name="kgreenlandic" format="2">
  <advance width="1068.6"/>
  <unicode hex="0138"/>
  <anchor x="533.96" y="1120.0" name="top"/>
  <anchor x="557.96" y="-70.0" name="bottom"/>
  <outline>
    <contour>
      <point x="122.38" y="1026.8" type="line"/>
      <point x="122.38" y="0.0" type="line"/>
      <point x="369.46000000000004" y="0.0" type="line"/>
      <point x="369.46000000000004" y="1026.8" type="line"/>
    </contour>
    <contour>
      <point x="295.5" y="635.84" type="line"/>
      <point x="343.86" y="469.64" type="line"/>
      <point x="425.06" y="469.64" type="line" smooth="yes"/>
      <point x="465.06" y="469.64"/>
      <point x="480.18" y="463.64"/>
      <point x="499.5" y="432.28" type="curve"/>
      <point x="760.62" y="44.76" type="line" smooth="yes"/>
      <point x="779.98" y="11.36"/>
      <point x="808.26" y="0.0"/>
      <point x="846.34" y="0.0" type="curve" smooth="yes"/>
      <point x="1068.7" y="0.0" type="line"/>
      <point x="726.98" y="497.76" type="line"/>
      <point x="682.46" y="569.92"/>
      <point x="632.8199999999999" y="615.12"/>
      <point x="510.58000000000004" y="615.12" type="curve"/>
      <point x="511.26" y="539.6" type="line"/>
      <point x="611.46" y="539.6"/>
      <point x="680.06" y="576.8"/>
      <point x="732.38" y="645.84" type="curve" smooth="yes"/>
      <point x="1050.54" y="1026.8" type="line"/>
      <point x="825.06" y="1026.8" type="line" smooth="yes"/>
      <point x="784.1" y="1026.8"/>
      <point x="760.06" y="1011.44"/>
      <point x="739.14" y="982.72" type="curve"/>
      <point x="483.74" y="669.44" type="line" smooth="yes"/>
      <point x="463.74" y="643.64"/>
      <point x="447.74" y="635.84"/>
      <point x="415.46000000000004" y="635.84" type="curve" smooth="yes"/>
    </contour>
  </outline>
</glyph>
<glyph name="Lslash" format="2">
  <advance width="1071"/>
  <unicode hex="0141"/>
  <anchor x="330.18" y="721.84" name="Bar"/>
  <anchor x="346.12" y="1518.62" name="Top"/>
  <anchor x="592.42" y="-70" name="bottom"/>
  <anchor x="346.12" y="1518.62" name="top"/>
  <outline>
    <component base="L" xScale="1" xOffset="31.92"/>
    <contour>
      <point x="12.78" y="436.24" type="line" name="n00"/>
      <point x="360.94" y="611.08" type="line"/>
      <point x="368.06" y="597.04" type="line"/>
      <point x="786.22" y="813.66" type="line"/>
      <point x="809.14" y="822.78"/>
      <point x="820.06" y="841.26"/>
      <point x="820.06" y="867.98" type="curve" smooth="yes"/>
      <point x="820.06" y="1051.36" type="line" name="n07"/>
      <point x="368.06" y="825.4" type="line"/>
      <point x="362.5" y="839.44" type="line"/>
      <point x="43.5" y="672.16" type="line"/>
      <point x="22.58" y="663.04"/>
      <point x="12.78" y="646.56"/>
      <point x="12.78" y="624.08" type="curve" smooth="yes"/>
    </contour>
  </outline>
</glyph>
<glyph name="lslash" format="2">
  <advance width="659"/>
  <unicode hex="0142"/>
  <anchor x="333.06" y="1518.62" name="Top"/>
  <anchor x="338.18" y="743.68" name="bar"/>
  <anchor x="332.72" y="-70" name="bottom"/>
  <anchor x="453.7" y="177.56" name="hook"/>
  <anchor x="333.06" y="1518.62" name="top"/>
  <outline>
    <component base="l" xScale="1" xOffset="81.6"/>
    <contour>
      <point x="38.74" y="619.62" type="line" name="n00"/>
      <point x="332.84" y="740.88" type="line"/>
      <point x="339.96" y="726.84" type="line"/>
      <point x="597.88" y="835.86" type="line" smooth="yes"/>
      <point x="620.8" y="844.98"/>
      <point x="631.72" y="863.46"/>
      <point x="631.72" y="890.18" type="curve" smooth="yes"/>
      <point x="631.72" y="1033.46" type="line" name="n07"/>
      <point x="339.96" y="915.76" type="line"/>
      <point x="334.4" y="929.8" type="line"/>
      <point x="69.46" y="815.66" type="line" smooth="yes"/>
      <point x="48.54" y="806.54"/>
      <point x="38.74" y="790.06"/>
      <point x="38.74" y="767.58" type="curve" smooth="yes"/>
    </contour>
  </outline>
</glyph>
<glyph name="Eng" format="2">
  <advance width="1541.24"/>
  <unicode hex="014A"/>
  <anchor x="786.98" y="1518.18" name="Top"/>
  <anchor x="786.98" y="1518.18" name="top"/>
  <anchor x="770.62" y="-421.0" name="bottom"/>
  <outline>
    <contour>
      <point x="1186.34" y="394.40000000000003" type="line"/>
      <point x="392.06" y="1402.92" type="line"/>
      <point x="363.1" y="1440.12"/>
      <point x="348.18" y="1446.8"/>
      <point x="301.62" y="1446.8" type="curve" smooth="yes"/>
      <point x="161.01999999999998" y="1446.8" type="line"/>
      <point x="161.01999999999998" y="0.0" type="line"/>
      <point x="397.86" y="0.0" type="line"/>
      <point x="397.86" y="882.48" type="line" smooth="yes"/>
      <point x="397.86" y="957.76"/>
      <point x="389.62" y="1064.68"/>
      <point x="372.02" y="1139.96" type="curve"/>
      <point x="355.78" y="1052.4" type="line"/>
      <point x="1147.16" y="46.78" type="line" smooth="yes"/>
      <point x="1174.34" y="13.14"/>
      <point x="1199.96" y="0.0"/>
      <point x="1241.62" y="0.0" type="curve"/>
      <point x="1380.22" y="67.86" type="line"/>
      <point x="1380.22" y="1446.8" type="line"/>
      <point x="1143.38" y="1446.8" type="line"/>
      <point x="1143.38" y="572.56" type="line" smooth="yes"/>
      <point x="1143.38" y="489.92"/>
      <point x="1154.74" y="375.64"/>
      <point x="1172.34" y="293.0" type="curve"/>
    </contour>
    <contour>
      <point x="1380.22" y="293.62" type="line"/>
      <point x="1142.6" y="293.62" type="line"/>
      <point x="1142.6" y="11.900000000000006" type="line" smooth="yes"/>
      <point x="1142.6" y="-113.28"/>
      <point x="1092.02" y="-172.29999999999998"/>
      <point x="992.8" y="-172.29999999999998" type="curve" smooth="yes"/>
      <point x="949.2" y="-172.29999999999998"/>
      <point x="930.04" y="-160.66"/>
      <point x="910.12" y="-160.66" type="curve" smooth="yes"/>
      <point x="886.84" y="-160.66"/>
      <point x="866.24" y="-169.24"/>
      <point x="855.66" y="-208.44" type="curve"/>
      <point x="828.7" y="-316.84" type="line"/>
      <point x="893.54" y="-344.76"/>
      <point x="944.68" y="-356.88"/>
      <point x="1015.64" y="-356.88" type="curve" smooth="yes"/>
      <point x="1277.72" y="-356.88"/>
      <point x="1380.22" y="-191.26"/>
      <point x="1380.22" y="40.760000000000005" type="curve"/>
    </contour>
  </outline>
</glyph>
<glyph name="eng" format="2">
  <advance width="1128"/>
  <unicode hex="014B"/>
  <anchor x="569.28" y="-421" name="bottom"/>
  <anchor x="568.18" y="1120" name="top"/>
  <outline>
    <contour>
      <point x="369.46" y="0" type="line" name="n00"/>
      <point x="369.46" y="844.04" type="line"/>
      <point x="361.66" y="857.4" type="line"/>
      <point x="335.82" y="981.16" type="line" name="n03"/>
      <point x="326.46" y="1011.88"/>
      <point x="305.3" y="1026.8" name="n05"/>
      <point x="273.46" y="1026.8" type="curve" smooth="yes"/>
      <point x="122.38" y="1026.8" type="line" name="n07"/>
      <point x="122.38" y="0" type="line"/>
    </contour>
    <contour>
      <point x="1016.18" y="652.96" type="line" smooth="yes" name="n09"/>
      <point x="1016.18" y="881.84"/>
      <point x="894.58" y="1042.8"/>
      <point x="670.34" y="1042.8" type="curve" smooth="yes" name="n12"/>
      <point x="499.42" y="1042.8"/>
      <point x="393.3" y="953.48"/>
      <point x="293.5" y="834.44" type="curve"/>
      <point x="322.46" y="688.76" type="line"/>
      <point x="398.62" y="784.16"/>
      <point x="489.38" y="848.08"/>
      <point x="595.46" y="848.08" type="curve" smooth="yes" name="n19"/>
      <point x="710.54" y="848.08"/>
      <point x="769.1" y="775.8"/>
      <point x="769.1" y="652.96" type="curve" name="n22"/>
      <point x="769.1" y="652.96" type="line"/>
      <point x="769.1" y="8.38" type="line" smooth="yes"/>
      <point x="769.1" y="-116.8"/>
      <point x="718.52" y="-175.82"/>
      <point x="619.3" y="-175.82" type="curve" smooth="yes"/>
      <point x="575.7" y="-175.82"/>
      <point x="556.54" y="-164.18"/>
      <point x="536.62" y="-164.18" type="curve" smooth="yes" name="n30"/>
      <point x="513.34" y="-164.18"/>
      <point x="492.74" y="-172.76"/>
      <point x="482.16" y="-211.96" type="curve" smooth="yes"/>
      <point x="455.2" y="-320.36" type="line"/>
      <point x="520.04" y="-348.28"/>
      <point x="571.18" y="-360.4"/>
      <point x="642.14" y="-360.4" type="curve" smooth="yes" name="n37"/>
      <point x="904.22" y="-360.4"/>
      <point x="1016.18" y="-194.78"/>
      <point x="1016.18" y="37.24" type="curve" smooth="yes"/>
    </contour>
  </outline>
</glyph>
<glyph name="OE" format="2">
  <advance width="2163"/>
  <unicode hex="0152"/>
  <anchor x="1085.3" y="1518.62" name="Top"/>
  <anchor x="1204.28" y="-70" name="bottom"/>
  <anchor x="1085.3" y="1518.62" name="top"/>
  <outline>
    <contour>
      <point x="1393.58" y="723.4" type="curve" smooth="yes"/>
      <point x="1393.58" y="1146.68"/>
      <point x="1131.94" y="1462.8" name="n02"/>
      <point x="737.38" y="1462.8" type="curve" smooth="yes"/>
      <point x="342.34" y="1462.8"/>
      <point x="77.38" y="1147.8"/>
      <point x="77.38" y="723.4" type="curve" smooth="yes" name="n06"/>
      <point x="77.38" y="298.56"/>
      <point x="342.34" y="-15.12" name="n08"/>
      <point x="737.38" y="-15.12" type="curve" smooth="yes"/>
      <point x="1131.94" y="-15.12"/>
      <point x="1393.58" y="298.56"/>
    </contour>
    <contour>
      <point x="1444.38" y="1446.8" type="line" name="n12"/>
      <point x="1205.54" y="1446.8" type="line" name="n13"/>
      <point x="1205.54" y="0" type="line" name="n14"/>
      <point x="1444.38" y="0" type="line"/>
    </contour>
    <contour>
      <point x="1417.66" y="832.76" type="line" name="n16"/>
      <point x="1417.66" y="623.56" type="line" name="n17"/>
      <point x="1949.9" y="623.56" type="line"/>
      <point x="1949.9" y="832.76" type="line"/>
    </contour>
    <contour>
      <point x="1417.66" y="1446.8" type="line"/>
      <point x="1417.66" y="1229.8" type="line"/>
      <point x="2085.5" y="1229.8" type="line"/>
      <point x="2085.5" y="1446.8" type="line"/>
    </contour>
    <contour>
      <point x="1417.66" y="217" type="line"/>
      <point x="1417.66" y="0" type="line"/>
      <point x="2085.5" y="0" type="line"/>
      <point x="2085.94" y="217" type="line"/>
    </contour>
    <contour>
      <point x="1173.9" y="723.4" type="curve" smooth="yes" name="n28"/>
      <point x="1173.9" y="406.4"/>
      <point x="1018.78" y="209.24"/>
      <point x="764.78" y="209.24" type="curve" smooth="yes" name="n31"/>
      <point x="508.54" y="209.24"/>
      <point x="352.54" y="406.4"/>
      <point x="352.54" y="723.4" type="curve" smooth="yes" name="n34"/>
      <point x="352.54" y="1038.84"/>
      <point x="508.54" y="1238.44"/>
      <point x="764.78" y="1238.44" type="curve" smooth="yes" name="n37"/>
      <point x="1018.78" y="1238.44"/>
      <point x="1173.9" y="1038.84"/>
    </contour>
  </outline>
</glyph>
<glyph name="oe" format="2">
  <advance width="1752"/>
  <unicode hex="0153"/>
  <anchor x="900.96" y="-70" name="bottom"/>
  <anchor x="890.22" y="1120" name="top"/>
  <outline>
    <contour>
      <point x="541.72" y="1042.8" type="curve" smooth="yes" name="n00"/>
      <point x="261.88" y="1042.8"/>
      <point x="66.84" y="839.24"/>
      <point x="66.84" y="514.96" type="curve" smooth="yes" name="n03"/>
      <point x="66.84" y="189.12"/>
      <point x="261.88" y="-15.12"/>
      <point x="532.36" y="-15.12" type="curve" smooth="yes" name="n06"/>
      <point x="818" y="-15.12"/>
      <point x="994.56" y="189.12"/>
      <point x="994.56" y="514.96" type="curve" smooth="yes"/>
      <point x="994.56" y="839.24"/>
      <point x="818" y="1042.8"/>
    </contour>
    <contour>
      <point x="555.76" y="176.48" type="curve" smooth="yes" name="n12"/>
      <point x="396.24" y="176.48"/>
      <point x="321.72" y="294.04"/>
      <point x="321.72" y="513.4" type="curve" smooth="yes" name="n15"/>
      <point x="321.72" y="732.76"/>
      <point x="396.24" y="851.2"/>
      <point x="555.76" y="851.2" type="curve" smooth="yes" name="n18"/>
      <point x="713.28" y="851.2"/>
      <point x="787.8" y="732.76"/>
      <point x="787.8" y="513.4" type="curve" smooth="yes"/>
      <point x="787.8" y="294.04"/>
      <point x="713.28" y="176.48"/>
    </contour>
    <contour>
      <point x="1277.64" y="1042.8" type="curve" smooth="yes"/>
      <point x="988.4" y="1042.8"/>
      <point x="832.8" y="815.16"/>
      <point x="832.8" y="534.96" type="curve" smooth="yes" name="n27"/>
      <point x="832.8" y="152.36"/>
      <point x="1037.64" y="-15.12"/>
      <point x="1272.28" y="-15.12" type="curve" smooth="yes"/>
      <point x="1410.28" y="-15.12"/>
      <point x="1571.48" y="24.12"/>
      <point x="1680.12" y="153.44" type="curve"/>
      <point x="1607.48" y="244.8" type="line"/>
      <point x="1597.68" y="259.28"/>
      <point x="1581.64" y="267.52"/>
      <point x="1563.6" y="267.52" type="curve" smooth="yes"/>
      <point x="1501.68" y="267.52"/>
      <point x="1444.44" y="178.04"/>
      <point x="1295.68" y="178.04" type="curve" smooth="yes"/>
      <point x="1132.96" y="178.04"/>
      <point x="1030.2" y="288.96"/>
      <point x="1030.2" y="534.96" type="curve" smooth="yes" name="n43"/>
      <point x="1030.2" y="740.76"/>
      <point x="1108.04" y="863.68"/>
      <point x="1267.16" y="863.68" type="curve" smooth="yes"/>
      <point x="1403.72" y="863.68"/>
      <point x="1466.4" y="742.4"/>
      <point x="1466.4" y="611.92" type="curve" name="n49"/>
      <point x="980.96" y="611.92" type="line" name="n50"/>
      <point x="985.2" y="461.32" type="line" name="n51"/>
      <point x="1630.84" y="461.32" type="line" smooth="yes"/>
      <point x="1675.84" y="461.32"/>
      <point x="1686.08" y="480.92"/>
      <point x="1686.08" y="557.12" type="curve" smooth="yes" name="n55"/>
      <point x="1686.08" y="856.92"/>
      <point x="1510.44" y="1042.8"/>
    </contour>
  </outline>
</glyph>
<glyph name="Tbar" format="2">
  <advance width="1224.8"/>
  <unicode hex="0166"/>
  <anchor x="615.96" y="1518.62" name="Top"/>
  <anchor x="615.96" y="1518.62" name="top"/>
  <anchor x="615.96" y="-70.0" name="bottom"/>
  <anchor x="645.94" y="721.84" name="Slash"/>
  <outline>
    <contour>
      <point x="165.18" y="698.52" type="line"/>
      <point x="1059.62" y="698.52" type="line"/>
      <point x="1059.62" y="852.68" type="line"/>
      <point x="165.18" y="852.68" type="line"/>
    </contour>
    <component base="T" xOffset="12.2"/>
  </outline>
</glyph>
<glyph name="tbar" format="2">
  <advance width="751.92"/>
  <unicode hex="0167"/>
  <anchor x="347.04" y="1120.0" name="top"/>
  <anchor x="459.98" y="-70.0" name="bottom"/>
  <anchor x="421.74" y="721.84" name="Slash"/>
  <anchor x="315.28" y="485.98" name="bar"/>
  <outline>
    <contour>
      <point x="58.84" y="540.08" type="line"/>
      <point x="717.24" y="540.08" type="line"/>
      <point x="717.24" y="694.24" type="line"/>
      <point x="58.84" y="694.24" type="line"/>
    </contour>
    <component base="t" xOffset="2.44"/>
  </outline>
</glyph>
